<svg xmlns="http://www.w3.org/2000/svg" xmlns:xlink="http://www.w3.org/1999/xlink" width="540" height="540" viewBox="0 0 540 540">
  <defs>
    <clipPath id="clip-path">
      <rect id="Rectangle_17197" data-name="Rectangle 17197" width="362.719" height="379.649" fill="none"/>
    </clipPath>
    <clipPath id="clip-Activity_2_1">
      <rect width="540" height="540"/>
    </clipPath>
  </defs>
  <g id="Activity_2_1" data-name="Activity 2 – 1" clip-path="url(#clip-Activity_2_1)">
    <rect width="540" height="540" fill="#d6eeef"/>
    <path id="Path_154215" data-name="Path 154215" d="M1514.432,423.7c61.465-32.217,87.506-30.965,152.377-15.482s134.265,13.7,184.339,3.568,48.008-2.53,86.84,0,32.225-3.1,70.39-5.914,4.4-.468,48.441-1.876,80-38,165.138-27.68,182.019,119.635,182.019,119.635V665.659l-966.608-4v-165.7s40.367-53.014,77.064-72.25" transform="translate(-1728.895 -104.487)" fill="rgba(173,229,227,0.65)"/>
    <path id="Path_153653" data-name="Path 153653" d="M519.225,788.6q8.617-.607,17.181-1.533,3.9-.422,7.785-.911h.031c5.085-.282,33.576-.961,38.654-1.319q1.111-.078,2.221-.16c30.869-2.247,62.52-5.49,92.358-11.041,12.846-2.387,25.861-5.883,34.833-11.746a31.3,31.3,0,0,0,8.317-7.563,12.822,12.822,0,0,0,2.775-8.235,9.874,9.874,0,0,0-.487-2.515c-1.1-3.312-2.151-5.31-3.759-6.731s-3.871-2.322-7.426-3.212c-7.109-1.783-19.255-3.544-41.28-10.08-22.257-6.609-57.139-5.951-90.222-3.617l-.133.009c-25.29,1.785-72.935,6.905-89.74,8.091-4.407.311-8.3.514-11.58.564q-4.574.07-8.9.382c-27.357,1.93-64.511-5.354-87.232,1.824-10,3.149-20.33,7.429-25.7,13.106-2.348,2.48-3.335,5-3.189,7.388.091,1.5.63,1.985,1.642,3.439a16.026,16.026,0,0,0,4.459,4.133l-.258.538.258-.538c7.338,4.8,18.6,7.187,29.35,9.135A425.754,425.754,0,0,0,431.9,773.5c31.083.929,54.827,15.22,87.323,15.1" transform="translate(-313.412 -298.34)" fill="rgba(87,189,185,0.3)"/>
    <g id="Group_20307" data-name="Group 20307" transform="translate(43.784 89.823)">
      <g id="Group_20307-2" data-name="Group 20307" transform="translate(0 0)" clip-path="url(#clip-path)">
        <path id="Path_156212" data-name="Path 156212" d="M287.209,366.895s34.609-1.914,32.493,18.14-34.388,40.078-61.61,29.405" transform="translate(-61.408 -87.283)" fill="#ded6ea"/>
        <path id="Path_156213" data-name="Path 156213" d="M267.867,432.3s-3.88,13.982-9.558,18.734-14.2,9.6-13.947,11.075,20.956.873,31.735,3.007,32.505,8.147,34.721,10.38c0,0,2.56.126,2.26-1.251s8.837,3.7,10.056,2.8,3.886.307-3.406-6.321c0,0-3.67-8.13-12.51-10.829s-24.005-3.3-24.005-3.3l-17.892,1.062,21.244-27.831S279.1,433.986,267.867,432.3Z" transform="translate(-58.139 -102.27)" fill="#829cc8"/>
        <path id="Path_156214" data-name="Path 156214" d="M168.329,433.267s-4.976,16.036-9.908,21.28-15.712,10.772-15.443,12.33,22.106.114,33.473,2.365,34.28,8.591,36.616,10.946c0,0,2.7.133,2.383-1.319s9.32,3.9,10.606,2.954,3.644-.632-6.643-9.069c0,0-.819-6.17-10.142-9.017s-25.316-3.476-25.316-3.476l-18.868,1.12,23.356-28.825S180.179,435.044,168.329,433.267Z" transform="translate(-34.017 -102.917)" fill="#829cc8"/>
        <path id="Path_156215" data-name="Path 156215" d="M281.994,226.5s1.535,6.447,2.54,6.8l-.926,1.485.924,4.146-.939,2.294.939,3.9-1.2,1.709s-3.307,32.115-10.033,48.6c0,0-4.728,19.562-2.49,27.169s1.456,26.173-3.946,33.931-13.241,35.1-65.611,27c0,0-18.02-49.618,4.622-84.186s41.256-56.373,49.57-72.546C255.439,226.8,264.817,232.991,281.994,226.5Z" transform="translate(-46.265 -53.892)" fill="#f9dde5"/>
        <path id="Path_156216" data-name="Path 156216" d="M261.5,201.394s-9.282,3.893-15.129,9.406c0,0,8.2,3.016,9.239,10.4,0,0,9.216,8.763,8.737,6.126l3.055-6.8S259.845,211.136,261.5,201.394Z" transform="translate(-58.619 -47.917)" fill="#cac4dd"/>
        <path id="Path_156217" data-name="Path 156217" d="M168.242,310.587c-25.39,32.6-22.115,62.275-22.115,62.275l-1.342,2.258,2.727,3.294-1.613,1.827,3.885,3.854-1.5,1.992,9.34,6.832c19.655,15.413,52.431-4.3,52.431-4.3s29.02-20.426,18.111-37.857-43.735-6.91-43.735-6.91c2.61-31.612,30-57.978,30-57.978" transform="translate(-34.448 -68.017)" fill="#cac4dd"/>
        <path id="Path_156218" data-name="Path 156218" d="M278.49,228.359s1.761,14.758-7.824,58.588,1.925,51.839-10.561,70.754-35.883,16.791-35.883,16.791l-19.89,9.038s28.859,2.242,38.288-1.654,24.047-13.147,28.666-30.333,1.538-32.4,1.715-38.424a72.09,72.09,0,0,1,1.968-15.533c1.953-8.186,5.513-18.162,5.521-18.612.015-.848,5.188-32.14,5.188-32.14l1.2-1.71-.94-3.9.94-2.294-.751-3.371.753-2.26-1.1-1.9-1.442-4.9Z" transform="translate(-48.616 -53.892)" fill="#f8c0d8"/>
        <path id="Path_156219" data-name="Path 156219" d="M241.861,202.965s-29.524-.46-41.084,4.642c-8.53,4.37-6.106,11.095-6.106,11.095a7.853,7.853,0,0,1-8.36,2.493s.832,6.279,6.215,7.161l-7.333,19.77s12.326-7.811,17.037-14.8,13.17-11.712,16.81-9.929,7.32,2.668,6.6,8.755c0,0,6.593,4.456,6.81,6.393a15.289,15.289,0,0,0,6.743-5.812c2.384-4.064,2.769-7.129,2.321-9.042-1.007-4.3-4.081-9.969-9.7-12.522C231.815,211.171,240.317,204.3,241.861,202.965Z" transform="translate(-44.062 -48.289)" fill="#fff"/>
        <path id="Path_156220" data-name="Path 156220" d="M313.915,223.164s3.778,9.168,1.424,22.8c0,0-.95,9.434-5.145,10.173l.466-10.105,1.206-1.709-.94-3.9.5-1.229-.315-4.435.753-2.261-1.1-1.9-1.441-4.9Z" transform="translate(-73.597 -53.097)" fill="#fff"/>
        <path id="Path_156221" data-name="Path 156221" d="M158.829,314.7S153,326.2,148.614,330.859s-6.841,4.839-4.175,9.21a24.983,24.983,0,0,0,6.642,7.015s12.542-26.472,16.1-28.7Z" transform="translate(-34.103 -74.877)" fill="#fff"/>
        <path id="Path_156222" data-name="Path 156222" d="M163.428,318.248s-11.727,23.8-17.877,23.519c0,0,2.59,6.039,6.058,6.117,0,0,14.076-26.983,16.1-28.7S163.428,318.248,163.428,318.248Z" transform="translate(-34.631 -75.677)" fill="#f8f9fb"/>
        <path id="Path_156223" data-name="Path 156223" d="M206.962,226.443s8.094-10.989,18.792-7.195,12.9,16.3,9.331,20.183l-3.915-2.757s-.437-7.5-5.416-9.2a12.2,12.2,0,0,0-11.266,2.138c-1.27,1.33-8.55,7.4-8.55,7.4S204.17,229.422,206.962,226.443Z" transform="translate(-48.867 -51.976)" fill="#f8f9fb"/>
        <path id="Path_156224" data-name="Path 156224" d="M198.64,230.374c-.6,1.436-5.41,18.643-7.881,21.164L202.811,240.5s-1.6-4.447-1.055-6.484-3.021-4.5-3.021-4.5" transform="translate(-45.387 -54.609)" fill="#f8f9fb"/>
        <path id="Path_156225" data-name="Path 156225" d="M325.754,316.554l16.188.975-7.086,6.513s-23.582-10.521-35.113-20.574c0,0,6.539-26.875,7.3-32.75,0,0,9.373,22.637,23.386,29.994Z" transform="translate(-71.317 -64.412)" fill="#cbc4de"/>
        <path id="Path_156226" data-name="Path 156226" d="M113.572,327.767c-23.649-8.773,14.353-78.28,19.968-95.073s-9.779-57.107-74.464-41.363-69.51,75.578-42.829,84.588C58.365,288.441,69.94,240.46,88.214,241.3s14.749,14.953.414,51.458,13.191,51.975,23.006,46.814" transform="translate(-0.238 -44.672)" fill="#829cc8"/>
        <path id="Path_156227" data-name="Path 156227" d="M106.993,341.077c-4.361,0-9.542-2.132-13.789-5.937-4.976-4.457-15.475-17.56-5.523-42.9,8.935-22.754,14.919-39.388,10.5-46.209-1.706-2.63-4.958-3.968-10.235-4.21-6.477-.3-12.288,6.124-19.024,13.558-11.711,12.926-26.286,29.011-53.126,21.032C5.466,272.926-.559,262.205.041,248.425c.5-11.609,5.671-23.465,14.549-33.386,10.448-11.675,25.686-20.212,44.068-24.686,16.234-3.951,30.5-4.653,42.41-2.087,10.107,2.18,18.3,6.622,24.354,13.2,9.6,10.436,11.186,23.5,8.6,31.227-1.166,3.487-3.643,9.063-6.778,16.123-9.582,21.571-25.619,57.675-19.447,72.324a9.732,9.732,0,0,0,5.8,5.669.762.762,0,1,1-.53,1.429,11.327,11.327,0,0,1-6.674-6.507c-6.429-15.256,9.149-50.327,19.458-73.535,3.119-7.022,5.583-12.57,6.726-15.987,2.445-7.314.9-19.732-8.28-29.712-17.362-18.882-48.352-14.789-65.281-10.668-18.081,4.4-33.051,12.777-43.293,24.222-8.643,9.659-13.672,21.177-14.162,32.435-.569,13.075,5.059,23.217,14.688,26.469,25.9,7.7,40.11-7.994,51.535-20.6,6.994-7.72,13.042-14.382,20.223-14.057,5.811.266,9.447,1.824,11.443,4.9,4.443,6.85.4,20.219-10.354,47.6-9.6,24.451.383,36.964,5.122,41.209,6.166,5.523,13.267,6.518,16.82,4.652a.762.762,0,1,1,.709,1.349,10.177,10.177,0,0,1-4.758,1.07" transform="translate(0 -44.434)" fill="#231f20"/>
        <path id="Path_156228" data-name="Path 156228" d="M221.775,384.112a117.062,117.062,0,0,1-17.8-1.488.762.762,0,1,1,.232-1.506c42.986,6.635,56.856-10.6,64.755-28.329,4.573-10.27,4.045-18.527,3.432-28.088-.584-9.115-1.246-19.447,2.786-33.218a201.855,201.855,0,0,0,9.437-46.3,1.934,1.934,0,0,1,1.019-1.645c.239-.152.239-.152.245-.361a7.22,7.22,0,0,0-.45-1.807,7.467,7.467,0,0,1-.489-2.069,2.675,2.675,0,0,1,.63-1.629c.224-.312.315-.457.309-.64a7.737,7.737,0,0,0-.463-2.048,7.3,7.3,0,0,1-.463-2.114,1.336,1.336,0,0,1,.853-1.116l.024-.012a7.826,7.826,0,0,0-.908-1.82,6.482,6.482,0,0,1-.98-2.129,32.207,32.207,0,0,0-2.209-8.275.762.762,0,0,1,1.363-.683,32.763,32.763,0,0,1,2.352,8.715,5.813,5.813,0,0,0,.78,1.584,7.041,7.041,0,0,1,1.173,2.745c.069.692-.528,1.025-.849,1.2l-.053.029a8.452,8.452,0,0,0,.37,1.4,9.029,9.029,0,0,1,.536,2.468,2.481,2.481,0,0,1-.594,1.575,1.263,1.263,0,0,0-.344.741,7.266,7.266,0,0,0,.414,1.593,7.713,7.713,0,0,1,.525,2.327,1.772,1.772,0,0,1-.951,1.6c-.248.159-.293.187-.317.481a203.34,203.34,0,0,1-9.5,46.632c-3.949,13.49-3.3,23.681-2.721,32.669.6,9.356,1.164,18.192-3.562,28.806-5.363,12.042-12.149,19.927-21.357,24.814-7.411,3.934-16.4,5.889-27.224,5.889m64.112-152.087h0Z" transform="translate(-48.378 -51.967)" fill="#231f20"/>
        <path id="Path_156229" data-name="Path 156229" d="M273.473,417.894a40.521,40.521,0,0,1-14.913-2.7.762.762,0,1,1,.561-1.417c12.237,4.841,28.146,2.82,41.518-5.277,10.565-6.4,17.407-15.288,18.3-23.782a11.888,11.888,0,0,0-3.141-9.878c-8.035-8.448-28.349-7.433-28.553-7.423a.762.762,0,0,1-.084-1.521,69.087,69.087,0,0,1,11.572.531c8.457,1.1,14.571,3.579,18.168,7.361a13.344,13.344,0,0,1,3.554,11.089c-.945,8.966-8.059,18.284-19.028,24.927a54.716,54.716,0,0,1-27.956,8.09" transform="translate(-61.404 -87.045)" fill="#231f20"/>
        <path id="Path_156230" data-name="Path 156230" d="M311.609,476.793a.754.754,0,0,1-.3-.064c-6.055-2.648-27.652-11.321-51.351-11.771q-2.276-.043-4.214-.071c-9.134-.142-11.891-.185-12.347-1.773-.433-1.506,1.569-2.884,8.581-7.432,12.248-7.946,14.878-22.824,14.9-22.973a.762.762,0,0,1,1.5.251c-.106.636-2.752,15.681-15.577,24-3.652,2.369-7.423,4.816-7.9,5.719.881.529,5.309.6,10.855.684q1.942.03,4.219.071c23.574.447,45.07,8.927,51.608,11.756a.93.93,0,0,0,.523-.745c-.02-.859-1.581-4.162-20.837-10.6a.762.762,0,0,1,.484-1.446c14.674,4.906,21.829,8.842,21.878,12.029a2.575,2.575,0,0,1-1.763,2.317.77.77,0,0,1-.264.047" transform="translate(-57.897 -102.803)" fill="#231f20"/>
        <path id="Path_156231" data-name="Path 156231" d="M339.969,486.981c-2.433,0-6.882-1.879-10.623-3.7a.762.762,0,1,1,.667-1.371c4.628,2.254,9.187,3.834,10.248,3.589-.072-.264-.419-1.039-2.082-2.8-8.323-8.8-22.166-12.6-23.075-12.647a.775.775,0,0,1-.736-.782.75.75,0,0,1,.747-.742c1.419,0,15.577,4.034,24.171,13.125,2.3,2.434,2.958,3.813,2.264,4.757a1.866,1.866,0,0,1-1.581.571" transform="translate(-74.797 -111.476)" fill="#231f20"/>
        <path id="Path_156232" data-name="Path 156232" d="M325.346,470.633a.762.762,0,0,1-.727-.533c-5.663-18.028-52.418-12.019-52.89-11.956a.762.762,0,0,1-.7-1.225c.145-.186,14.642-18.65,21.608-27.94a.762.762,0,0,1,1.219.914c-5.836,7.784-16.943,21.988-20.5,26.531a147.635,147.635,0,0,1,22.958-.624c17.188,1.035,27.2,5.693,29.761,13.844a.763.763,0,0,1-.5.956.773.773,0,0,1-.229.035" transform="translate(-64.447 -101.993)" fill="#231f20"/>
        <path id="Path_156233" data-name="Path 156233" d="M309.43,255.72a.762.762,0,0,1-.313-1.457c3.992-1.793,6.187-12.264,5.22-24.9-.341-4.457-1.567-7.524-3.547-8.871a4.549,4.549,0,0,0-3.687-.649.762.762,0,0,1-.463-1.452,6.093,6.093,0,0,1,4.977.82c2.43,1.632,3.857,5.008,4.241,10.035.87,11.384-.683,23.963-6.116,26.4a.758.758,0,0,1-.312.067" transform="translate(-72.833 -51.912)" fill="#231f20"/>
        <path id="Path_156234" data-name="Path 156234" d="M336.9,303.992a.754.754,0,0,1-.373-.1,63.029,63.029,0,0,1-28.166-33.2.762.762,0,0,1,1.462-.434,61.435,61.435,0,0,0,27.453,32.3.762.762,0,0,1-.375,1.426" transform="translate(-73.359 -64.174)" fill="#231f20"/>
        <path id="Path_156235" data-name="Path 156235" d="M429.9,226.878l-5.575-3.365-70.3-6.113L329.66,300.665l3.211,3.2,24.419-82.951Z" transform="translate(-78.436 -51.726)" fill="#bab0d5"/>
        <path id="Path_156236" data-name="Path 156236" d="M333.5,306.019l62.942,3.854,34.373-81.821L358.2,222.336" transform="translate(-79.348 -52.9)" fill="#ded6ea"/>
        <path id="Path_156237" data-name="Path 156237" d="M396.2,310.4h-.047l-62.941-3.855a.762.762,0,0,1,.094-1.522l62.4,3.822,33.754-80.351-71.556-5.632a.762.762,0,1,1,.119-1.519l72.609,5.716a.762.762,0,0,1,.642,1.055L396.9,309.93a.763.763,0,0,1-.7.466" transform="translate(-79.11 -52.663)" fill="#231f20"/>
        <path id="Path_156238" data-name="Path 156238" d="M349.721,328.2a22.269,22.269,0,0,0,2.556,0c2.632-.129,6.928-1.337,11.1-8.8,2.955-8.672,2.343-10.642,6.83-10.412s1.465,2.173,1.465,2.173,1.424-3.387,3.023-1.943,2.76,2.528,2.76,2.528.183-1.8,3.2-.585,4.427,5.828,1.677,13.489-9,14.619-14.082,13.99a42.285,42.285,0,0,1-8.969-1.815c-3.06-.879-9.072-2.108-11.813-3.151S348.234,329.45,349.721,328.2Z" transform="translate(-82.431 -73.486)" fill="#829cc9"/>
        <path id="Path_156239" data-name="Path 156239" d="M332.346,305.368a.762.762,0,0,1-.633-.337l-2.923-4.348a.763.763,0,0,1-.1-.639l24.365-83.1a.762.762,0,0,1,1.307-.285l3.265,3.762a.761.761,0,0,1,.155.716l-24.706,83.682a.759.759,0,0,1-.615.537.747.747,0,0,1-.116.009m-2.091-5.239,1.82,2.707L356.2,221.109l-2.077-2.394Z" transform="translate(-78.198 -51.488)" fill="#231f20"/>
        <path id="Path_156240" data-name="Path 156240" d="M437.267,227.4a.756.756,0,0,1-.431-.134l-5.414-3.722-70.089-5.624a.762.762,0,1,1,.123-1.52l70.291,5.641a.751.751,0,0,1,.37.131l5.581,3.838a.762.762,0,0,1-.432,1.39" transform="translate(-85.805 -51.488)" fill="#231f20"/>
        <path id="Path_156241" data-name="Path 156241" d="M356.08,339.734a24.514,24.514,0,0,1-7.31-1.565,41.273,41.273,0,0,0-6.255-1.633c-7.363-1.419-16.81-5.733-28.107-12.827-8.387-5.267-14.719-10.19-14.783-10.24a.762.762,0,0,1,.937-1.2c.25.2,25.13,19.476,42.216,22.768a42.558,42.558,0,0,1,6.456,1.683c6.4,2.045,11.017,3.518,17.829-6.366,6.569-9.53,4.54-15.772,2.55-17.741-.7-.691-1.364-1-1.779-.811-.393.174-.766.878-.713,2.057a.762.762,0,1,1-1.523.069c-.077-1.719.527-3.035,1.617-3.518.6-.267,1.854-.479,3.47,1.12,2.475,2.448,4.761,9.349-2.366,19.69-4.564,6.621-8.435,8.518-12.238,8.518" transform="translate(-71.22 -73.81)" fill="#231f20"/>
        <path id="Path_156242" data-name="Path 156242" d="M379.142,330.373a.762.762,0,0,1-.6-1.233c.087-.111,8.648-11.145,4.719-18.249-1.173-1.419-1.743-1.372-1.89-1.323-.829.274-1.385,2.868-1.469,4.636a.771.771,0,0,1-.8.725.762.762,0,0,1-.726-.8c.041-.879.352-5.3,2.512-6.012,1.638-.544,3.108,1.263,3.592,1.856a.794.794,0,0,1,.073.108c4.508,7.991-4.434,19.511-4.816,20a.759.759,0,0,1-.6.291" transform="translate(-90.027 -73.287)" fill="#231f20"/>
        <path id="Path_156243" data-name="Path 156243" d="M354.877,328.579a.762.762,0,0,1-.153-1.508c8.027-1.659,9.636-7.346,11.056-12.364.869-3.071,1.619-5.725,3.772-6.867,2.415-1.283,3.567-.209,4.04.544,2.283,3.64-1.9,16.756-6.388,20.048a.762.762,0,0,1-.9-1.23c3.443-2.522,8.009-14.8,6-18.008-.14-.223-.514-.814-2.034-.008-1.577.837-2.247,3.2-3.021,5.937-1.384,4.893-3.28,11.595-12.214,13.441a.764.764,0,0,1-.155.016" transform="translate(-84.254 -73.102)" fill="#231f20"/>
        <path id="Path_156244" data-name="Path 156244" d="M369.908,202.359a.762.762,0,0,1-.762-.762c0-2.985-4.78-8.252-6.623-10.03a.762.762,0,1,1,1.058-1.1c.29.279,7.09,6.885,7.09,11.127a.762.762,0,0,1-.762.762" transform="translate(-86.199 -45.267)" fill="#231f20"/>
        <path id="Path_156245" data-name="Path 156245" d="M401.623,198.324q-.047,0-.094,0a.762.762,0,0,1-.663-.85c.649-5.258-1.873-10.689-1.9-10.744a.762.762,0,1,1,1.378-.651c.112.238,2.737,5.876,2.032,11.581a.761.761,0,0,1-.755.668" transform="translate(-94.908 -44.169)" fill="#231f20"/>
        <path id="Path_156246" data-name="Path 156246" d="M428.659,201.185a.762.762,0,0,1-.685-1.093c.1-.2,2.465-4.989,9.124-8.848a.762.762,0,1,1,.764,1.318c-6.228,3.609-8.494,8.148-8.517,8.194a.761.761,0,0,1-.686.428" transform="translate(-101.809 -45.478)" fill="#231f20"/>
        <path id="Path_156247" data-name="Path 156247" d="M458.158,209.064a.762.762,0,0,1-.483-1.352c.248-.2,6.1-4.958,9.439-5.384a.763.763,0,1,1,.194,1.513c-2.413.307-7.076,3.75-8.669,5.051a.757.757,0,0,1-.481.172" transform="translate(-108.827 -48.138)" fill="#231f20"/>
        <path id="Path_156248" data-name="Path 156248" d="M177.054,404.309c-8.288,0-15.543-2.292-20.786-6.788a34.712,34.712,0,0,0-3.432-2.418c-2.457-1.614-5-3.284-5.776-4.5a1.264,1.264,0,0,1-.157-1.171,2.259,2.259,0,0,1,1.668-1.1c-3.358-2.236-3.931-3.256-3.729-4.136.18-.782.994-1.043,1.542-1.143a17,17,0,0,0-1.124-1.276,6.117,6.117,0,0,1-1.467-1.922,1.919,1.919,0,0,1,.92-2.376c.438-.307.54-.4.477-.812-4.724-31.907,29.282-71.193,29.626-71.586a.762.762,0,1,1,1.147,1c-.339.389-33.886,39.151-29.265,70.36a2.156,2.156,0,0,1-1.11,2.283c-.434.306-.451.318-.339.679a8.592,8.592,0,0,0,1.12,1.327c1.12,1.19,2,2.129,1.68,3.019a1.219,1.219,0,0,1-1.111.761,3.053,3.053,0,0,0-.525.1c.217.337,1,1.187,3.841,3a1.033,1.033,0,0,1,.585,1.055c-.106.676-.8.857-1.529,1.049a7.945,7.945,0,0,0-.832.252,30.88,30.88,0,0,0,5.2,3.868,34.3,34.3,0,0,1,3.607,2.553c8.447,7.243,22.546,8.425,37.694,3.148,17.675-6.158,31.2-18.813,33.659-31.492,1.421-7.329-.327-12.983-5.194-16.805-10.282-8.073-33.51-6.333-56.486,4.233a.762.762,0,1,1-.637-1.384c23.847-10.968,47.181-12.594,58.063-4.048,5.279,4.145,7.267,10.472,5.75,18.3-2.557,13.194-16.484,26.311-34.654,32.64a56.448,56.448,0,0,1-18.42,3.34" transform="translate(-34.184 -72.525)" fill="#231f20"/>
        <path id="Path_156249" data-name="Path 156249" d="M214.225,481a.755.755,0,0,1-.3-.06c-6.414-2.718-29.294-11.622-54.405-12.084q-2.409-.045-4.462-.072c-9.664-.146-12.58-.189-13.036-1.817-.431-1.539,1.683-2.947,9.081-7.6,12.986-8.163,16.2-26.062,16.234-26.242a.762.762,0,0,1,1.5.258c-.13.761-3.355,18.743-16.926,27.275-3.877,2.437-7.881,4.954-8.374,5.883.91.557,5.629.628,11.542.717q2.055.03,4.466.072c24.987.46,47.768,9.18,54.655,12.071.249-.143.6-.415.6-.79-.02-.883-1.67-4.281-22.089-10.9a.762.762,0,1,1,.469-1.449c23.072,7.475,23.126,11.128,23.144,12.328a2.634,2.634,0,0,1-1.845,2.359.759.759,0,0,1-.256.045" transform="translate(-33.779 -102.902)" fill="#231f20"/>
        <path id="Path_156250" data-name="Path 156250" d="M244.245,492.281c-2.555,0-7.253-1.923-11.212-3.793a.762.762,0,0,1,.651-1.378c4.976,2.348,9.845,3.986,10.927,3.679-.068-.258-.421-1.052-2.212-2.888-8.892-9.114-23.516-12.95-24.473-12.993a.773.773,0,0,1-.741-.778.751.751,0,0,1,.748-.746c1.5,0,16.465,4.135,25.557,13.452,2.41,2.47,3.11,3.873,2.417,4.845a1.943,1.943,0,0,1-1.664.6" transform="translate(-51.675 -112.632)" fill="#231f20"/>
        <path id="Path_156251" data-name="Path 156251" d="M226.11,473.5a.761.761,0,0,1-.73-.545c-5.249-17.641-52.9-10.344-53.376-10.268a.755.755,0,0,1-.779-.373.763.763,0,0,1,.068-.86c.155-.19,15.507-19.136,22.883-28.669a.762.762,0,0,1,1.206.934C189.218,441.683,177.5,456.2,173.7,460.9c9.3-1.245,48.086-5.373,53.141,11.616a.76.76,0,0,1-.512.947.774.774,0,0,1-.218.032" transform="translate(-40.715 -102.902)" fill="#231f20"/>
        <path id="Path_156252" data-name="Path 156252" d="M206.537,238.243a.761.761,0,0,1-.693-.448,15.841,15.841,0,0,1,1.8-16.21c4.912-6.943,14.517-11.462,22.84-10.744,15.274,1.01,17.159,16.035,17.176,16.187a.762.762,0,0,1-1.515.173c-.066-.568-1.773-13.915-15.777-14.84-7.833-.676-16.859,3.574-21.481,10.1-2.311,3.267-4.475,8.47-1.652,14.7a.763.763,0,0,1-.693,1.077" transform="translate(-48.63 -50.147)" fill="#231f20"/>
        <path id="Path_156253" data-name="Path 156253" d="M210.237,218.164a.752.752,0,0,1-.52-.207c-.1-.1-2.577-2.461-5.4-8.889a1.432,1.432,0,0,1,.086-1.347c1.68-2.885,16.413-5.113,25.305-5.839a101.742,101.742,0,0,1,18.163.274.762.762,0,0,1-.185,1.513,99.949,99.949,0,0,0-17.854-.268c-12.769,1.043-23.638,3.648-24.123,5.11,2.682,6.042,5.03,8.315,5.053,8.337a.762.762,0,0,1-.524,1.316" transform="translate(-48.582 -47.966)" fill="#231f20"/>
        <path id="Path_156254" data-name="Path 156254" d="M195.827,326.65h-.035a.762.762,0,0,1-.727-.8c.012-.276,1.606-28.007,33.035-60.411.213-.23,22.545-24.525,29.132-50.147a.762.762,0,0,1,1.477.38c-6.686,26-29.276,50.57-29.5,50.816C213,283.2,204.993,298.471,201.132,308.339c-4.182,10.687-4.541,17.516-4.544,17.584a.763.763,0,0,1-.761.727" transform="translate(-46.411 -51.089)" fill="#231f20"/>
        <path id="Path_156255" data-name="Path 156255" d="M246.3,210.39a.762.762,0,0,1-.478-1.356c.311-.249,7.7-6.129,15.239-8.6a.762.762,0,1,1,.475,1.448c-7.277,2.386-14.686,8.284-14.761,8.342a.757.757,0,0,1-.476.168" transform="translate(-58.421 -47.679)" fill="#231f20"/>
        <path id="Path_156256" data-name="Path 156256" d="M203.319,228.905a.757.757,0,0,1-.42-.127c-.131-.087-3.248-2.208-6.37-8.6-1.416-2.9-.5-5.978,2.64-8.9a22.879,22.879,0,0,1,4.96-3.432.762.762,0,0,1,.669,1.369c-.1.046-9.6,4.78-6.9,10.3,2.917,5.971,5.818,7.979,5.847,8a.762.762,0,0,1-.426,1.395" transform="translate(-46.605 -49.434)" fill="#231f20"/>
        <path id="Path_156257" data-name="Path 156257" d="M183.625,255.525a.762.762,0,0,1-.671-1.123c7.756-14.476,10.383-30.974,10.409-31.139a.762.762,0,0,1,1.506.233c-.026.168-2.689,16.914-10.572,31.627a.761.761,0,0,1-.672.4" transform="translate(-43.509 -52.967)" fill="#231f20"/>
        <path id="Path_156258" data-name="Path 156258" d="M150.939,347.539a.75.75,0,0,1-.337-.079c-4.665-2.308-7.558-5.524-7.937-8.823a6.965,6.965,0,0,1,2.881-6.275c4.543-3.734,9.617-12.157,12.086-18.185a.762.762,0,1,1,1.41.577c-2.1,5.142-7.179,14.387-12.527,18.785a5.518,5.518,0,0,0-2.337,4.924c.319,2.774,2.907,5.555,7.1,7.63a.762.762,0,0,1-.338,1.445" transform="translate(-33.934 -74.639)" fill="#231f20"/>
        <path id="Path_156259" data-name="Path 156259" d="M191.506,233.14a4.624,4.624,0,0,1-2.818-1,8.255,8.255,0,0,1-3.016-6.4.762.762,0,0,1,1.088-.633c4.146,1.978,7.285-2.022,7.416-2.193a.762.762,0,0,1,1.212.926c-1.24,1.625-4.4,4.128-8.118,3.084a6.953,6.953,0,0,0,2.336,4,3.02,3.02,0,0,0,3.01.482.762.762,0,0,1,.524,1.432,4.751,4.751,0,0,1-1.634.3" transform="translate(-44.174 -52.968)" fill="#231f20"/>
        <path id="Path_156260" data-name="Path 156260" d="M366.3,89.954s5.972,13.043,5.946,23c0,0,28.268,5.614,43.764-6.128,17.8-8.894,25.947-28,29.526-47.575s2.755-23.931,2.755-23.931S440.71,44,433.892,46.065c-7.979,3.286-33.079,3.762-40.106,9.6S369.227,78.153,366.3,89.954Z" transform="translate(-87.153 -8.404)" fill="#fbdde6"/>
        <path id="Path_156261" data-name="Path 156261" d="M245.1,63.952s-12.075-17.189-23.319-24.3C212.9,31.341,205.9,24.586,202.018,17.9c-5.254-9.046-5.669-16.766-5.438-16.791.4-.045-13.4,5.738-15.653,53.31-2,49.518,45.16,53.212,45.16,53.212l2.122.1S223.293,78.388,245.1,63.952Z" transform="translate(-43.033 -0.264)" fill="#fbdde6"/>
        <path id="Path_156262" data-name="Path 156262" d="M265.967,166.11a197.93,197.93,0,0,0-16.931-21.65c-8.63-9.211-11.129-42.383,3.478-56.828S276.686,70.65,292.747,71.1c16.43,2.926,35.635,7.716,44.834,28.412s4.722,34.042,2.016,38.816c-.82,8.415-27.131,25.924-27.388,31.826C312.21,170.152,273.922,180.9,265.967,166.11Z" transform="translate(-57.592 -16.905)" fill="#acb3db"/>
        <path id="Path_156263" data-name="Path 156263" d="M392.627,96.615s-7.845,4.908-6.839,7.857l-9.918.5a35.7,35.7,0,0,1,7.763-6.032A24.169,24.169,0,0,1,392.627,96.615Z" transform="translate(-89.43 -22.987)" fill="#f8b8cd"/>
        <path id="Path_156264" data-name="Path 156264" d="M235.576,78.95s2.4,5.183,1.972,7.179l8.9.713S238.032,79.185,235.576,78.95Z" transform="translate(-56.05 -18.784)" fill="#f8b8cd"/>
        <path id="Path_156265" data-name="Path 156265" d="M363.868,136.691s-6.348,4.623-12.794,8.27c-1.066.6-1.789-1.381-2.855-.688-.668.434-.458,2.19-1.135,2.63-2.779,1.805-5.469,3.765-8.066,5.456-1.422,4-2.65,12.484-11.8,12.961-1.167.06.518,13.6,2.677,22.149,4.811-4.969,13.441-15.125,16.487-15.888C349.943,169.872,363.583,155.294,363.868,136.691Z" transform="translate(-77.762 -32.523)" fill="#829cc9"/>
        <path id="Path_156266" data-name="Path 156266" d="M241.927,140.851s-.6-.909,3.294,2.423c.844,1.046,2.644-1.316,2.644-1.316s-.661,1.219.569,3.922c1.268.86,4.7,3.134,5.882,5.122,2.964,4.978,12.29,11.139,14.048,12.34,9.85.009,1.357,8.477,1.357,8.477l-4.236,8.689s-1.9-.868-6.51-4.78S242.4,151.113,241.927,140.851Z" transform="translate(-57.553 -33.485)" fill="#829cc9"/>
        <path id="Path_156267" data-name="Path 156267" d="M307.439,159.993s7.965,16.487,7.374,32.851c-.579,2.677-2.045,3.739-4.066,5.985a105.662,105.662,0,0,1-10.064,9.46c-4.256,2.25-10.251,4.32-13.565,4.657s-10.424.554-14.171-2.59c-4.578-3.844-7.277-10.853-6.871-19.43-.334-3.992-1.156-7.053.694-10.549,3.083-5.828,9.314-15.372,9.314-15.372s1.408-3.5,7.942-6.238C289.709,156.388,298.607,157.3,307.439,159.993Z" transform="translate(-63.195 -37.449)" fill="#fbdde6"/>
        <path id="Path_156268" data-name="Path 156268" d="M273.469,199.247s-1.5-.143-1.4,2.138,5.918,7.048,11.2,8.724,10.9-5.755,11.707-7.163a5.507,5.507,0,0,0,.7-2.848c1.222-4.669,1.543-10.727,3.391-15.951a74.21,74.21,0,0,1,7.1-14.444c-7.759-2.656-6.125-11.182-6.125-11.182l-13.985-1.128c.552,3.7-8.573,10.693-8.573,10.693a130.155,130.155,0,0,1-.823,14.178A160.062,160.062,0,0,1,273.469,199.247Z" transform="translate(-64.733 -37.449)" fill="#f8c0d8"/>
        <path id="Path_156269" data-name="Path 156269" d="M387.548,115.292a49.12,49.12,0,0,1-14.988-2.112.762.762,0,0,1,.517-1.433c.235.085,23.721,8.237,47.65-8.754,21.1-14.984,26.3-56.588,27.263-66.709C444.259,40.176,434.144,49.3,421.334,49.3c-.613,0-1.228-.021-1.853-.064C384.4,48.756,367.215,88.593,367.047,89a.762.762,0,0,1-1.405-.591c.172-.409,17.554-40.7,53.246-40.7.219,0,.437,0,.657,0,16.1,1.124,28.681-13.949,28.806-14.1a.762.762,0,0,1,1.35.53A172.709,172.709,0,0,1,445,62.5c-3.565,13.992-10.517,32.59-23.394,41.733a58.209,58.209,0,0,1-34.062,11.057" transform="translate(-86.982 -7.931)" fill="#231f20"/>
        <path id="Path_156270" data-name="Path 156270" d="M265.667,184.931a.381.381,0,0,1-.355-.519l.133-.354c4.344-11.7,10.956-17.387,15.736-20.1a.381.381,0,1,1,.376.663c-4.67,2.646-11.133,8.211-15.4,19.7l-.137.364a.38.38,0,0,1-.355.243" transform="translate(-63.119 -39)" fill="#fbdde6"/>
        <path id="Path_156271" data-name="Path 156271" d="M327.88,196.195h-.006a.381.381,0,0,1-.375-.387c.326-21.155-6.01-28.218-6.074-28.287a.381.381,0,0,1,.556-.521c.27.288,6.612,7.3,6.28,28.82a.381.381,0,0,1-.381.375" transform="translate(-76.452 -39.705)" fill="#fbdde6"/>
        <path id="Path_156272" data-name="Path 156272" d="M227.083,108.305a.636.636,0,0,1-.075,0c-43.379-4.268-48.015-39.442-46.918-60.029C181.367,24.3,191.222,0,196.014,0h.012c1.292.011,2,1.318,2.089,3.885.5,13.8,13.377,25.07,25.829,35.968,8.931,7.817,17.365,15.2,21.615,23.489a.762.762,0,0,1-1.356.7C240.086,56.007,231.758,48.717,222.941,41c-12.695-11.112-25.822-22.6-26.349-37.06-.074-2.021-.543-2.418-.581-2.417-.854,0-3.984,3.522-7.754,14.014a118.629,118.629,0,0,0-6.645,32.816c-.806,15.123,1.943,28.177,7.949,37.752,7.532,12.007,20.181,18.965,37.6,20.679a.762.762,0,0,1-.074,1.52" transform="translate(-42.816 0)" fill="#231f20"/>
        <path id="Path_156273" data-name="Path 156273" d="M302,156.872a.719.719,0,0,1-.139-.013,49.1,49.1,0,0,0-9.861-.495.762.762,0,0,1-.09-1.521,49.609,49.609,0,0,1,10.227.517.762.762,0,0,1-.137,1.511" transform="translate(-69.282 -36.826)" fill="#85899d"/>
        <path id="Path_156274" data-name="Path 156274" d="M282.43,151.459a13.944,13.944,0,0,1-14,10.855c-7.592-.351-13.447-7.069-13.076-15.006s6.826-14.088,14.418-13.739,13.447,7.069,13.076,15.007a15.072,15.072,0,0,1-.415,2.883" transform="translate(-60.751 -31.776)" fill="#49494b"/>
        <path id="Path_156275" data-name="Path 156275" d="M268.793,162.852q-.318,0-.639-.014a14.127,14.127,0,0,1-10.063-4.918,15.384,15.384,0,0,1-3.739-10.885c.389-8.344,7.226-14.84,15.214-14.463a14.121,14.121,0,0,1,10.064,4.918,15.38,15.38,0,0,1,3.739,10.885,15.952,15.952,0,0,1-.435,3.029,14.778,14.778,0,0,1-14.14,11.449m.124-28.773c-6.909,0-12.7,5.723-13.043,13.026a13.858,13.858,0,0,0,3.365,9.812,12.614,12.614,0,0,0,8.984,4.4,13.212,13.212,0,0,0,13.228-10.275,14.381,14.381,0,0,0,.394-2.737,13.862,13.862,0,0,0-3.365-9.812,12.611,12.611,0,0,0-8.985-4.4c-.194-.009-.387-.014-.578-.014" transform="translate(-60.513 -31.539)" fill="#231f20"/>
        <path id="Path_156276" data-name="Path 156276" d="M278.3,193.2a15.743,15.743,0,0,1-3.377-.293c-.2-.049-.508-.1-.894-.174-2.106-.383-6.486-1.181-8.535-3.448-4.38-4.845-6.513-13.678-6.52-27.007-.445-2.865-2.69-5.9-5.528-9.737-6.15-8.315-14.574-19.7-12.84-40.214a46.48,46.48,0,0,1,17.367-31.644c10.161-8.082,23.448-11.744,37.406-10.314,32.932,3.374,43.838,28.219,47.408,42.729,4.679,24.167-8.315,36.054-20.881,47.551-5.306,4.854-10.793,9.875-15.029,15.811-8.209,11.507-16.084,14.6-22.7,16.106a27.175,27.175,0,0,1-5.874.634M289.5,71.59a48.739,48.739,0,0,0-30.57,10.286,44.96,44.96,0,0,0-16.8,30.6c-1.683,19.921,6.543,31.041,12.55,39.162,2.982,4.031,5.337,7.216,5.818,10.475a.772.772,0,0,1,.008.111c0,12.964,2,21.484,6.126,26.042,1.7,1.882,5.738,2.618,7.678,2.971.425.077.764.14.983.194a22.957,22.957,0,0,0,8.55-.348c6.34-1.443,13.888-4.414,21.8-15.5,4.329-6.067,9.876-11.142,15.241-16.051,12.82-11.729,24.929-22.808,20.42-46.1-3.465-14.083-14.071-38.261-46.075-41.54a56.236,56.236,0,0,0-5.732-.295" transform="translate(-57.193 -16.671)" fill="#231f20"/>
        <path id="Path_156277" data-name="Path 156277" d="M305.89,151.429c.418-7.935,6.91-14.044,14.5-13.645s13.4,7.157,12.986,15.092-6.91,14.044-14.5,13.645-13.4-7.157-12.986-15.092" transform="translate(-72.775 -32.778)" fill="#49494b"/>
        <path id="Path_156278" data-name="Path 156278" d="M319.338,167.064q-.368,0-.741-.02a14.135,14.135,0,0,1-10.033-4.984,15.618,15.618,0,0,1,1.126-21.372,14.115,14.115,0,0,1,10.5-3.9c8,.421,14.146,7.551,13.707,15.893-.426,8.083-6.885,14.384-14.56,14.385m.106-28.774a12.638,12.638,0,0,0-8.71,3.509,14.094,14.094,0,0,0-1.014,19.267,12.621,12.621,0,0,0,8.958,4.456c7.167.378,13.3-5.421,13.7-12.923s-5.107-13.914-12.265-14.291q-.334-.017-.667-.018m-13.792,12.9h0Z" transform="translate(-72.537 -32.54)" fill="#231f20"/>
        <path id="Path_156279" data-name="Path 156279" d="M302,155.28a.718.718,0,0,1-.139-.013,49.162,49.162,0,0,0-9.861-.495.762.762,0,1,1-.089-1.521,49.72,49.72,0,0,1,10.226.517A.762.762,0,0,1,302,155.28" transform="translate(-69.282 -36.447)" fill="#231f20"/>
        <path id="Path_156280" data-name="Path 156280" d="M284.067,214.279c-.108,0-.215,0-.323-.008-5.343-.246-11.584-7.57-12.115-9.38-.353-1.2.373-2.318,1.012-3.305a4.387,4.387,0,0,0,.821-1.683,50.291,50.291,0,0,1,.832-5.262c.477-2.554,1.071-5.732,1.451-8.936a112.54,112.54,0,0,0,.588-12.578c0-.5,0-.963.008-1.367a.763.763,0,0,1,.762-.754h.008a.761.761,0,0,1,.754.77l-.008,1.359a114.088,114.088,0,0,1-.6,12.751c-.384,3.254-.984,6.46-1.465,9.037a50.681,50.681,0,0,0-.808,5.062,5.273,5.273,0,0,1-1.064,2.433c-.485.746-.984,1.518-.829,2.048.348,1.187,6.118,8.073,10.722,8.285,3.25.156,5.93-2.625,7.884-4.651a13.775,13.775,0,0,1,2.016-1.867c.7-.453.684-.788.529-1.777a5.121,5.121,0,0,1,.04-2.368c.213-.712.486-1.8.833-3.177.814-3.233,1.928-7.659,3.442-12.045,2.053-5.953,5.078-12.412,6.471-13.824a.762.762,0,1,1,1.084,1.071c-.968.979-3.83,6.629-6.115,13.25-1.492,4.324-2.6,8.714-3.4,11.92-.351,1.4-.629,2.5-.85,3.241a3.726,3.726,0,0,0,0,1.7,2.805,2.805,0,0,1-1.2,3.292,13.28,13.28,0,0,0-1.75,1.646c-1.978,2.051-4.938,5.123-8.727,5.123" transform="translate(-64.606 -40.687)" fill="#231f20"/>
        <path id="Path_156281" data-name="Path 156281" d="M342.612,126.428a.762.762,0,0,1-.745-.606c-.852-4.079-4.934-5.682-7.291-6.275-4.4-1.1-9.5-.394-11.131,1.553a.762.762,0,0,1-1.168-.98c2.035-2.424,7.6-3.326,12.67-2.051,4.6,1.155,7.666,3.868,8.412,7.44a.761.761,0,0,1-.59.9.783.783,0,0,1-.156.016" transform="translate(-76.636 -27.955)" fill="#231f20"/>
        <path id="Path_156282" data-name="Path 156282" d="M258.947,121.936a.762.762,0,0,1-.665-1.133c5.4-9.688,13.7-9.059,16.123-8.634,3.286.575,5.783,2.212,6.071,3.98a.762.762,0,0,1-1.505.245c-.131-.81-1.883-2.208-4.829-2.724-2.167-.38-9.62-.934-14.528,7.875a.764.764,0,0,1-.667.391" transform="translate(-61.43 -26.641)" fill="#231f20"/>
        <path id="Path_156283" data-name="Path 156283" d="M281.067,218.371a.762.762,0,0,1-.749-.627c-.592-3.291-1.331-3.482-1.337-3.483-.14-.019-.464.24-.79.793a.766.766,0,0,1,.358.717.748.748,0,0,1-.82.693,1.415,1.415,0,0,1-1.071-.638,1.193,1.193,0,0,1,.006-1.145c.647-1.336,1.591-2.063,2.523-1.93,1.245.171,2.081,1.672,2.63,4.723a.761.761,0,0,1-.615.885.747.747,0,0,1-.136.012" transform="translate(-65.791 -50.616)" fill="#231f20"/>
        <path id="Path_156284" data-name="Path 156284" d="M290.188,218.884a.762.762,0,0,1-.681-1.1c1.356-2.7,2.636-4.029,3.918-4.061a1.883,1.883,0,0,1,1.674,1.017,2.24,2.24,0,0,1,.218,1.814,1.085,1.085,0,0,1-.367.647,1.631,1.631,0,0,1-1.263.285.762.762,0,0,1,.217-1.508c.008-.015.016-.03.025-.044.009-.1-.154-.592-.386-.675-.251-.1-1.218.307-2.673,3.209a.763.763,0,0,1-.682.42" transform="translate(-68.863 -50.85)" fill="#231f20"/>
        <path id="Path_156285" data-name="Path 156285" d="M301.8,158.418a.722.722,0,0,1-.139-.013,46.364,46.364,0,0,0-10.466-.543.762.762,0,1,1-.12-1.52,47.19,47.19,0,0,1,10.862.565.762.762,0,0,1-.137,1.511" transform="translate(-69.089 -37.176)" fill="#231f20"/>
        <path id="Path_156286" data-name="Path 156286" d="M342.278,152.419a.762.762,0,0,1-.409-1.405l7.845-4.988.6-3.258a.763.763,0,0,1,1.154-.508l3.14,1.965,11.63-7.461a.762.762,0,1,1,.823,1.283l-12.036,7.722a.761.761,0,0,1-.816,0l-2.6-1.626-.458,2.482a.76.76,0,0,1-.341.5l-8.125,5.166a.753.753,0,0,1-.408.119" transform="translate(-81.256 -32.511)" fill="#231f20"/>
        <path id="Path_156287" data-name="Path 156287" d="M252.007,148.926a.759.759,0,0,1-.428-.132l-4.22-2.866a.757.757,0,0,1-.329-.548l-.245-2.26-1.382.618a.759.759,0,0,1-.8-.114l-2.974-2.513a.762.762,0,0,1,.984-1.164l2.608,2.2,1.9-.85a.762.762,0,0,1,1.068.613l.319,2.951,3.928,2.668a.762.762,0,0,1-.428,1.392" transform="translate(-57.426 -33.255)" fill="#231f20"/>
        <path id="Path_156288" data-name="Path 156288" d="M370.461,111.418a.763.763,0,0,1-.627-1.194c12.28-17.846,21.689-14.415,22.083-14.26a.762.762,0,0,1-.552,1.42c-.114-.041-8.774-3.01-20.275,13.7a.761.761,0,0,1-.629.33" transform="translate(-87.962 -22.746)" fill="#231f20"/>
        <path id="Path_156289" data-name="Path 156289" d="M373.913,110.384a.762.762,0,0,1-.486-1.35c6.405-5.292,15.193-1.567,15.563-1.405a.762.762,0,0,1-.607,1.4c-.082-.035-8.31-3.507-13.986,1.183a.76.76,0,0,1-.485.175" transform="translate(-88.783 -25.269)" fill="#231f20"/>
        <path id="Path_156290" data-name="Path 156290" d="M248.866,90.595a.763.763,0,0,1-.642-.351c-4.7-7.331-13.31-12.549-14.446-13.082a.762.762,0,1,1,.648-1.379c1.188.558,10.184,6.007,15.081,13.639a.762.762,0,0,1-.641,1.174" transform="translate(-55.518 -18.013)" fill="#231f20"/>
        <path id="Path_156291" data-name="Path 156291" d="M229.208,92.237a.762.762,0,0,1-.456-1.372c.338-.251,8.368-6.132,16.321-2.453a.762.762,0,0,1-.639,1.384c-7.119-3.294-14.7,2.235-14.771,2.292a.758.758,0,0,1-.454.15" transform="translate(-54.354 -20.748)" fill="#231f20"/>
        <path id="Path_156292" data-name="Path 156292" d="M259.316,150.756a.762.762,0,0,1-.556-1.284l10.664-11.34a.762.762,0,1,1,1.11,1.044l-10.663,11.34a.76.76,0,0,1-.556.24" transform="translate(-61.517 -32.808)" fill="#85899d"/>
        <path id="Path_156293" data-name="Path 156293" d="M263.914,157.926a.763.763,0,0,1-.549-1.292l14.962-15.5a.762.762,0,0,1,1.1,1.059l-14.962,15.5a.762.762,0,0,1-.549.232" transform="translate(-62.611 -33.526)" fill="#85899d"/>
        <path id="Path_156294" data-name="Path 156294" d="M272.046,162.44a.762.762,0,0,1-.579-1.257l10.987-12.853a.762.762,0,0,1,1.158.991l-10.987,12.853a.761.761,0,0,1-.579.267" transform="translate(-64.546 -35.228)" fill="#85899d"/>
        <path id="Path_156295" data-name="Path 156295" d="M309.925,153.99a.762.762,0,0,1-.506-1.332l9.684-8.6a.762.762,0,0,1,1.012,1.14l-9.684,8.6a.76.76,0,0,1-.506.192" transform="translate(-73.559 -34.229)" fill="#85899d"/>
        <path id="Path_156296" data-name="Path 156296" d="M312.556,161.379a.762.762,0,0,1-.508-1.331l17.279-15.424a.762.762,0,0,1,1.015,1.137l-17.279,15.424a.76.76,0,0,1-.508.194" transform="translate(-74.185 -34.364)" fill="#85899d"/>
        <path id="Path_156297" data-name="Path 156297" d="M322.822,167.219a.762.762,0,0,1-.533-1.307l10.5-10.264a.762.762,0,0,1,1.065,1.091L323.355,167a.761.761,0,0,1-.533.217" transform="translate(-76.627 -36.982)" fill="#85899d"/>
        <path id="Path_156298" data-name="Path 156298" d="M285.715,230.17a.762.762,0,0,1-.762-.762v-2.06a.762.762,0,1,1,1.524,0v2.06a.762.762,0,0,1-.762.762" transform="translate(-67.798 -53.911)" fill="#231f20"/>
        <path id="Path_156299" data-name="Path 156299" d="M203.058,233.583c5.811-3.829,8.951-6.468,14.9-.889s-.069,15.344-.069,15.344l-1.492,6.974,10.511,9.323s-8.55,8.2-11.949,10.43-28.078,20.946-43.848,21.4-12.748-16.4-12.748-16.4,1.907-10.056,22.977-25.98S197.247,237.411,203.058,233.583Z" transform="translate(-37.623 -54.603)" fill="#cbc4de"/>
        <path id="Path_156300" data-name="Path 156300" d="M231.567,248.372s-1.222,14.71,10.394,13.832c0,0,7.292-3.394,8.309-1.6s-4.569,5.145-2.847,7.332c0,0,5.023,3.684,11.37-7.054l.955-9.444s5.287-9.249-5.93-7.945c0,0,17.407-22.781.5-28.058,0,0-.5,16.714-11.533,27.2,0,0-12.611-16.944-18.263-2,1.728,1.626,2.91,1.149,7.086,2.574l1.447,2.666Z" transform="translate(-53.421 -51.258)" fill="#829cc9"/>
        <path id="Path_156301" data-name="Path 156301" d="M170.117,297.335a15.081,15.081,0,0,1-3.887-.485c-3.937-1.031-6.788-3.786-8.717-8.422-5.253-12.621,12.176-26.721,24.9-37.017a108.907,108.907,0,0,0,8.657-7.434c.838-.869,1.724-1.829,2.65-2.833,6.017-6.522,13.5-14.642,20.438-12.024,8.032,3.028,6.439,9.511,6.421,9.576a.762.762,0,1,1-1.474-.386c.052-.209,1.231-5.232-5.485-7.765-5.966-2.25-13.072,5.446-18.78,11.631-.934,1.012-1.828,1.981-2.673,2.857a109.353,109.353,0,0,1-8.8,7.561c-11.655,9.429-29.268,23.678-24.453,35.247,1.733,4.165,4.251,6.629,7.7,7.532,9.982,2.618,28.635-7.118,58.7-30.636a.762.762,0,1,1,.939,1.2c-33.46,26.171-48.315,31.394-56.141,31.394" transform="translate(-37.249 -54.395)" fill="#231f20"/>
        <path id="Path_156302" data-name="Path 156302" d="M254.325,281.084a3.214,3.214,0,0,1-2.964-1.342c-.354-.639-.653-2.005,1.322-3.985,2.8-2.9,2.634-3.663,2.626-3.694-.528-.471-4.28.424-7.85,1.907a.762.762,0,0,1-.584-1.408c3.089-1.283,8.458-3.166,9.7-1.338.755,1.108-.084,2.783-2.808,5.6-1.084,1.087-1.266,1.837-1.076,2.179.255.46,1.366.756,2.919.4.822-.189,8.045-2.153,8.636-12.886a.758.758,0,0,1,.011-.093c.231-1.289.056-2.155-.519-2.577-1.706-1.25-6.879.661-9.739,2.162a.763.763,0,0,1-.709-1.35c.844-.442,8.321-4.261,11.348-2.041,1.075.788,1.454,2.142,1.127,4.028-.51,8.965-5.6,13.275-9.814,14.242a7.333,7.333,0,0,1-1.629.2" transform="translate(-58.627 -62.321)" fill="#231f20"/>
        <path id="Path_156303" data-name="Path 156303" d="M266.5,260.759a.762.762,0,0,1-.692-1.079c1.411-3.081,1.661-5.189.727-6.1-1.884-1.824-8.685.511-12.53,2.416a.762.762,0,0,1-.677-1.366c1.117-.553,11-5.31,14.268-2.144,1.482,1.438,1.35,4-.4,7.825a.762.762,0,0,1-.693.445" transform="translate(-60.173 -59.818)" fill="#231f20"/>
        <path id="Path_156304" data-name="Path 156304" d="M259.268,243.964a.762.762,0,0,1-.613-1.213c.128-.174,12.683-17.44,5.693-24.051-3.064-2.9-3.9-3.026-4.12-2.945-.467.171-.721,2.4-.924,4.2A62.728,62.728,0,0,1,258.2,227c-2.126,9.379-7.174,13.316-9.075,14.8-.174.135-.322.251-.444.352a.762.762,0,1,1-.972-1.174c.131-.108.292-.234.478-.38,1.952-1.521,6.521-5.085,8.526-13.934a61.3,61.3,0,0,0,1.08-6.878c.351-3.1.564-4.966,1.916-5.459,1.19-.434,2.679.421,5.69,3.27,7.961,7.532-4.96,25.308-5.513,26.061a.763.763,0,0,1-.615.31" transform="translate(-58.871 -50.968)" fill="#231f20"/>
        <path id="Path_156305" data-name="Path 156305" d="M181.237,275.285a.815.815,0,0,1-.536-.189.762.762,0,0,1,.531-1.344c2.452-.607,36.185-16.7,38.316-19.614A12.143,12.143,0,0,1,221,252.544c.291-.28.832-.8.808-.943-.157-.913-5.921-3.529-8.091-4.515a.761.761,0,0,1-.441-.6c-.233-1.971,1.325-4.9,4.25-6.195,2.566-1.135,7.957-1.789,15.232,6.59a.762.762,0,1,1-1.15,1c-6.634-7.638-11.284-7.161-13.466-6.2a5.524,5.524,0,0,0-3.361,4.216c6.454,2.944,8.3,4.134,8.528,5.447.161.939-.526,1.6-1.253,2.3a10.594,10.594,0,0,0-1.279,1.4c-2.456,3.355-37.554,20.015-39.417,20.238a1.037,1.037,0,0,1-.125.008m.444-1.356h0m0,0,0,0,0,0m0,0h0" transform="translate(-42.929 -57.014)" fill="#231f20"/>
      </g>
    </g>
    <g id="Group_20308" data-name="Group 20308" transform="translate(110 68.327)">
      <path id="Path_156212-2" data-name="Path 156212" d="M427.644,144.681,411.17,158.6l17.8-3.188s4.251,26.831,45.431,20.455,44.1-48.883,44.1-48.883,17.267-62.968-40.652-49.153-50.216,66.849-50.216,66.849Z" transform="translate(-115.55 -21.022)" fill="#c3cde1" stroke="#231f20" stroke-linecap="round" stroke-linejoin="round" stroke-width="1.5"/>
      <path id="Path_156213-2" data-name="Path 156213" d="M498.57,153.335c-.305-4.192-4.785-8.261,0-11.184,10.891-3.722,30.289-8.343,29.749-23.485s-13.286-18.253-26.984-14.86c-38.3,11.507-14.39,30.025-14.39,30.025s5.313,2.448,5.313-.628c0,0-21.529-15.94,11.2-24.365,0,0,18.518-3.857,18.987,9.511s-20.39,16.451-29.9,19.733c-4.174,2.583.288,13.386,1.75,15.247s4.585,4.192,4.286,0Z" transform="translate(-143.792 -32.053)" fill="#f2eb8d" stroke="#231f20" stroke-linecap="round" stroke-linejoin="round" stroke-width="1.5"/>
      <path id="Path_156214-2" data-name="Path 156214" d="M508.313,199.372c-4.486,1.5-5.742,10.691,1.256,8.7S512.8,197.875,508.313,199.372Z" transform="translate(-154.141 -71.95)" fill="#f2eb8d" stroke="#231f20" stroke-linecap="round" stroke-linejoin="round" stroke-width="1.5"/>
    </g>
  </g>
</svg>
