<svg xmlns="http://www.w3.org/2000/svg" xmlns:xlink="http://www.w3.org/1999/xlink" width="540" height="540" viewBox="0 0 540 540">
  <defs>
    <filter id="Ellipse_2188" x="353.218" y="81.18" width="188.612" height="188.612" filterUnits="userSpaceOnUse">
      <feOffset input="SourceAlpha"/>
      <feGaussianBlur stdDeviation="15" result="blur"/>
      <feFlood flood-color="#ff0" flood-opacity="0.655"/>
      <feComposite operator="in" in2="blur"/>
    </filter>
    <filter id="Path_154012">
      <feOffset dy="3" input="SourceAlpha"/>
      <feGaussianBlur stdDeviation="3" result="blur-2"/>
      <feFlood flood-color="#4a4700" flood-opacity="0.161" result="color"/>
      <feComposite operator="out" in="SourceGraphic" in2="blur-2"/>
      <feComposite operator="in" in="color"/>
      <feComposite operator="in" in2="SourceGraphic"/>
    </filter>
    <filter id="Path_154015" x="451.929" y="93.517" width="74.501" height="74.174" filterUnits="userSpaceOnUse">
      <feOffset input="SourceAlpha"/>
      <feGaussianBlur stdDeviation="10" result="blur-3"/>
      <feFlood flood-color="#ffffde"/>
      <feComposite operator="in" in2="blur-3"/>
      <feComposite in="SourceGraphic"/>
    </filter>
    <filter id="Path_154016" x="432.329" y="93.517" width="69.043" height="69.237" filterUnits="userSpaceOnUse">
      <feOffset input="SourceAlpha"/>
      <feGaussianBlur stdDeviation="10" result="blur-4"/>
      <feFlood flood-color="#ffffde"/>
      <feComposite operator="in" in2="blur-4"/>
      <feComposite in="SourceGraphic"/>
    </filter>
    <filter id="Path_154017" x="458.199" y="116.171" width="71.641" height="71.534" filterUnits="userSpaceOnUse">
      <feOffset input="SourceAlpha"/>
      <feGaussianBlur stdDeviation="10" result="blur-5"/>
      <feFlood flood-color="#ffffde"/>
      <feComposite operator="in" in2="blur-5"/>
      <feComposite in="SourceGraphic"/>
    </filter>
    <filter id="Path_154018" x="446.018" y="82.585" width="67.97" height="67.865" filterUnits="userSpaceOnUse">
      <feOffset input="SourceAlpha"/>
      <feGaussianBlur stdDeviation="10" result="blur-6"/>
      <feFlood flood-color="#ffffde"/>
      <feComposite operator="in" in2="blur-6"/>
      <feComposite in="SourceGraphic"/>
    </filter>
    <clipPath id="clip-Activity_4_1">
      <rect width="540" height="540"/>
    </clipPath>
  </defs>
  <g id="Activity_4_1" data-name="Activity 4 – 1" clip-path="url(#clip-Activity_4_1)">
    <rect width="540" height="540" fill="#d6eeef"/>
    <path id="Path_154215" data-name="Path 154215" d="M1514.432,423.7c61.465-32.217,87.506-30.965,152.377-15.482s134.265,13.7,184.339,3.568,48.008-2.53,86.84,0,32.225-3.1,70.39-5.914,4.4-.468,48.441-1.876,80-38,165.138-27.68,182.019,119.635,182.019,119.635V665.659l-966.608-4v-165.7s40.367-53.014,77.064-72.25" transform="translate(-1516.895 -104.487)" fill="rgba(173,229,227,0.65)"/>
    <path id="Path_153569" data-name="Path 153569" d="M1403.416,196.307q-9.295-.6-18.532-1.525-4.211-.421-8.4-.906h-.033q-8.226-.422-16.445-.955-1.2-.079-2.4-.159c-33.3-2.237-67.436-5.462-99.621-10.985-13.856-2.375-27.9-5.852-37.571-11.686a32.967,32.967,0,0,1-8.972-7.524,12.136,12.136,0,0,1-2.993-8.192,9.169,9.169,0,0,1,.526-2.5c1.182-3.295,2.318-5.282,4.054-6.7s4.176-2.31,8.009-3.2c7.669-1.773,20.77-3.525,44.526-10.028,24.008-6.577,61.637-5.921,97.319-3.6l.143.008c27.278,1.78,53.42,4.51,71.547,5.69,4.755.31,8.958.513,12.49.562q4.932.07,9.6.379c29.509,1.92,69.584-5.326,94.091,1.816,10.786,3.132,21.934,7.391,27.722,13.039,2.534,2.467,3.6,4.975,3.439,7.35a8.227,8.227,0,0,1-1.771,4.423,16.839,16.839,0,0,1-4.81,4.112l.278.536-.278-.536c-7.914,4.777-20.064,7.151-31.658,9.085q-22.877,3.805-46.085,5.464c-33.528.926-59.139,16.145-94.189,16.029" transform="translate(-1121.693 308.115)" fill="rgba(102,199,197,0.3)"/>
    <g id="Group_18741" data-name="Group 18741" transform="translate(66 42.146)">
      <path id="Path_153924" data-name="Path 153924" d="M1418,168.081c-7.588-17.726-55.078-4.493-55.078-4.493s13.128-20.67,19.431-31.109" transform="translate(-1219.322 264.789)" fill="none" stroke="#231f20" stroke-linecap="round" stroke-linejoin="round" stroke-width="2"/>
      <path id="Path_153925" data-name="Path 153925" d="M1398.43-100.131c-6.386-14.1,10.46-27.023,23.865-25.867,14.824.981,16.475,15.505,16.475,15.505" transform="translate(-1226.309 317.733)" fill="none" stroke="#231f20" stroke-linecap="round" stroke-linejoin="round" stroke-width="2"/>
      <path id="Path_153926" data-name="Path 153926" d="M1505.265,146.582c-8.233-17.435-55.206-2.472-55.206-2.472s12.363-21.137,18.278-31.8" transform="translate(-1237.166 268.919)" fill="none" stroke="#231f20" stroke-linecap="round" stroke-linejoin="round" stroke-width="2"/>
      <ellipse id="Ellipse_2158" data-name="Ellipse 2158" cx="15.381" cy="15.381" rx="15.381" ry="15.381" transform="translate(213.051 341.705)" fill="#829cc8"/>
      <ellipse id="Ellipse_2159" data-name="Ellipse 2159" cx="4.954" cy="4.954" rx="4.954" ry="4.954" transform="translate(199.106 409.895)" fill="#829cc8"/>
      <path id="Path_153927" data-name="Path 153927" d="M1478.26,72.693c0-.06,0-.12,0-.181a15.365,15.365,0,0,0-30.378-4.409,9.185,9.185,0,0,0-.279,2.139c0,.017,0,.033,0,.049,0,.041,0,.081,0,.122-.043,16.381-3.123,30.192-5.81,43.566-1.439,7.158-6.332,14.833-7.921,17.19a4.978,4.978,0,0,0-.507.734h0a4.949,4.949,0,0,0,8.411,5.2c3.591-3.1,32.42-47.909,36.108-62.29v0A11.977,11.977,0,0,0,1478.26,72.693Z" transform="translate(-1233.616 280.519)" fill="#829cc8" stroke="#231f20" stroke-linecap="round" stroke-linejoin="round" stroke-width="2"/>
      <path id="Path_153928" data-name="Path 153928" d="M1431.955,149.6s-11.455,7.912-10.56,9.715,14.785-2.22,22.948-1.9,17.591-.419,21.91-.063,13.14-12.033-.39-11.3c-10.126.546-24.7,5.229-24.7,5.229" transform="translate(-1231.287 262.018)" fill="#829cc8" stroke="#231f20" stroke-linecap="round" stroke-linejoin="round" stroke-width="2"/>
      <path id="Path_153929" data-name="Path 153929" d="M1507.825,151.577c-6.422-10.713-37.743-5.128-37.743-5.128l-3,10.59c30.456.972,32.189,2.168,37.914,4.389,1.921.745,2.669-.945,1.083-3.119,3.889.9,8.316,2.074,10.05,3.12C1518.275,162.725,1517.755,155.967,1507.825,151.577Z" transform="translate(-1240.652 262.227)" fill="#829cc8"/>
      <path id="Path_153930" data-name="Path 153930" d="M1467.08,158.748c30.456.972,32.189,2.168,37.914,4.389,4.836,1.876,2.3-11.671-26.471-9.576" transform="translate(-1240.652 260.517)" fill="none" stroke="#231f20" stroke-linecap="round" stroke-linejoin="round" stroke-width="2"/>
      <path id="Path_153931" data-name="Path 153931" d="M1470.854,146.43s31.272-5.784,37.743,5.128" transform="translate(-1241.424 262.246)" fill="none" stroke="#231f20" stroke-linecap="round" stroke-linejoin="round" stroke-width="2"/>
      <path id="Path_153932" data-name="Path 153932" d="M1509.552,159.093s6.683,1.088,10.05,3.12.185-15.734-35.552-13.132" transform="translate(-1244.127 261.443)" fill="none" stroke="#231f20" stroke-linecap="round" stroke-linejoin="round" stroke-width="2"/>
      <path id="Path_153933" data-name="Path 153933" d="M1432.64,24.1c-.333.193-2.02-.708-2.67-.333-.863.5-1.345,4.662-2.119,5.253-.751.573-.339-3.089-2.187-2.235-.876.406-1.265,5.47-1.857,6.223-.259-.9-1.514-3.219-2.131-2.073-.915,1.7-2.3,5.627-3.695,13.888-.644,3.8-1.066,8.942,4.945,21.7a45.223,45.223,0,0,0,16.732,19.143l.013.007c7.385,6.018,31.052,19.886,44.9,6.442,10.236-9.937,1.929-27.222-4.8-37.227-7.345-10.927-13.316-18.1-21.113-24.386" transform="translate(-1230.526 287.069)" fill="#cbc4de" stroke="#231f20" stroke-linecap="round" stroke-linejoin="round" stroke-width="2"/>
      <ellipse id="Ellipse_2160" data-name="Ellipse 2160" cx="10.07" cy="10.07" rx="10.07" ry="10.07" transform="translate(232.832 206.252)" fill="#cbc4de"/>
      <path id="Path_153934" data-name="Path 153934" d="M1481-94.762l57.315,23.991a9.178,9.178,0,0,0,12.079-4.75,9.178,9.178,0,0,0-4.75-12.08l-56.6-25.625a10.069,10.069,0,0,0-13.252,5.21A10.07,10.07,0,0,0,1481-94.762Z" transform="translate(-1242.262 315.274)" fill="#cbc4de" stroke="#231f20" stroke-linecap="round" stroke-linejoin="round" stroke-width="2"/>
      <path id="Path_153935" data-name="Path 153935" d="M1552.982-87.188l56.038-26.848a8.291,8.291,0,0,1,11.108,3.734,8.285,8.285,0,0,1-3.733,11.108l-55.242,28.45" transform="translate(-1258.242 315.445)" fill="#cbc4de" stroke="#231f20" stroke-linecap="round" stroke-linejoin="round" stroke-width="2"/>
      <path id="Path_153936" data-name="Path 153936" d="M1334.117,25.906s-33.981-17.6-31.272-47.773,8.308-51.691-5.358-76.46S1243-126.872,1226.009-118.9s-47.975,32.767-43.16,64.981,32.475,67.562,57.486,45.9-.685-37.012-6.8-44.993-15.691-18.262-5.054-31.932,29.3-10.379,38.644-3.242c20.1,15.357,11.522,25.913,9.362,44.533-7.9,68.119,52.06,70.124,52.06,70.124Z" transform="translate(-1182.347 317.032)" fill="#829cc8" stroke="#231f20" stroke-linecap="round" stroke-linejoin="round" stroke-width="2"/>
      <path id="Path_153937" data-name="Path 153937" d="M1461.6-132.1c-26.457-12.251-71.457-15.227-71.457-15.227l32.1,29.74,39.738-5.509S1464.043-130.971,1461.6-132.1Z" transform="translate(-1224.897 322.086)" fill="#fff"/>
      <path id="Path_153938" data-name="Path 153938" d="M1413.663-134.486s33.444.03,46.984,4.973,4.827,8.95,4.827,8.95l-41.006,6.014Z" transform="translate(-1229.714 319.456)" fill="#f3f4f4"/>
      <path id="Path_153939" data-name="Path 153939" d="M1461.6-132.1c-26.457-12.251-71.457-15.227-71.457-15.227l32.1,29.74,39.738-5.509S1464.043-130.971,1461.6-132.1Z" transform="translate(-1224.897 322.086)" fill="none" stroke="#231f20" stroke-linecap="round" stroke-linejoin="round" stroke-width="2"/>
      <path id="Path_153940" data-name="Path 153940" d="M1338.025-39.9c14.411-15.762,18.6-23.517,24.729-33.455-2.658-2.157.989-3.109,1.692-2.746,3.319-9.99,7.387-37.147,2.55-48.827-2.076-.188-5.52-.7-6.755-2.085-1.815-2.028,4.321-1.05,7.319-6.468v0c.528-4.475,3-11.716,4.618-12.464,17.282-8,49.487,21.194,49.487,21.194l-39.093,104.88S1329.152-30.191,1338.025-39.9Z" transform="translate(-1214.021 322.086)" fill="#fff"/>
      <path id="Path_153941" data-name="Path 153941" d="M1338.025-39.9a179.378,179.378,0,0,0,16.61-20.559c43.449-3.315,54.81-80.03,13.746-77.146,1-3.841,2.625-7.8,3.8-8.342,17.282-8,49.487,21.194,49.487,21.194l-39.093,104.88S1329.152-30.191,1338.025-39.9Z" transform="translate(-1214.021 322.086)" fill="#f3f4f4"/>
      <path id="Path_153942" data-name="Path 153942" d="M1338.025-39.9c14.411-15.762,18.6-23.517,24.729-33.455-2.658-2.157.989-3.109,1.692-2.746,3.319-9.99,7.387-37.147,2.55-48.827-2.076-.188-5.52-.7-6.755-2.085-1.815-2.028,4.321-1.05,7.319-6.468v0c.528-4.475,3-11.716,4.618-12.464,17.282-8,49.487,21.194,49.487,21.194l-39.093,104.88S1329.152-30.191,1338.025-39.9Z" transform="translate(-1214.021 322.086)" fill="none" stroke="#231f20" stroke-linecap="round" stroke-linejoin="round" stroke-width="2"/>
      <path id="Path_153943" data-name="Path 153943" d="M1418.487-104.856s-16.014-44.357-39.939-34.985" transform="translate(-1222.523 320.818)" fill="none" stroke="#231f20" stroke-linecap="round" stroke-linejoin="round" stroke-width="2"/>
      <path id="Path_153944" data-name="Path 153944" d="M1395.521-110.942s-.843,1.23.426,3.927" transform="translate(-1225.943 314.634)" fill="none" stroke="#231f20" stroke-linecap="round" stroke-linejoin="round" stroke-width="2"/>
      <ellipse id="Ellipse_2161" data-name="Ellipse 2161" cx="52.384" cy="52.384" rx="52.384" ry="52.384" transform="translate(134.32 258.523)" fill="#cbc4de" stroke="#231f20" stroke-linecap="round" stroke-linejoin="round" stroke-width="2"/>
      <path id="Path_153945" data-name="Path 153945" d="M1340.6,40.559c1.752,8.287,24.543,28.81,60.7,29.059s-38.722-89.131-46.208-77.078S1336.938,23.235,1340.6,40.559Z" transform="translate(-1214.6 293.673)" fill="#cbc4de" stroke="#231f20" stroke-linecap="round" stroke-linejoin="round" stroke-width="2"/>
      <ellipse id="Ellipse_2162" data-name="Ellipse 2162" cx="51.926" cy="51.926" rx="51.926" ry="51.926" transform="translate(134.777 258.982)" fill="#cbc4de"/>
      <ellipse id="Ellipse_2163" data-name="Ellipse 2163" cx="15.94" cy="15.94" rx="15.94" ry="15.94" transform="translate(148.885 324.194)" fill="#cbc4de"/>
      <path id="Path_153946" data-name="Path 153946" d="M1465.615-56.861a.168.168,0,0,0,0-.017c1.023-3.423,1.7-10.974,1.7-14.729-21.282-1.167-62.605-1.044-74.683-3.669,0,0-1.466,11.292-11.884,24.95-2.655,3.481-19.014,21.242-22.589,30.524-.005.014,0,.027-.008.04,10.952,4.5,64.085,29.844,99.281,23.339.534-19.409-2.119-19.9,0-29.513S1464.171-49.26,1465.615-56.861Z" transform="translate(-1218.347 307.331)" fill="#cbc4de" stroke="#231f20" stroke-linecap="round" stroke-linejoin="round" stroke-width="2"/>
      <ellipse id="Ellipse_2164" data-name="Ellipse 2164" cx="37.028" cy="37.028" rx="37.028" ry="37.028" transform="translate(174.157 202.624)" fill="#cbc4de"/>
      <ellipse id="Ellipse_2165" data-name="Ellipse 2165" cx="51.548" cy="51.548" rx="51.548" ry="51.548" transform="translate(135.155 259.36)" fill="#cbc4de"/>
      <ellipse id="Ellipse_2166" data-name="Ellipse 2166" cx="37.53" cy="37.53" rx="37.53" ry="37.53" transform="translate(163.485 271.517)" fill="#f9dde5"/>
      <path id="Path_153947" data-name="Path 153947" d="M1417.248,61.262c14.216.647,45.622-13.659,46.619-49.658,0,0-69.088-32.838-74.345-8.7C1381.6,39.259,1387.791,59.921,1417.248,61.262Z" transform="translate(-1224.125 293.136)" fill="#f9dde5"/>
      <path id="Path_153948" data-name="Path 153948" d="M1462.736,5.1A37.531,37.531,0,0,0,1388.4-2.261c0,.015-.009.029-.012.044-7.917,36.355-1.731,57.017,27.726,58.357,14.216.647,45.622-13.658,46.618-49.658l-.034-.016C1462.718,6.011,1462.736,5.558,1462.736,5.1Z" transform="translate(-1223.893 298.557)" fill="#f9dde5" stroke="#231f20" stroke-linecap="round" stroke-linejoin="round" stroke-width="2"/>
      <path id="Path_153949" data-name="Path 153949" d="M1500.552-103.1c0,12.095-6.034,21.882-13.273,21.882s-12.352-6.719-12.352-18.814c0-9.117,5.868-21.9,13.107-21.9S1500.552-115.2,1500.552-103.1Z" transform="translate(-1242.259 316.885)" fill="#fff"/>
      <path id="Path_153950" data-name="Path 153950" d="M1493.349-99.437c0,10.725-4.448,19.73-9,18.482-2.573-.706-9.423-5.036-9.423-15.761,0-8.085,4.219-19.42,9.423-19.42S1493.349-110.162,1493.349-99.437Z" transform="translate(-1242.259 315.698)" fill="#f8f9fb"/>
      <path id="Path_153951" data-name="Path 153951" d="M1500.552-103.1c0,12.095-6.034,21.882-13.273,21.882s-12.352-6.719-12.352-18.814c0-9.117,5.868-21.9,13.107-21.9S1500.552-115.2,1500.552-103.1Z" transform="translate(-1242.259 316.885)" fill="none" stroke="#231f20" stroke-linecap="round" stroke-linejoin="round" stroke-width="2"/>
      <ellipse id="Ellipse_2167" data-name="Ellipse 2167" cx="22.972" cy="22.972" rx="22.972" ry="22.972" transform="translate(200.895 215.842)" fill="#f9dde5"/>
      <path id="Path_153952" data-name="Path 153952" d="M1463.472.088c-.118-17.484-1.312-18.124-.11-28.243s4.857-23.63,7.861-36.763c2.3-10.037-38.045-25.823-44.223-14.222s-33.376,47.73-36.61,67.179S1463.472.088,1463.472.088Z" transform="translate(-1224.928 308.958)" fill="#f9dde5" stroke="#231f20" stroke-linecap="round" stroke-linejoin="round" stroke-width="2"/>
      <path id="Path_153953" data-name="Path 153953" d="M1463.5-2.46c-.119-17.484-1.312-18.124-.11-28.243s4.857-23.63,7.861-36.763c0-.017,0-.033.008-.05a23.442,23.442,0,0,0,.5-4.8,23.344,23.344,0,0,0-23.344-23.343,23.344,23.344,0,0,0-21.373,13.957l-.011.019c-6.178,11.6-33.376,47.73-36.61,67.179,0,.014,0,.029,0,.044" transform="translate(-1224.952 311.506)" fill="#f9dde5" stroke="#231f20" stroke-linecap="round" stroke-linejoin="round" stroke-width="2"/>
      <ellipse id="Ellipse_2168" data-name="Ellipse 2168" cx="36.763" cy="36.763" rx="36.763" ry="36.763" transform="translate(164.551 266.895)" fill="#f9dde5"/>
      <ellipse id="Ellipse_2169" data-name="Ellipse 2169" cx="14.161" cy="14.161" rx="14.161" ry="14.161" transform="translate(222.068 188.277)" fill="#f9dde5"/>
      <ellipse id="Ellipse_2170" data-name="Ellipse 2170" cx="22.103" cy="22.103" rx="22.103" ry="22.103" transform="translate(201.951 216.081)" fill="#f9dde5"/>
      <path id="Path_153954" data-name="Path 153954" d="M1481.855-75.61a199.153,199.153,0,0,0,3.112-21.118c.177.3.309.464.377.443.606-.192,1.986-.541,2.119-1.308.308-1.786-2.119-4.114-1.959-4.529s2.658.638,2.266-1.371c-.175-.9-2.139-4.433-1.694-4.654s1.694.476,1.341-.909a30.208,30.208,0,0,0-2.391-3.319,25.687,25.687,0,0,0-.847-4.2,13.756,13.756,0,0,0-13.756-13.757,13.749,13.749,0,0,0-12.918,9.063c-2.456,6.567-17.182,27.517-17.182,27.517l0,0" transform="translate(-1235.173 318.604)" fill="#f9dde5" stroke="#231f20" stroke-linecap="round" stroke-linejoin="round" stroke-width="2"/>
      <path id="Path_153955" data-name="Path 153955" d="M1439.2-107.64a22.123,22.123,0,0,1-22.177,21.882c-12.095,0-20.638-6.719-20.638-18.814,0-9.117,9.805-21.9,21.9-21.9S1439.2-119.735,1439.2-107.64Z" transform="translate(-1226.176 317.815)" fill="#fff"/>
      <path id="Path_153956" data-name="Path 153956" d="M1427.166-103.975c0,10.725-7.432,19.73-15.037,18.481-4.3-.705-15.743-5.035-15.743-15.761,0-8.085,7.049-19.42,15.744-19.42S1427.166-114.7,1427.166-103.975Z" transform="translate(-1226.176 316.627)" fill="#f8f9fb"/>
      <path id="Path_153957" data-name="Path 153957" d="M1439.2-107.64a22.123,22.123,0,0,1-22.177,21.882c-12.095,0-20.638-6.719-20.638-18.814,0-9.117,9.805-21.9,21.9-21.9S1439.2-119.735,1439.2-107.64Z" transform="translate(-1226.176 317.815)" fill="none" stroke="#231f20" stroke-linecap="round" stroke-linejoin="round" stroke-width="2"/>
      <ellipse id="Ellipse_2171" data-name="Ellipse 2171" cx="15.381" cy="15.381" rx="15.381" ry="15.381" transform="translate(149.689 352.744)" fill="#829cc8"/>
      <ellipse id="Ellipse_2172" data-name="Ellipse 2172" cx="4.954" cy="4.954" rx="4.954" ry="4.954" transform="translate(129.747 424.918)" fill="#829cc8"/>
      <path id="Path_153958" data-name="Path 153958" d="M1393.274,93.363c.006-.06,0-.12.008-.181a15.365,15.365,0,0,0-30.2-5.52,9.206,9.206,0,0,0-.358,2.128c0,.016,0,.033,0,.049,0,.041-.007.081-.009.122-.643,16.368-4.227,30.056-7.4,43.323-1.7,7.1-6.872,14.591-8.546,16.888a4.975,4.975,0,0,0-.533.715h0a4.949,4.949,0,0,0,8.215,5.508c3.7-2.964,34.154-46.689,38.368-60.923v0A12.091,12.091,0,0,0,1393.274,93.363Z" transform="translate(-1215.756 276.401)" fill="#829cc8" stroke="#231f20" stroke-linecap="round" stroke-linejoin="round" stroke-width="2"/>
      <path id="Path_153959" data-name="Path 153959" d="M1344.8,168.663s-11.737,7.486-10.908,9.321,14.856-1.677,23-1.059,17.6.227,21.9.741,13.572-11.544.026-11.311c-10.139.174-24.871,4.32-24.871,4.32" transform="translate(-1213.37 257.853)" fill="#829cc8" stroke="#231f20" stroke-linecap="round" stroke-linejoin="round" stroke-width="2"/>
      <path id="Path_153960" data-name="Path 153960" d="M1420.556,173.168c-6.025-10.942-37.529-6.508-37.529-6.508l-3.388,10.473c30.4,2.087,32.088,3.346,37.727,5.776,1.892.815,2.7-.846,1.2-3.077,3.854,1.039,8.235,2.377,9.928,3.486C1430.59,184.693,1430.319,177.919,1420.556,173.168Z" transform="translate(-1222.746 257.972)" fill="#829cc8"/>
      <path id="Path_153962" data-name="Path 153962" d="M1381.169,166.826s31.2-6.141,37.8,4.7" transform="translate(-1223.06 258.111)" fill="none" stroke="#231f20" stroke-linecap="round" stroke-linejoin="round" stroke-width="2"/>
      <path id="Path_153963" data-name="Path 153963" d="M1422.118,180.619s6.638,1.332,9.928,3.486.763-15.717-35.047-14.427" transform="translate(-1226.302 257.185)" fill="none" stroke="#231f20" stroke-linecap="round" stroke-linejoin="round" stroke-width="2"/>
      <ellipse id="Ellipse_2173" data-name="Ellipse 2173" cx="22.751" cy="22.751" rx="22.751" ry="22.751" transform="translate(122.647 326.344)" fill="#cbc4de"/>
      <path id="Path_153964" data-name="Path 153964" d="M1346.6,45.05c-.3.243-2.1-.388-2.69.082-.776.623-.612,4.814-1.285,5.517-.654.682-.811-3-2.505-1.871-.8.536-.409,5.6-.877,6.433-.394-.849-1.991-2.947-2.425-1.72-.643,1.817-1.4,5.913-1.514,14.291-.052,3.854.321,9,8.224,20.68a45.213,45.213,0,0,0,19.477,16.342l.013.006c8.222,4.81,33.741,14.873,45.357-.541,8.586-11.393-2.281-27.2-10.465-36.047-8.938-9.667-15.941-15.835-24.611-20.848" transform="translate(-1213.668 282.712)" fill="#cbc4de" stroke="#231f20" stroke-linecap="round" stroke-linejoin="round" stroke-width="2"/>
      <ellipse id="Ellipse_2174" data-name="Ellipse 2174" cx="9.178" cy="9.178" rx="9.178" ry="9.178" transform="translate(118.923 222.456)" fill="#cbc4de"/>
      <path id="Path_153965" data-name="Path 153965" d="M1399.324-105.832,1339-90.949a9.179,9.179,0,0,0-6.871,11.012,9.179,9.179,0,0,0,11.012,6.871l60.726-13.147a10.07,10.07,0,0,0,7.539-12.081A10.071,10.071,0,0,0,1399.324-105.832Z" transform="translate(-1212.969 313.642)" fill="#cbc4de" stroke="#231f20" stroke-linecap="round" stroke-linejoin="round" stroke-width="2"/>
      <path id="Path_153966" data-name="Path 153966" d="M1350.117-79.421l8.513,61.552a8.291,8.291,0,0,1-6.938,9.443,8.286,8.286,0,0,1-9.444-6.938l-10.282-61.281" transform="translate(-1212.984 308.18)" fill="#cbc4de" stroke="#231f20" stroke-linecap="round" stroke-linejoin="round" stroke-width="2"/>
      <ellipse id="Ellipse_2175" data-name="Ellipse 2175" cx="8.287" cy="8.287" rx="8.287" ry="8.287" transform="translate(128.603 282.744)" fill="#cbc4de"/>
      <ellipse id="Ellipse_2176" data-name="Ellipse 2176" cx="8.287" cy="8.287" rx="8.287" ry="8.287" transform="translate(128.603 282.744)" fill="#cbc4de"/>
      <path id="Path_153967" data-name="Path 153967" d="M1355.222-2.323a8.287,8.287,0,0,0-5.781-10.194c-.131-.037-.263-.058-.395-.087l-.568-.449c-1.4-.064-5.3-.4-9.16-.855h0c-1.248-2.843-8.483-4.6-11.866-3.6-1.693.5-5.485,3.2-3.9,6.125l-.195.076c-1.218-.031-2.808.8-3.9,4.582-.469,1.629.305,2.84,1.625,3.772l-.843-.141c-1.7,3.088-1.952,6.664,2.013,8.313,1.5.623,5.535,1.948,13.948.739a95.607,95.607,0,0,1,11.674-1.418l-.359-.786A8.289,8.289,0,0,0,1355.222-2.323Z" transform="translate(-1210.343 295.56)" fill="#829cc9"/>
      <path id="Path_153968" data-name="Path 153968" d="M1323.421-9.636c-1.218-.031-2.808.8-3.9,4.582s4.475,5.308,8.122,6.316" transform="translate(-1210.408 293.89)" fill="none" stroke="#231f20" stroke-linecap="round" stroke-linejoin="round" stroke-width="2"/>
      <path id="Path_153969" data-name="Path 153969" d="M1340.374-13.908c-1.248-2.843-8.483-4.6-11.866-3.6-2.476.733-9.45,6.165,2.487,10.135" transform="translate(-1211.399 295.56)" fill="none" stroke="#231f20" stroke-linecap="round" stroke-linejoin="round" stroke-width="2"/>
      <path id="Path_153970" data-name="Path 153970" d="M1336.525-3.643" transform="translate(-1213.918 292.662)" fill="none" stroke="#231f20" stroke-linecap="round" stroke-linejoin="round" stroke-width="2"/>
      <ellipse id="Ellipse_2177" data-name="Ellipse 2177" cx="8.287" cy="8.287" rx="8.287" ry="8.287" transform="translate(128.603 282.744)" fill="#829cc9"/>
      <path id="Path_153971" data-name="Path 153971" d="M1320.242.692c-1.7,3.088-1.952,6.664,2.013,8.313,1.5.623,5.535,1.948,13.948.739a95.607,95.607,0,0,1,11.674-1.418" transform="translate(-1210.343 291.775)" fill="none" stroke="#231f20" stroke-linecap="round" stroke-linejoin="round" stroke-width="2"/>
      <path id="Path_153972" data-name="Path 153972" d="M1351.387-12.466c-2.808-.127-15.579-1.331-18.113-2.46" transform="translate(-1213.252 294.973)" fill="none" stroke="#231f20" stroke-linecap="round" stroke-linejoin="round" stroke-width="2"/>
      <path id="Path_153973" data-name="Path 153973" d="M1336.525-3.643" transform="translate(-1213.918 292.662)" fill="#829cc9"/>
      <path id="Path_153974" data-name="Path 153974" d="M1641.64-133.073l-8.123,41.235s-.039,2.874,4.01,3.672a4.775,4.775,0,0,0,5.1-1.877l8.122-41.236" transform="translate(-1274.733 319.166)" fill="#f1a58a" stroke="#231f20" stroke-linecap="round" stroke-linejoin="round" stroke-width="2"/>
      <ellipse id="Ellipse_2178" data-name="Ellipse 2178" cx="8.287" cy="8.287" rx="8.287" ry="8.287" transform="translate(351.572 199.32)" fill="#829cc9"/>
      <path id="Path_153975" data-name="Path 153975" d="M1624.586-112.56a8.269,8.269,0,0,1,4.188-5.687l0-.674a28.251,28.251,0,0,0,2.579-3.735c1.541-3.115,3.863-7.629,7.184-7.465l-1.577,8.008s-.01,6.328,10.136,4.472l.748-3.8c2.255.849,5.463,1.5,4.725,5.607a5.354,5.354,0,0,1-.973,2.273c-.732.826,1.133,1.093.681,1.975s-1.88,4.409-2.479,5.054a3.092,3.092,0,0,1-.418.369.649.649,0,0,1,.227.71,11.417,11.417,0,0,1-9.956,7.174c-1.948.1-6.8.272-8.73-1.886-.964-1.079-2.636-4.195-4.044-4.14-.429.017-.414-.4-.188-.982A8.27,8.27,0,0,1,1624.586-112.56Z" transform="translate(-1272.872 318.563)" fill="#829cc9"/>
      <path id="Path_153976" data-name="Path 153976" d="M1639.7-120.006s-.229,6.241,9.916,4.385" transform="translate(-1275.999 316.49)" fill="none" stroke="#231f20" stroke-linecap="round" stroke-linejoin="round" stroke-width="2"/>
      <path id="Path_153977" data-name="Path 153977" d="M1636.345-109.824A12.719,12.719,0,0,0,1642-107.9c3.333.3,12.265-1.746,13-5.852s-2.981-5.365-5.236-6.214" transform="translate(-1275.312 316.482)" fill="none" stroke="#231f20" stroke-linecap="round" stroke-linejoin="round" stroke-width="2"/>
      <path id="Path_153978" data-name="Path 153978" d="M1634.773-101.483s3.1,2.752,5.089,2.551c3.508-.355,10.641-1.217,12.052-3.526s2.754-4.2,1.992-7.78" transform="translate(-1274.991 314.491)" fill="none" stroke="#231f20" stroke-linecap="round" stroke-linejoin="round" stroke-width="2"/>
      <path id="Path_153979" data-name="Path 153979" d="M1626.519-98.783c1.946.785,2.027,2.456,4.843,4.7,2.265,1.8,6.44,2.17,8.389,2.087s9.334-.2,10.488-8.453" transform="translate(-1273.3 312.486)" fill="none" stroke="#231f20" stroke-linecap="round" stroke-linejoin="round" stroke-width="2"/>
      <path id="Path_153980" data-name="Path 153980" d="M1628.828-118.523c.748-.1,1.9-1.023,3.438-4.141s3.64-7.674,6.961-7.509" transform="translate(-1273.773 318.573)" fill="none" stroke="#231f20" stroke-linecap="round" stroke-linejoin="round" stroke-width="2"/>
      <path id="Path_153981" data-name="Path 153981" d="M1482.255-253.128s6.711-8.053,3.8-27.582-6.631-28.992-26.187-42.5c-21.9-15.121-36.577-32.3-37.248-42.2-.746-11.02-13.523,34.739-10.071,61.87s21.135,47.855,40.27,55.3C1462.1-244.626,1479.587-247.688,1482.255-253.128Z" transform="translate(-1229.364 367.085)" fill="#fbdbe4" stroke="#231f20" stroke-miterlimit="10" stroke-width="2"/>
      <path id="Path_153982" data-name="Path 153982" d="M1464.3-260.863s-7.452,1.109-9.133-24.981c-1.676,12.035-4.165,18.777,5.185,32.119" transform="translate(-1237.884 350.45)" fill="#f8b8cc"/>
      <path id="Path_153983" data-name="Path 153983" d="M1454.985-286.279s-8.667,21.125,10.417,40.994" transform="translate(-1237.773 350.538)" fill="none" stroke="#231f20" stroke-miterlimit="10" stroke-width="2"/>
      <path id="Path_153984" data-name="Path 153984" d="M1465.73-259.33s1.7,8.077-4.441,12.282" transform="translate(-1239.466 345.02)" fill="none" stroke="#231f20" stroke-miterlimit="10" stroke-width="2"/>
      <path id="Path_153985" data-name="Path 153985" d="M1416.9-201.5s1.016-10.968-13.751-24.243-23.991-18.107-49.95-15.107c-29.065,3.357-52.931.1-59.692-7.191-7.527-8.115,9.474,36.6,29.453,55.459s48.749,22.813,70.558,15.356C1404.093-180.845,1417.89-195.388,1416.9-201.5Z" transform="translate(-1204.737 342.909)" fill="#fbdbe4" stroke="#231f20" stroke-miterlimit="10" stroke-width="2"/>
      <path id="Path_153986" data-name="Path 153986" d="M1404.744-196.808s1.765-7.324-24.073-11.311c12.136-.6,19.072-2.484,31.533,8.012" transform="translate(-1222.958 334.641)" fill="#f8b8cc"/>
      <path id="Path_153987" data-name="Path 153987" d="M1380.246-208.388s21.81-6.76,39.909,14.01" transform="translate(-1222.871 334.804)" fill="none" stroke="#231f20" stroke-miterlimit="10" stroke-width="2"/>
      <path id="Path_153988" data-name="Path 153988" d="M1406.079-195.249s7.895,2.41,12.627-3.334" transform="translate(-1228.161 332.581)" fill="none" stroke="#231f20" stroke-miterlimit="10" stroke-width="2"/>
      <ellipse id="Ellipse_2179" data-name="Ellipse 2179" cx="52.002" cy="52.002" rx="52.002" ry="52.002" transform="translate(196.754 95.668)" fill="#acb2da" stroke="#231f20" stroke-miterlimit="10" stroke-width="2"/>
      <ellipse id="Ellipse_2180" data-name="Ellipse 2180" cx="21.335" cy="21.335" rx="21.335" ry="21.335" transform="translate(227.421 126.335)" fill="#acb2da"/>
      <path id="Path_153989" data-name="Path 153989" d="M1573.285-129.6c-5.951,1.824-11.4,2.278-17.263,3.558a214.559,214.559,0,0,1-71.762,3.934l44.164-20.207,44.861,12.715" transform="translate(-1244.17 321.058)" fill="#acb2da"/>
      <line id="Line_3407" data-name="Line 3407" x2="44.861" y2="12.715" transform="translate(284.254 178.747)" fill="none" stroke="#231f20" stroke-linecap="round" stroke-linejoin="round" stroke-width="2"/>
      <path id="Path_153990" data-name="Path 153990" d="M1531.861-133.453c-.333.943-1.575,1.443-5.3,2.671,5.154,11.59,15.532,9.245,15.532,9.245l6.649.442,21.439-4.029-8.126-7.365-30.191-.965" transform="translate(-1252.831 319.244)" fill="#fbdbe4"/>
      <path id="Path_153991" data-name="Path 153991" d="M1573.285-126.322c-5.951,1.824-11.4,2.278-17.263,3.558a214.56,214.56,0,0,1-71.762,3.934" transform="translate(-1244.17 317.784)" fill="none" stroke="#231f20" stroke-linecap="round" stroke-linejoin="round" stroke-width="2"/>
      <path id="Path_153992" data-name="Path 153992" d="M1545.314-120.262s-15.75,1.686-18.756-9.832" transform="translate(-1252.831 318.556)" fill="none" stroke="#231f20" stroke-linecap="round" stroke-linejoin="round" stroke-width="2"/>
      <path id="Path_153993" data-name="Path 153993" d="M1523.191-126.881s-.039-4.756,6.728-4.414" transform="translate(-1252.142 318.806)" fill="none" stroke="#231f20" stroke-linecap="round" stroke-linejoin="round" stroke-width="2"/>
      <ellipse id="Ellipse_2181" data-name="Ellipse 2181" cx="10.955" cy="10.955" rx="10.955" ry="10.955" transform="translate(300.065 170.605)" fill="#fbdbe4"/>
      <path id="Path_153994" data-name="Path 153994" d="M1554.584-187.542c3.532,8.021,7.493,20.989,17.269,27.075s14.358,22.41-4.58,24.989c-2.479-4.767-28.12-3.122-34.2-9.1.773-2.757-1.582-3.848-.042-5.551,10.344-11.442,2.548-19.442,7.2-23.431,10.531-9.03,12.791-2.348,12.757-5.828C1552.888-189.967,1554.584-187.542,1554.584-187.542Z" transform="translate(-1254.048 330.369)" fill="#fbdbe4"/>
      <path id="Path_153995" data-name="Path 153995" d="M1560.27-187.48c3.533,8.021,7.493,20.989,17.269,27.075s14.358,22.41-4.58,24.989" transform="translate(-1259.734 330.307)" fill="none" stroke="#231f20" stroke-linecap="round" stroke-linejoin="round" stroke-width="2"/>
      <path id="Path_153996" data-name="Path 153996" d="M1574.5-128.316a80.547,80.547,0,0,0,17.263-3.558c9.825-3.092,14.223-17.765,7.462-17.629s-14.338-1.169-18.772-3.93" transform="translate(-1262.649 323.336)" fill="#fbdbe4" stroke="#231f20" stroke-linecap="round" stroke-linejoin="round" stroke-width="2"/>
      <path id="Path_153997" data-name="Path 153997" d="M1539.7-156.615c2.522,4.381,24.9,12.357,32.681,14.956,8.716,2.911,7.8-12.388,4.856-13.972s-23.143-14.825-23.143-14.825-6.608-4.95-11.38-1.15c-2.323,1.85-2.641,1.887-2.692,7.87C1539.973-158.219,1539.644-158.468,1539.7-156.615Z" transform="translate(-1255.521 327.351)" fill="#f8b8cc"/>
      <ellipse id="Ellipse_2182" data-name="Ellipse 2182" cx="7.401" cy="7.401" rx="7.401" ry="7.401" transform="translate(312.173 171.405)" fill="#f8b8cc"/>
      <path id="Path_153998" data-name="Path 153998" d="M1538.552-164.442c.051-5.983,2.377-7.141,4.7-8.991,4.772-3.8,8.475-2.9,11.055-1.517,6.375,3.411,19.749,17.1,22.7,18.684h0a7.4,7.4,0,0,1,5.26,7.03,7.4,7.4,0,0,1-7.345,7.458,7.376,7.376,0,0,1-2.726-.5c-.016,0-.03-.007-.046-.013-7.783-2.6-30.159-10.575-32.681-14.956C1539.411-159.1,1538.5-158.924,1538.552-164.442Z" transform="translate(-1255.287 327.986)" fill="#f8b8cc" stroke="#231f20" stroke-linecap="round" stroke-linejoin="round" stroke-width="2"/>
      <path id="Path_153999" data-name="Path 153999" d="M1585.659-151.145a50.043,50.043,0,0,0,6.738,1.6,48.194,48.194,0,0,0,8.118.511c2.989-.107,7.372,2.345,3.31,11s-11.866,5.617-11.866,5.617l-5.393-2.6-5.769-2.157" transform="translate(-1263.938 322.867)" fill="#f8b8cc" stroke="#231f20" stroke-linecap="round" stroke-linejoin="round" stroke-width="2"/>
      <path id="Path_154000" data-name="Path 154000" d="M1603.033-148.485s-.435-.919,2.32-.55,11.321,3.757,5.14,14.437-15.66,2.592-15.66,2.592" transform="translate(-1266.812 322.453)" fill="#f8b8cc" stroke="#231f20" stroke-linecap="round" stroke-linejoin="round" stroke-width="2"/>
      <path id="Path_154001" data-name="Path 154001" d="M1609.068-143.952c.429.2.621,1.669,1.326.623s-.824-3.233-2.979-1.676-1.8,2.293-1.279,3.113,3.63,3.819,4.266,3.362-2.672-3.034-2.821-3.935S1607.743-144.575,1609.068-143.952Z" transform="translate(-1269.045 321.72)" fill="#231f20"/>
      <path id="Path_154002" data-name="Path 154002" d="M1602.088-129.007c.432.2,1.676-.606,1.333.608s-3,1.462-3.2-1.189.584-2.856,1.548-2.988,5.26.3,5.322,1.08-4.042-.076-4.826.392S1600.756-129.616,1602.088-129.007Z" transform="translate(-1267.908 319.069)" fill="#231f20"/>
      <path id="Path_154003" data-name="Path 154003" d="M1547.77-177.865c-1.6-3.592-7.168-3.383-5.211,3.109" transform="translate(-1256.024 328.816)" fill="none" stroke="#231f20" stroke-linecap="round" stroke-linejoin="round" stroke-width="2"/>
      <ellipse id="Ellipse_2183" data-name="Ellipse 2183" cx="13.073" cy="15.427" rx="13.073" ry="15.427" transform="translate(284.103 127.993) rotate(-12.73)" fill="#49494b" stroke="#231f20" stroke-linecap="round" stroke-linejoin="round" stroke-width="2"/>
      <ellipse id="Ellipse_2184" data-name="Ellipse 2184" cx="10.317" cy="12.175" rx="10.317" ry="12.175" transform="translate(287.508 130.559) rotate(-12.73)" fill="#49494b"/>
      <ellipse id="Ellipse_2185" data-name="Ellipse 2185" cx="15.427" cy="15.427" rx="15.427" ry="15.427" transform="translate(256.951 146.11)" fill="#49494b" stroke="#231f20" stroke-linecap="round" stroke-linejoin="round" stroke-width="2"/>
      <ellipse id="Ellipse_2186" data-name="Ellipse 2186" cx="12.175" cy="12.175" rx="12.175" ry="12.175" transform="translate(260.204 149.363)" fill="#49494b"/>
      <path id="Path_154004" data-name="Path 154004" d="M1489.842-164.966l-8.626-2.473-5.649-8.567-1.628,5.755-44.156-12.658" transform="translate(-1233.015 329.371)" fill="none" stroke="#231f20" stroke-linecap="round" stroke-linejoin="round" stroke-width="2"/>
      <rect id="Rectangle_17180" data-name="Rectangle 17180" width="1.131" height="26.058" transform="translate(279.134 150.634) rotate(32.27)" fill="#bcbec0"/>
      <rect id="Rectangle_17181" data-name="Rectangle 17181" width="1.131" height="26.058" transform="translate(275.438 148.301) rotate(32.27)" fill="#bcbec0"/>
      <rect id="Rectangle_17182" data-name="Rectangle 17182" width="1.131" height="26.058" transform="translate(282.829 152.968) rotate(32.27)" fill="#bcbec0"/>
      <path id="Path_154005" data-name="Path 154005" d="M1553.229-183.377l-.8-.6,10.7-20.514.8.6Z" transform="translate(-1258.129 333.791)" fill="#bcbec0"/>
      <path id="Path_154006" data-name="Path 154006" d="M1549.331-186.313l-.8-.6,10.7-20.514.8.6Z" transform="translate(-1257.33 334.392)" fill="#bcbec0"/>
      <path id="Path_154007" data-name="Path 154007" d="M1557.127-180.441l-.8-.6,10.7-20.514.8.6Z" transform="translate(-1258.926 333.19)" fill="#bcbec0"/>
      <g transform="matrix(1, 0, 0, 1, -66, -42.15)" filter="url(#Ellipse_2188)">
        <circle id="Ellipse_2188-2" data-name="Ellipse 2188" cx="49.306" cy="49.306" r="49.306" transform="translate(398.22 126.18)" fill="#fff" opacity="0.327"/>
      </g>
      <g id="Group_18614" data-name="Group 18614" transform="translate(364.58 169.503)">
        <path id="Path_154008" data-name="Path 154008" d="M1649.917-123.74l5.594-28.4-9.111-1.795-5.594,28.4" transform="translate(-1640.805 153.935)" fill="#f1a58a" stroke="#231f20" stroke-linecap="round" stroke-linejoin="round" stroke-width="2"/>
        <path id="Path_154009" data-name="Path 154009" d="M1652.485-138.357s-2.813,1.148-7.426-1.462" transform="translate(-1641.676 151.045)" fill="#f1a58a" stroke="#231f20" stroke-linecap="round" stroke-linejoin="round" stroke-width="2"/>
      </g>
      <ellipse id="Ellipse_2187" data-name="Ellipse 2187" cx="36.017" cy="36.017" rx="36.017" ry="36.017" transform="translate(345.954 97.617)" fill="rgba(255,255,255,0.46)"/>
      <path id="Path_154010" data-name="Path 154010" d="M1682.264-229.357c6.347,5.607,8.406,13.648,5.248,17.224s-5.6-4.031-11.949-9.638-14.2-7.092-11.038-10.668S1675.916-234.964,1682.264-229.357Z" transform="translate(-1280.935 339.939)" fill="#fff" opacity="0.75"/>
      <path id="Path_154011" data-name="Path 154011" d="M1629.01-180.836c1.861,2.773,4.957,3.956,7.731,2.1s1.532-4.289-.328-7.062-3.636-4.843-6.41-2.982S1627.15-183.61,1629.01-180.836Z" transform="translate(-1273.552 330.72)" fill="#fff"/>
      <g data-type="innerShadowGroup">
        <path id="Path_154012-2" data-name="Path 154012" d="M1614.405-216.606a38.968,38.968,0,0,0,30.7,45.764,38.968,38.968,0,0,0,45.764-30.7,38.968,38.968,0,0,0-30.7-45.764A38.968,38.968,0,0,0,1614.405-216.606Zm2.9.57a36.017,36.017,0,0,1,42.3-28.378,36.016,36.016,0,0,1,28.378,42.3,36.017,36.017,0,0,1-42.3,28.378A36.017,36.017,0,0,1,1617.3-216.036Z" transform="translate(-1270.668 342.71)" fill="#8c97a4"/>
        <g transform="matrix(1, 0, 0, 1, -66, -42.15)" filter="url(#Path_154012)">
          <path id="Path_154012-3" data-name="Path 154012" d="M1614.405-216.606a38.968,38.968,0,0,0,30.7,45.764,38.968,38.968,0,0,0,45.764-30.7,38.968,38.968,0,0,0-30.7-45.764A38.968,38.968,0,0,0,1614.405-216.606Zm2.9.57a36.017,36.017,0,0,1,42.3-28.378,36.016,36.016,0,0,1,28.378,42.3,36.017,36.017,0,0,1-42.3,28.378A36.017,36.017,0,0,1,1617.3-216.036Z" transform="translate(-1204.67 384.86)" fill="#fff"/>
        </g>
      </g>
      <path id="Path_154013" data-name="Path 154013" d="M1614.405-216.605a38.968,38.968,0,0,0,30.7,45.764,38.968,38.968,0,0,0,45.764-30.7,39.07,39.07,0,0,0-15.3-39.045,38.52,38.52,0,0,0-15.406-6.719,39.13,39.13,0,0,0-15.833.15,38.6,38.6,0,0,0-10.9,4.14A38.825,38.825,0,0,0,1614.405-216.605Zm2.9.57a36.017,36.017,0,0,1,42.3-28.378,36.016,36.016,0,0,1,28.378,42.3,36.017,36.017,0,0,1-42.3,28.378A36.017,36.017,0,0,1,1617.3-216.035Z" transform="translate(-1270.668 342.709)" fill="none" stroke="#231f20" stroke-linecap="round" stroke-linejoin="round" stroke-width="2"/>
      <g transform="matrix(1, 0, 0, 1, -66, -42.15)" filter="url(#Path_154015)">
        <path id="Path_154015-2" data-name="Path 154015" d="M5.468,6.573A7.1,7.1,0,0,0,7.293,2.049,7.087,7.087,0,0,0,9.216,6.573c1.833,1.654,5.409,2.091,5.409,2.091s-3.576.552-5.409,2.442-1.924,5.117-1.924,5.117-.033-3.3-1.825-5.117S.125,8.954.125,8.954,3.676,8.3,5.468,6.573Z" transform="translate(481.8 121.47)" fill="#fff"/>
      </g>
      <g transform="matrix(1, 0, 0, 1, -66, -42.15)" filter="url(#Path_154016)">
        <path id="Path_154016-2" data-name="Path 154016" d="M3.293,2.788A4.375,4.375,0,0,0,4.418,0,4.368,4.368,0,0,0,5.6,2.788,7.264,7.264,0,0,0,8.938,4.077,6.9,6.9,0,0,0,5.6,5.583,5.352,5.352,0,0,0,4.418,8.737,5.207,5.207,0,0,0,3.293,5.583,6.225,6.225,0,0,0,0,4.256,7.667,7.667,0,0,0,3.293,2.788Z" transform="matrix(-0.03, 1, -1, -0.03, 471.37, 123.82)" fill="#fff"/>
      </g>
      <g transform="matrix(1, 0, 0, 1, -66, -42.15)" filter="url(#Path_154017)">
        <path id="Path_154017-2" data-name="Path 154017" d="M3.293,2.788A4.375,4.375,0,0,0,4.418,0,4.368,4.368,0,0,0,5.6,2.788,7.264,7.264,0,0,0,8.938,4.077,6.9,6.9,0,0,0,5.6,5.583,5.352,5.352,0,0,0,4.418,8.737,5.207,5.207,0,0,0,3.293,5.583,6.225,6.225,0,0,0,0,4.256,7.667,7.667,0,0,0,3.293,2.788Z" transform="matrix(0.92, -0.39, 0.39, 0.92, 488.2, 149.66)" fill="#fff"/>
      </g>
      <g transform="matrix(1, 0, 0, 1, -66, -42.15)" filter="url(#Path_154018)">
        <path id="Path_154018-2" data-name="Path 154018" d="M2.409,2.04A3.2,3.2,0,0,0,3.232,0,3.2,3.2,0,0,0,4.1,2.04a5.313,5.313,0,0,0,2.439.943A5.044,5.044,0,0,0,4.1,4.084a3.915,3.915,0,0,0-.867,2.307,3.809,3.809,0,0,0-.823-2.307A4.554,4.554,0,0,0,0,3.113,5.608,5.608,0,0,0,2.409,2.04Z" transform="matrix(0.97, 0.26, -0.26, 0.97, 477.67, 112.59)" fill="#fff"/>
      </g>
    </g>
    <path id="Path_153961" data-name="Path 153961" d="M1379.639,179.09c32.118,2.205,33.9,3.536,39.86,6.1,5.033,2.169,2.882-12.233-27.578-11.136" transform="translate(-1159.365 298.202)" fill="none" stroke="#231f20" stroke-linecap="round" stroke-linejoin="round" stroke-width="2"/>
  </g>
</svg>
