<svg xmlns="http://www.w3.org/2000/svg" xmlns:xlink="http://www.w3.org/1999/xlink" width="540" height="540" viewBox="0 0 540 540">
  <defs>
    <linearGradient id="linear-gradient" x1="2.718" y1="32.699" x2="3.63" y2="32.699" gradientUnits="objectBoundingBox">
      <stop offset="0" stop-color="#fff"/>
      <stop offset="1" stop-color="#040505"/>
    </linearGradient>
    <clipPath id="clip-Activity_3_1">
      <rect width="540" height="540"/>
    </clipPath>
  </defs>
  <g id="Activity_3_1" data-name="Activity 3 – 1" clip-path="url(#clip-Activity_3_1)">
    <rect width="540" height="540" fill="#d6eeef"/>
    <path id="Path_154215" data-name="Path 154215" d="M2326.911,423.7c-61.465-32.217-87.506-30.965-152.377-15.482s-134.265,13.7-184.339,3.568-48.007-2.53-86.839,0-32.225-3.1-70.39-5.914-4.4-.468-48.441-1.876-80-38-165.138-27.68-182.019,119.635-182.019,119.635V665.659l966.607-4v-165.7s-40.367-53.014-77.064-72.25" transform="translate(-1691.48 1.746) rotate(-3)" fill="rgba(173,229,227,0.65)"/>
    <g id="Group_18613" data-name="Group 18613" transform="translate(46.455 104.938)">
      <path id="Path_153742" data-name="Path 153742" d="M571.587,773.656q9.846-.981,19.617-2.228,4.453-.568,8.88-1.191h.016l.02,0q8.721-.774,17.422-1.642,1.268-.125,2.538-.255c35.266-3.58,71.389-8.032,105.342-14.318,14.618-2.7,29.384-6.344,39.425-11.742a34.258,34.258,0,0,0,9.222-6.784c2.122-2.369,3.151-4.757,2.848-7.041a6.368,6.368,0,0,0-.659-2.078c-1.39-2.71-2.676-4.323-4.576-5.424s-4.527-1.729-8.635-2.279c-8.215-1.1-22.2-1.905-47.686-6.16-25.758-4.3-65.686-1.835-103.486,1.939l-.152.014c-28.9,2.886-56.544,6.517-75.745,8.434-5.035.5-9.491.888-13.24,1.109q-5.237.311-10.184.809c-31.257,3.119-74.1-.929-99.841,6.327-11.327,3.183-22.987,7.332-28.91,12.376-2.59,2.2-3.619,4.366-3.357,6.354a6.189,6.189,0,0,0,2.06,3.63,17.4,17.4,0,0,0,5.272,3.211l-.273.465.273-.465c8.6,3.611,21.6,4.99,33.986,6.028,15.977,1.343,32.447,2.089,49.157,2.242,35.638-.932,63.45,10.557,100.665,8.672" transform="translate(-342.867 -410.026)" fill="rgba(87,189,185,0.3)"/>
      <g id="River" transform="translate(0 0)">
        <g id="River_C" data-name="River C">
          <path id="Path_153743" data-name="Path 153743" d="M586.131,445.357s-5.55,17.5-3.929,30.472c0,0-27.286,9.67-85.594-2.963l.183-2.308,20.514-.359v-13s48.718-3.266,57.47-11.834h11.355Z" transform="translate(-386.866 -309.729)" fill="#788695"/>
          <path id="Path_153744" data-name="Path 153744" d="M319.99,343.534l4.719,90.6,125.984-2.2V342.583Z" transform="translate(-319.99 -270.814)" fill="#619e6d" stroke="#1a1718" stroke-linecap="round" stroke-linejoin="round" stroke-width="2"/>
          <path id="Path_153745" data-name="Path 153745" d="M332.713,350.716l3.993,76.691,111.419-2.579.775-75.908Z" transform="translate(-324.807 -273.214)" fill="#fdf4ce"/>
          <path id="Path_153746" data-name="Path 153746" d="M337.391,440.533l112.345-2.643v20.395l-111.419,2.579Z" transform="translate(-326.578 -306.902)" fill="#acd1b5"/>
          <path id="Path_153747" data-name="Path 153747" d="M332.456,350.343l116.178-1.8V424.99L335.69,427.849Z" transform="translate(-324.71 -273.072)" fill="none" stroke="#1a1718" stroke-linecap="round" stroke-linejoin="round" stroke-width="2"/>
          <path id="Path_153748" data-name="Path 153748" d="M407.505,379.718c-.726,4.647,1.2,14.1,15.292,14.317,0,0,8.608-1.094,10.2-1.676l-2.707-4.768s5.406-2.571,6.516-1.581c.854.766-3.81-2.875-4.464-6.62-.559-.607-1.494,0-1.494,0s-6.42-2.428-1.517-9.558c0,0-5.486-3.25-11.179-.352A11.823,11.823,0,0,0,407.5,379.71Z" transform="translate(-353.078 -280.544)" fill="#a6a1cf"/>
          <path id="Path_153749" data-name="Path 153749" d="M362.737,371.382s9.454-6.612,12.457.455,0,11.084,6.788,14.342-5.582,9.638-5.582,9.638-13.192,2.755-18.933-5.095c-6.013-5.175-10.8-15.052,5.27-19.348Z" transform="translate(-332.041 -280.656)" fill="#a6a1cf"/>
          <path id="Path_153750" data-name="Path 153750" d="M382.983,364.838s6.668-9.415,13.335-2.252a16.29,16.29,0,0,0-4.679,5.031s-3.322-1.294-4.863.942l-3.8-3.713Z" transform="translate(-343.839 -277.37)" fill="#a6a1cf"/>
          <path id="Path_153751" data-name="Path 153751" d="M352.276,372.469s-5.813-6.389-9.1-2.795c0,0-4.831,4.144-3.665,6.556,0,0,6.173-.36,7.131.838a14.607,14.607,0,0,0,5.638-4.592Z" transform="translate(-327.315 -280.657)" fill="#a6a1cf"/>
          <path id="Path_153752" data-name="Path 153752" d="M348.775,397.009s-10.285,12.194-6.58,24.858c2.628,9.814,4.991,15.556,7.666,15.963s7.315-2.986,10.229-2.6c5.837-.575,4.855,3.657,7.123,2.891s5.606-3.074.935-14.453c-2.875-8.145-1.23-12.274-1.23-12.274s10.421-1.19,16.29,1.557l1.333-3.091s1.964-3.417-10.948-3.865c0,0-10.533,6.955-24.819-8.992Z" transform="translate(-328.092 -291.423)" fill="#788695"/>
          <path id="Path_153753" data-name="Path 153753" d="M358.512,406.108s-6.947,5.718-4.679,12.865c-.048,1.821,4.679,6.883,3.626,10.564-2.092,2.684-4.28-.99-3.833.7.775,2.963,3.211,4.863,9.726,4.863,9.894.048,5.861-5.446,5.071-13.248a95.846,95.846,0,0,1,.048-10.892s-6.388-2.252-9.958-4.855Z" transform="translate(-332.632 -294.868)" fill="#d4cce6"/>
          <path id="Path_153754" data-name="Path 153754" d="M392.588,399.982s1.829-3.019,6.108-1.893a4.8,4.8,0,0,1-1.781,5.6c-2.811.655-3.2-1.222-4.328-3.713Z" transform="translate(-347.479 -291.737)" fill="#e67a9c"/>
          <path id="Path_153755" data-name="Path 153755" d="M345.063,464.988s9.039.528,12.369,2.268c0,0-.152-4.184-3.29-5.23,0,0-2.355,2.172-4.225-.926,0,0-4.863,1.8-4.847,3.889Z" transform="translate(-329.484 -315.69)" fill="#e67a9c"/>
          <path id="Path_153756" data-name="Path 153756" d="M374.576,464.66l11.522,1.86s4.472-2.683-4.056-4.559c0,0-2.316,1.916-3.737.336,0,0-4.216.83-3.721,2.364Z" transform="translate(-340.646 -316.017)" fill="#e67a9c"/>
          <path id="Path_153757" data-name="Path 153757" d="M402.758,465.189s-1.054-4.751,6.045-6.724c0,0,3,3.746,4.687,0,0,0,4.208.327,3.226,3.362,0,0-11.762,2.818-13.958,3.362Z" transform="translate(-351.309 -314.693)" fill="#e67a9c"/>
          <path id="Path_153758" data-name="Path 153758" d="M435.486,459.7s.854-3.083,2.428-3.809c0,0,.144,3.378,4.607,1.414,0,0,6.292,2.308,4.592,5.055,0,0-10.908-1.446-11.619-2.667Z" transform="translate(-363.722 -313.72)" fill="#e67a9c"/>
          <path id="Path_153759" data-name="Path 153759" d="M444.251,398.685s6.189-2.539,8.56.064c0,0-2.164,4.52-4.081,4s-3.545-.966-4.479-4.057Z" transform="translate(-367.041 -291.637)" fill="#e67a9c"/>
          <path id="Path_153760" data-name="Path 153760" d="M399.714,432.018s-3.9-7.251-8.3-4.911-3.178,12.657.312,14.038c3.266,2.811,6.571,3.01,10,2.811A24.791,24.791,0,0,1,399.714,432.018Z" transform="translate(-345.965 -302.643)" fill="#788695"/>
          <path id="Path_153761" data-name="Path 153761" d="M404.166,413.257l3.019-7.29-9.519.311-4.448,3.114s10.125,1.957,10.948,3.865Z" transform="translate(-347.717 -294.815)" fill="#788695"/>
          <path id="Path_153762" data-name="Path 153762" d="M537.116,404.188a12.868,12.868,0,0,1,12.09-4.847c8.121,1.014,10.7.391,12.92,7.45,2.14,4.9-11.8,13.543-13.432,12.825-1.133-.5-4.647-3.777-7.953-8.233-1.445-1.949-3.386-4.919-3.625-7.187Z" transform="translate(-402.204 -292.261)" fill="#e67a9c"/>
          <path id="Path_153763" data-name="Path 153763" d="M573.688,770.322s40.293-19.58,51.976-18.637a136.15,136.15,0,0,1,18.438,2.539s-4.855-8.057-19.763-9.622-27.294-2.491-38.913,1.565c-12.09,4.233-21.1,9.184-26.823,13.416l17.089-2.795s-11.116,5.925-11.97,10.189l20.411-7.721s-10.6,7-10.437,11.059Z" transform="translate(-410.34 -422.533)" fill="#e67a9c"/>
          <path id="Path_153764" data-name="Path 153764" d="M618.371,670.978s1.445,37.666,28.388,45.995c0,0,2.859,1.509,3.394-5.015s16.761-10.516,25.608-8.289c12.338,1.23,13.719,4.52,23.349,13.463,11.7,9.83,22.367,4.536,31.709-10.205a26.95,26.95,0,0,1-21-18.5c-1.765-5.9.719-9.822-3.083-11.076,0,0-1.908,16.338-41.795,18.023s-46.371-23.022-46.578-24.4Z" transform="translate(-432.968 -395.16)" fill="#788695"/>
          <path id="Path_153765" data-name="Path 153765" d="M679.4,499.536c-1.629-1.19-2.731-2.747,3.346-12.7,0,0-3.162-4.64-10.213,2.219,0,0-1.405,12.29-6.516,12.3,0,0-14.469-7.914-13.607-18.71s5.422-12.146,13.607-4.671c0,0,7.155-13.967,16.737-9.287,0,0,7.379,1.677,5.151,18.143,0,0-1.278,9.574-8.5,12.7Z" transform="translate(-445.845 -318.201)" fill="#b83058"/>
          <path id="Path_153766" data-name="Path 153766" d="M758.167,507.352c21.089,29.562,18.3,78.568,18.3,78.568s-1.725,39.751-6.78,52.663c0,0-15.467-.344-15.148-22.319a127.68,127.68,0,0,0-13.615-10.725c-1.078-3.849,1.821-2.874,6.133-19.62,0,0,.416-5.741-15.38-15.148s-9.558-16.6-9.558-16.6-.319-6.077-5.933-15.939c0,0,10.748,2.372,23.669,5.326s13.368-.527,15.164-3.841C758.167,533.952,758.167,507.352,758.167,507.352Z" transform="translate(-470.009 -333.204)" fill="#788695"/>
          <path id="Path_153767" data-name="Path 153767" d="M505.732,491.751s56.688,11.986,79.933,1.645c0,0,.144,17.216,2.275,37.443S577.831,582.5,577.831,582.5s.974-5.175-9.614-8.768c-5.941-2.444-9.335-24.371-9.335-24.371s-2.683-3.9-16.785-12.96c0,0,3.353-30.32-5.726-34.863,0,0-28.14-2.484-30.639-9.79Z" transform="translate(-390.32 -327.296)" fill="#d4cce6"/>
          <path id="Path_153768" data-name="Path 153768" d="M696.065,484.117s4.855,13.655-3.665,18.222c0,0,10.636-.982,34.017,7.195s18.167-28.124,18.167-28.124,4.432-29.035-38.6-56.879L695.8,417.495l-15.108,11.163s43.631,33.2,43.456,58.213l-18.175.12-9.917-2.882Z" transform="translate(-456.569 -299.18)" fill="#788695"/>
          <path id="Path_153769" data-name="Path 153769" d="M439.161,363.519s.7-12.257,10.309-6.452c0,0,3.633,2.507-.519,4.224s-4.991,4.041-4.991,4.041l-2.579.04a2.721,2.721,0,0,0-2.22-1.86Z" transform="translate(-365.114 -275.708)" fill="#d4cce6"/>
          <path id="Path_153770" data-name="Path 153770" d="M413.567,367.278s-3.346-6.253-10.03-4.512c0,0-7.179,3.96-4.472,8.145a1.934,1.934,0,0,0,3.027.048s4.1-.695,4.576.088a12.509,12.509,0,0,1,6.908-3.769Z" transform="translate(-349.7 -278.341)" fill="#d4cce6"/>
          <path id="Path_153771" data-name="Path 153771" d="M412.152,404.541s-11.6,22.646-1.965,32.62a16.41,16.41,0,0,0,2.771,1.437c.607.1,3.417-2.994,4.224-6.252s5.558-1.653,6.189-.839a19.523,19.523,0,0,1,4.208,5.662c.7,1.637,3.529.639,3.817-1.15s2.292-7.37,2.467-9.414a35.764,35.764,0,0,0-1.509-17.9,14.579,14.579,0,0,1,10.541.711l1.27-4.24L437.7,402.2a3.907,3.907,0,0,1-4,2.436s-11.371,5.67-21.536-.1Z" transform="translate(-352.694 -293.389)" fill="#788695"/>
          <path id="Path_153772" data-name="Path 153772" d="M466.735,402.183s-12.026,22.024,0,32.74c0,0,5.6-2.795,8.376-2.148s5.2.726,8.872,2.523,4.919-4.871,4.919-4.871l1.789-5.486s7.418-3.569,2.108-17.6l-1.884-4.073a24.824,24.824,0,0,1-12.856,2.843c-7.834-.247-11.315-3.936-11.315-3.936Z" transform="translate(-373.531 -293.379)" fill="#788695"/>
          <path id="Path_153773" data-name="Path 153773" d="M418.128,407.689s4.847,2.38,12.369.838c0,0,7.73,21.122-6.716,22.2-17.991.943-5.653-23.037-5.653-23.037" transform="translate(-355.587 -295.467)" fill="#d4cce6" stroke="#d4cce6" stroke-linecap="round" stroke-linejoin="round" stroke-width="1"/>
          <path id="Path_153774" data-name="Path 153774" d="M474.86,405.684s-11.65,21.7,3.753,23.7,9.63-22.175,9.63-22.175" transform="translate(-377.032 -294.707)" fill="#d4cce6" stroke="#d4cce6" stroke-linecap="round" stroke-linejoin="round" stroke-width="1"/>
          <path id="Path_153775" data-name="Path 153775" d="M462.684,469.338s-3.769-9.407-9.367-2.244-13.615,14.493-4.025,16.761c4.025.447,6.077-.647,6.077-.647s.974,5.167,8.257-.088c0,0,2.108,6.995,8.792.8s8.3-18.111,1.126-17.376l-3.554,1.949s-.655-3.338-4.328-1.94-2.987,2.779-2.987,2.779Z" transform="translate(-367.26 -316.942)" fill="#e67a9c"/>
          <path id="Path_153776" data-name="Path 153776" d="M618.673,257.03s-38.521-.895-49.541,35.655c0,0-5.837,24.307-.942,44.75,0,0-10.173,6.875-11.419,7.466,0,0,9.223,1.182,10.613,4.615.519,1.286,1.813,2.938,1.477,4.855-.559,3.2-8.76,11.059-13.831,11.4,0,0,20.011,9.934,36.381,6.7,0,0,24.243,4.568,37.747-4.056a81.379,81.379,0,0,0,33.49-28.38c13.759-20.5,10.541-41.228,5.741-50.85s-11.675-22.439-30.208-28.819c-12.417-3.537-19.5-3.33-19.5-3.33Z" transform="translate(-408.987 -238.419)" fill="#a6a1cf"/>
          <path id="Path_153777" data-name="Path 153777" d="M457.561,399.218s5.35-1.645,7.434,1.7l-1.732,2.979-6.468-2.979Z" transform="translate(-371.79 -292.106)" fill="#788695"/>
          <path id="Path_153778" data-name="Path 153778" d="M464.081,451.281s-3.769,3.785-2.292,6.1c0,0,7.753-1.8,10.716-1.31,0,0,2.3-2.747-1.469-4.791a5.668,5.668,0,0,1-4.281,2.236c-2.795.071-2.675-2.236-2.675-2.236Z" transform="translate(-373.552 -311.973)" fill="#e67a9c"/>
          <path id="Path_153779" data-name="Path 153779" d="M484.957,367.981s-3.019-4.216-10.4-1.517c0,0-10.109-.879-11.97,11.906a12.573,12.573,0,0,0,7.426,11.228c7.634,3.465,16.809,3.793,24.339-2.475,0,0-10.182-3.258-1.94-5.726,0,0-5.4-1.365-4.943-6.1,0,0-3.841,2.2-6.053-1.525-1.15-4.592,3.529-5.8,3.529-5.8Z" transform="translate(-373.984 -279.515)" fill="#a6a1cf"/>
          <path id="Path_153780" data-name="Path 153780" d="M489.334,362.266s3.162-8.193,9.527-4.089,0,5.638,0,5.638l-1.773.759-1.661.711-.806-.511s-1.933-3.258-5.286-2.515Z" transform="translate(-384.111 -276.283)" fill="#a6a1cf"/>
          <path id="Path_153781" data-name="Path 153781" d="M465,367.415s-6.372-5.183-9.167-.7-1.222,8.073,0,7.929,3.8-.687,3.8-.687,4.065-6.125,5.359-6.54Z" transform="translate(-370.837 -279.26)" fill="#a6a1cf"/>
          <path id="Path_153782" data-name="Path 153782" d="M505.722,392.886s4.824-3.154,6.676-.718c.088,3.49-1.709,4.687-1.709,4.687s-5.39-.967-4.959-3.969Z" transform="translate(-390.31 -289.24)" fill="#e67a9c"/>
          <path id="Path_153783" data-name="Path 153783" d="M491.623,458s9.407.111,11.85,1.892c0,0-.408-5.358-5.2-5.518,0,0,.319,2.38-5.438-.224,0,0-2.62,2.811-1.222,3.857Z" transform="translate(-384.82 -313.058)" fill="#e67a9c"/>
          <path id="Path_153784" data-name="Path 153784" d="M682.683,513.884s6.244,13.655-3.665,18.223-24.547-.695-25.162-7.283c0,0-7.1-1.717-6.54-9.407,0,0-7.85-8.832,7.841-8.784,0,0,4.9,4.983,8.2,5.478s5.55-8.7,6.516-12.3,8.656-5.03,10.213-2.219c0,0-3.05,6.58-4.576,9.574,0,0-.431,4.512,7.163,6.716Z" transform="translate(-443.187 -328.947)" fill="#e67a9c"/>
          <path id="Path_153785" data-name="Path 153785" d="M631.752,441.605s-6.972,33.442-2.372,60.353A90.722,90.722,0,0,1,625.4,540.3s-13.99,36.341-5.654,46.355,17.623,21.984,54.181,18.79c17.967-2.9,29.968-11.212,32.34-17.28,0,0-10.309-1.581-11.211-6.372s4.974-13.671,4.974-13.671,10.293-10.333-13.224-21.393c0,0-11.531-2.683-8.265-19.428,0,0,3.7-8.089-10.221-18.175,0,0-21.752,7.019-25.162-7.283,0,0-5.119-3.162-5.83-6.284s-10.126-13.176,7.131-11.906c0,0-10.971-14.629-1.3-22.9,0,0,4.632-.559,9.5,5.007,0,0,8.161-16.059,16.737-9.287,5.885.088,10.548,22.463-3.346,30.84,0,0,8.1,6.532,18.629,6.46l14.661-.1s4.576-9.151-4.967-18.423c-8.513-15.835-25.5-36.461-38.489-39.8,0,0-12.761,6.149-24.115,6.149Z" transform="translate(-432.486 -305.977)" fill="#d4cce6"/>
          <path id="Path_153786" data-name="Path 153786" d="M699.52,553.823a13.412,13.412,0,0,1,10.357,1.876s9.678,11.156,5.191,20.131a22.86,22.86,0,0,0,8.025,10.62c5.909,4.072,19.133,11.667,17.655,16.937s-7.865,17.616-6.133,19.62,13.567,7.969,13.615,10.725-.726,20.219,15.148,22.319l-1.829,6.388s-21.488-2.013-22.119-27.877c0,0-.487-1.158-9.63-4.655s1.437-17.088,1.437-17.088,7.554-10.573-8.145-18.2-14.573-11.491-13.216-17.057,2-14.357-10.357-23.74Z" transform="translate(-463.698 -350.672)" fill="#fff"/>
          <path id="Path_153787" data-name="Path 153787" d="M617.913,657.818c.288,16.33,39.751,44.127,78.759,10.477l9.9,4.072s-2.547,18.909-49.269,18.087c-29.163-3.705-39.009-14.989-39.384-32.636Z" transform="translate(-432.797 -390.177)" fill="#a6a1cf"/>
          <path id="Path_153788" data-name="Path 153788" d="M737.141,261.4s24.547-13.072,48.615-11.97c7.578-.048,16.865-1.277,9.079,8.911-7.251,7.459-14.885,23.565-14.885,23.565s-11.1,27.494-42.282,29.745c0,0,1.549-22.359-11.275-37.387L737.149,261.4Z" transform="translate(-473.873 -235.516)" fill="#a6a1cf"/>
          <path id="Path_153789" data-name="Path 153789" d="M730.021,277.857s5.15-16.61,61.854-16.61c0,0,7.195-6.021,5.9-10.349,0,0-5.063-3.7-21.736-.95s-28.723,5.094-38.9,11.3L726.38,274.111l3.633,3.753Z" transform="translate(-473.868 -235.354)" fill="#5a595c"/>
          <path id="Path_153790" data-name="Path 153790" d="M551.522,286.08S533.2,276.633,533.978,250.8s8.76-23.677,8.76-23.677,2.907.319,3.481,3.969,19.253,20.523,19.253,20.523l9.766,7.4s-13.846,12.058-14.086,22.319c0,0-6.788,1.821-9.63,4.735Z" transform="translate(-401.007 -227.079)" fill="#a6a1cf"/>
          <path id="Path_153791" data-name="Path 153791" d="M545.713,227.151s12.8,30.983,29.179,36.708l4.807-4.807s-21.017-15.436-25.8-23.206-5.167-7.338-8.185-8.688Z" transform="translate(-405.459 -227.106)" fill="#5a595c"/>
          <path id="Path_153792" data-name="Path 153792" d="M605.421,259.945s-13.823,18.366-14.494,42.9c0,0,4.5,9.965,1.014,20.578S581.5,339.247,573.7,340.174c0,0-5.941,5.111-10.517,5.214,0,0,9.447,5.1,20.85-1.677S597.18,330.32,597.18,330.32s-3.674-23.3,15.077-34.273c0,0,10.724-26.367,24.674-36.98,0,0-18.207-5.127-31.518.887Z" transform="translate(-412.072 -238.42)" fill="#5a595c"/>
          <path id="Path_153793" data-name="Path 153793" d="M681.883,388.853s18.078-.766,26.479-5.893c0,0,8.984-14.589,10.453-19.827,0,0-17.991,21.7-36.94,25.72Z" transform="translate(-457.016 -278.596)" fill="#5a595c"/>
          <path id="Path_153794" data-name="Path 153794" d="M594.356,401.231s15.4-.679,20.067-6.908l4.44,4.384s-9.055,6.4-24.507,2.515Z" transform="translate(-423.878 -290.406)" fill="#5a595c"/>
          <path id="Path_153795" data-name="Path 153795" d="M691.1,315.115l21.928-25.673,4.512,7.89s-12.194,19.939-21.96,26.383c0,0-2.715-6.452-4.48-8.608Z" transform="translate(-460.51 -250.693)" fill="#5a595c"/>
          <path id="Path_153796" data-name="Path 153796" d="M686.142,373.414s25.393-22.5,35.055-48.926c0,0,2.827,14.27-.519,23.405,0,0-12.633,17.328-34.536,25.513Z" transform="translate(-458.632 -263.963)" fill="#d4cce6"/>
          <path id="Path_153797" data-name="Path 153797" d="M668.381,298.614s15.188-23.165,22.079-27.03c0,0,1.046-4.352,9.319,5.055l-23.006,25.385-8.393-3.418Z" transform="translate(-451.907 -243.55)" fill="#d4cce6"/>
          <path id="Path_153798" data-name="Path 153798" d="M493.819,489.967s-1.965,12.513,31.239,15.236c0,0,10.181,2.994,5.214,26.79,0,0-4.775,5.9,10.037,13.36,8.057,6.164,10.134,5.757,11.036,18.295,1.421,10.972,10.014,14.221,13.311,17.24s3.649,19.4,5.574,18.981l3.082-18.055s1.366-4.536-9.614-8.768c0,0-5.262-1.022-8.488-21.305,0,0,.04-7.211-15.324-13.487,0,0-3.753-1.046-1.717-13.08,0,0,.3-14.837-3.274-20.889s-17.256-3.913-18.263-5.774c0,0-13.087-.5-15.419-7.458l-7.387-1.1Z" transform="translate(-385.801 -326.615)" fill="#fff"/>
          <path id="Path_153799" data-name="Path 153799" d="M610.542,385.893s-6.66,8.137-16.186,12.146c0,0,14.086-.407,20.067-6.908Z" transform="translate(-423.878 -287.214)" fill="#d4cce6"/>
          <path id="Path_153800" data-name="Path 153800" d="M589.532,283.749s-4.264,9.471-4.408,19.325l-7.411-.28s1.374-13.08,11.811-19.045Z" transform="translate(-417.576 -248.537)" fill="#d4cce6"/>
          <path id="Path_153801" data-name="Path 153801" d="M809.288,584.572s27.6-2.8,33.882-30.631c1.422-27.981-6.747-77.282,12.505-83.527,0,0,3.513-14.158,27.118-14.669,0,0,41.667-14.981,47.736,4.424,0,0,29.674,12.832,16.9,47.417,0,0,4.48,19.085-6.133,24.986,0,0-3.888,10.972-14.006,14.653,0,0-7.362,11.467-28.572,15.492,0,0-9.958,6.532-12.162,13.192s-24.874,25.178-24.874,25.178-34.9,24.906-55.865,7.29l3.481-23.812Z" transform="translate(-503.946 -311.573)" fill="#788695"/>
          <path id="Path_153802" data-name="Path 153802" d="M941.281,582.752s-3.122,9.279-14.006,14.653c0,0-6.979,10.669-28.6,14.7,0,0-8.449,5.861-12.122,13.99-4.9,6.836-16.553,23.932-40.8,33.826s-31.51,3.737-39.943-1.358l.463-8.888s15.891,12.912,46.06-2.571,32.979-34.648,41.2-40.046c3.921-2.276,7.426-2.675,10.405-4.743s7.043-8.56,10.628-11.427,13.8-.328,17.384-3.194" transform="translate(-503.941 -361.754)" fill="#5a595c"/>
          <path id="Path_153803" data-name="Path 153803" d="M580.409,484.1s-24.243,10.692-74.966,1.621L494.023,486l-.191,1.757s38.792,7.291,49.221,6.644,26.368.854,38.106-3.905l-.751-6.388Z" transform="translate(-385.814 -324.401)" fill="#5a595c"/>
          <path id="Path_153804" data-name="Path 153804" d="M740.413,500.168s9.056,1.142,9.543,18.542l-3.929-.535s3.9-9.3-5.614-18.007Z" transform="translate(-479.182 -330.483)" fill="#5a595c"/>
          <path id="Path_153805" data-name="Path 153805" d="M743.318,736.206s22.742,9.494,34.824-7.371c0,0-6.819,13.551-16.361,14.741s-18.462-7.371-18.462-7.371Z" transform="translate(-480.282 -417.067)" fill="#5a595c"/>
          <path id="Path_153806" data-name="Path 153806" d="M434.032,382.14c.352-1.765-1.812-11.051-.335-13.751,0,0-5.949.064-8.967,1.134a19.617,19.617,0,0,1,3.985,3.681c2.2,2.731,4.712,8.313,5.31,8.936Z" transform="translate(-359.649 -280.586)" fill="#5a595c"/>
          <path id="Path_153807" data-name="Path 153807" d="M407.585,386.69s4.057,4.991,8.106,5.972c0,1.054-6.452,1.134-7.642-.4l-.463-5.574Z" transform="translate(-353.157 -287.515)" fill="#5a595c"/>
          <path id="Path_153808" data-name="Path 153808" d="M353.712,446.013a3.748,3.748,0,0,1,2.587,0c0,2.683,7.267,4.871,13.631,1.573,0,0-1.094,4.48-10,2.963,0,0-6.268-.439-6.22-4.536Z" transform="translate(-332.758 -309.882)" fill="#a6a1cf"/>
          <path id="Path_153809" data-name="Path 153809" d="M440.639,364.5s1.717-7.578,7.538-7.035c0,0,.846-1.406-4.9-1.214a9.707,9.707,0,0,0-4.113,7.538" transform="translate(-365.114 -275.981)" fill="#5a595c"/>
          <path id="Path_153810" data-name="Path 153810" d="M412.609,368.072s-4.743-4.9-10.19-2.356c0,0,1-4.216,7.035-2.643s5.614,4.3,5.614,4.3l-2.467.687" transform="translate(-351.201 -278.44)" fill="#5a595c"/>
          <path id="Path_153811" data-name="Path 153811" d="M375.341,369.134s.958,12.13,6.875,14.869c-.711.711-6.492-.751-13.751-12.361" transform="translate(-338.345 -280.868)" fill="#5a595c"/>
          <path id="Path_153812" data-name="Path 153812" d="M462.435,386.877s6.516,6.133,12.777,5.367c0,0-6.652,2.411-10,.495-2.635-1.892-2.779-5.869-2.779-5.869Z" transform="translate(-373.926 -287.584)" fill="#5a595c"/>
          <path id="Path_153813" data-name="Path 153813" d="M414.4,437.89s9.064,5.853,16.626,1.142c0,0-1.038,3.434-8.712,3.737a7.907,7.907,0,0,1-7.922-4.879Z" transform="translate(-355.736 -306.902)" fill="#a6a1cf"/>
          <path id="Path_153814" data-name="Path 153814" d="M472.023,437.89s9.343,5.8,16.4,0c0,0-1.7,4.8-8.1,4.3S473.827,440.15,472.023,437.89Z" transform="translate(-377.557 -306.902)" fill="#a6a1cf"/>
          <path id="Path_153815" data-name="Path 153815" d="M384.593,366.111s6.092-6.724,10.389-2.715l1.341-.871s-3.186-4.592-8.241-2.036-5.094,4.288-5.094,4.288l1.6,1.341Z" transform="translate(-343.844 -277.302)" fill="#5a595c"/>
          <path id="Path_153816" data-name="Path 153816" d="M352.055,374.193s-4.272-4.041-8.56-3.066c0,0,3.729-5.542,10.357,2.108l-1.8.966Z" transform="translate(-328.89 -280.888)" fill="#5a595c"/>
          <path id="Path_153817" data-name="Path 153817" d="M353.635,395.814s6.38,4.448,11.443,3.314c0,0-3.833,3.09-6.915,1.916l-4.528-5.222Z" transform="translate(-332.729 -290.97)" fill="#5a595c"/>
          <path id="Path_153818" data-name="Path 153818" d="M478.371,362.909c1.166,3.937,3.921,5.15,6.069,6.883,1.662,3.2,5.966,6.029,6.684,5.406.327-.288-2.475-1.98-3.729-4.911a24.42,24.42,0,0,1-1.461-8.185s-.727-1.964,2.659-4.6c4.975-3.027,7.482.926,7.482.926a7.639,7.639,0,0,0-8.1,3.545" transform="translate(-379.96 -276.032)" fill="#5a595c"/>
          <path id="Path_153819" data-name="Path 153819" d="M465.656,367.331a6.9,6.9,0,0,0-7.195-2.4,6.621,6.621,0,0,0-2.451,3.194s5.582-.519,7.978.726l1.668-1.517Z" transform="translate(-371.493 -279.176)" fill="#5a595c"/>
          <path id="Path_153820" data-name="Path 153820" d="M463.952,448.762s3.985,3.618,7.395,2.268a5.271,5.271,0,0,1-3.41,1.35C466.132,452.252,463.952,448.762,463.952,448.762Z" transform="translate(-374.501 -311.019)" fill="#5a595c"/>
          <path id="Path_153821" data-name="Path 153821" d="M494.577,451.227c3.793,4.456,5.973-.751,6.891-3.57A6.557,6.557,0,0,1,494.577,451.227Z" transform="translate(-386.097 -310.6)" fill="#5a595c"/>
          <path id="Path_153822" data-name="Path 153822" d="M585.828,500.255s-10.11,5.63-47.082,1.925c-8.768-1.581-19.875-3.186-19.875-3.186s-13.1-3.522-13.152-7.243c0,0,21.289,5.493,41.835,5.542s32.644-1.933,38.106-3.905l.168,6.86Z" transform="translate(-390.316 -327.296)" fill="#a6a1cf"/>
          <path id="Path_153823" data-name="Path 153823" d="M610.825,351.5a73.5,73.5,0,0,1-1.677,8.736l4.719,1.022s-.208-7.41.8-9.039l-3.849-.719Z" transform="translate(-429.479 -274.192)" fill="#e67a9c" stroke="#1a1718" stroke-linecap="round" stroke-linejoin="round" stroke-width="2"/>
          <path id="Path_153824" data-name="Path 153824" d="M351.424,441.954s1.015-4.072,4.512-4.064c.439,0,.247.543.8.67,0,0,1.852.735,1.788,1.6-1.788,1.413-3.545,4.487-7.1,1.788Z" transform="translate(-331.892 -306.902)" fill="#e67a9c"/>
          <path id="Path_153825" data-name="Path 153825" d="M343.025,433.516s-1.581-6.724-5.98-4.384c.279,6.125.431,11.091.615,15.14a6.664,6.664,0,0,0,7.379,1.174,24.789,24.789,0,0,1-2.013-11.938Z" transform="translate(-326.447 -303.399)" fill="#788695"/>
          <path id="Path_153826" data-name="Path 153826" d="M339.345,428.805s-2.092-.224-2.867.846" transform="translate(-326.233 -303.455)" fill="none" stroke="#1a1718" stroke-linecap="round" stroke-linejoin="round" stroke-width="1.5"/>
          <path id="Path_153827" data-name="Path 153827" d="M337.391,453.093s2.882,4.121,7.251,1.549" transform="translate(-326.579 -312.659)" fill="none" stroke="#1a1718" stroke-linecap="round" stroke-linejoin="round" stroke-width="1.5"/>
          <path id="Path_153828" data-name="Path 153828" d="M459.626,437.111c-2.356.16-4.9-5.574-4.863-10.461s4.185-4.36,4.185-4.36" transform="translate(-371.021 -300.989)" fill="#788695"/>
          <path id="Path_153829" data-name="Path 153829" d="M458.424,422.108s-6.373.208-3.873,8.3,5.27,6.9,5.27,6.9" transform="translate(-370.721 -300.926)" fill="none" stroke="#1a1718" stroke-linecap="round" stroke-linejoin="round" stroke-width="1.5"/>
        </g>
        <g id="River_LW" data-name="River LW" transform="translate(11.736 0.048)">
          <path id="Path_153830" data-name="Path 153830" d="M599.378,753.113c-13.8,3.465-19.029,6.237-27.238,17.1-.607.127,37.683-18.51,48.447-18.63s15.324.695,21.959,2.539c-3.2-11-58.94-19.253-87.5,7.115,0,0,12.736-4.671,18.382-4.671" transform="translate(-420.728 -422.731)" fill="none" stroke="#1a1718" stroke-linecap="round" stroke-linejoin="round" stroke-width="2"/>
          <path id="Path_153831" data-name="Path 153831" d="M530.343,457.143c13.28-.455,47.369-4.967,57.215-11.786" transform="translate(-411.375 -309.777)" fill="none" stroke="#1a1718" stroke-linecap="round" stroke-linejoin="round" stroke-width="2"/>
          <path id="Path_153832" data-name="Path 153832" d="M631.976,445.357c-1.15,2.052-6.931,21.033-1.924,64.426,2.356,20.434-7.762,46.515-10.812,58.787-6.508,25.258,8.688,54.38,21.472,61.407a11,11,0,0,0,5.79,1.573c6.38-1.078-3.13-15.787,29-13.3,19.748,2.22,17,12.953,29.378,16.179" transform="translate(-444.446 -309.777)" fill="none" stroke="#1a1718" stroke-linecap="round" stroke-linejoin="round" stroke-width="2"/>
          <path id="Path_153833" data-name="Path 153833" d="M537.692,403.276c3.753-2.891,4.975-4.248,11.611-3.9s12.242,2,13.04,7.45c.327,2.228-2.747,4.775-4.839,7.011-3.035,3.234-5.853,5.813-8.712,5.813-2.556,0-4.871-3.754-7.522-7.722-2.372-3.553-5.342-7.282-3.57-8.648Z" transform="translate(-413.956 -292.347)" fill="none" stroke="#1a1718" stroke-linecap="round" stroke-linejoin="round" stroke-width="2"/>
          <path id="Path_153834" data-name="Path 153834" d="M554.979,427.742s34.632,19.436,56.688-5.766l.815-1.4" transform="translate(-420.703 -300.395)" fill="none" stroke="#1a1718" stroke-linecap="round" stroke-linejoin="round" stroke-width="2"/>
          <path id="Path_153835" data-name="Path 153835" d="M639.735,419.687s6.38-2.707,6.148,4.831" transform="translate(-452.796 -299.878)" fill="none" stroke="#1a1718" stroke-linecap="round" stroke-linejoin="round" stroke-width="2"/>
          <path id="Path_153836" data-name="Path 153836" d="M564.584,388.437c-4.016,4.576-12.1,6.8-12.1,6.8" transform="translate(-419.759 -288.224)" fill="none" stroke="#1a1718" stroke-linecap="round" stroke-linejoin="round" stroke-width="2"/>
          <path id="Path_153837" data-name="Path 153837" d="M581.279,492.58c-27.645,10.836-86.784-2.963-86.784-2.963s-5.869,11.443,30.7,15.452c9.95,4.576,6.627,19.436,4.895,28.4s16.425,11.842,19.691,20.091-.726,10.045,5.446,19.021,10.533,3.945,11.978,15.068,2.052,10.932,3.921,14.078" transform="translate(-397.67 -326.536)" fill="none" stroke="#1a1718" stroke-linecap="round" stroke-linejoin="round" stroke-width="2"/>
          <path id="Path_153838" data-name="Path 153838" d="M721.727,270.367s23.493-21.976,69.839-20.977c5.678-.032,7.092,3.769,0,10.477S778.918,283.423,771,293.381s-18.222,15.811-34.3,18.278" transform="translate(-483.842 -235.562)" fill="none" stroke="#1a1718" stroke-linecap="round" stroke-linejoin="round" stroke-width="2"/>
          <path id="Path_153839" data-name="Path 153839" d="M687.6,417.495s46.035,23.732,48.575,60.329-9.063,33.905-17.76,31.757-29.474-8.608-36.485-7-19.644,2.156-22.894-7.538" transform="translate(-460.105 -299.227)" fill="none" stroke="#1a1718" stroke-linecap="round" stroke-linejoin="round" stroke-width="2"/>
          <path id="Path_153840" data-name="Path 153840" d="M664.552,539s-16.945-1.613-16.01-9.686" transform="translate(-456.116 -341.567)" fill="none" stroke="#1a1718" stroke-linecap="round" stroke-linejoin="round" stroke-width="2"/>
          <path id="Path_153841" data-name="Path 153841" d="M663.541,525.309s-20.466,1.606-17.392-9.694c0,0,2.467-3.41,9.367-2.38" transform="translate(-455.105 -335.406)" fill="none" stroke="#1a1718" stroke-linecap="round" stroke-linejoin="round" stroke-width="2"/>
          <path id="Path_153842" data-name="Path 153842" d="M679.425,499.232s9.5-2.715,9.231-21.553c-2.315-15.8-16.657-12.792-22.614,0-14.486-16.442-21.457,15.077,0,23.374" transform="translate(-457.606 -317.944)" fill="none" stroke="#1a1718" stroke-linecap="round" stroke-linejoin="round" stroke-width="2"/>
          <path id="Path_153843" data-name="Path 153843" d="M577.084,293.311c1.653-11.179,18.6-37.435,53.6-36.166,21.752,1.781,32.868,12.7,32.868,12.7s34.521,31.518,6.62,71.421c-8.177,9.039-29.123,39.368-70.407,31.214" transform="translate(-429.073 -238.494)" fill="none" stroke="#1a1718" stroke-linecap="round" stroke-linejoin="round" stroke-width="2"/>
          <path id="Path_153844" data-name="Path 153844" d="M750.266,503.741c17.8,29.706,20.658,57.4,19.348,89.627-1.932,31.574-8.336,50.236-8.336,50.236-13.312,0-22.591-15.787-21.616-24.4s-9.87-3.586-12.968-11.842,7.346-12.2,6.189-21.529S706.211,571.48,709.3,560c4.64-17.584-10.5-24.38-10.5-24.38" transform="translate(-475.161 -331.884)" fill="none" stroke="#1a1718" stroke-linecap="round" stroke-linejoin="round" stroke-width="2"/>
          <path id="Path_153845" data-name="Path 153845" d="M716.188,557.049s7.826,10.516,5.526,18.638,17.176,17.855,23.5,24.3-5.749,18.949-4.592,23.612,13.918,7.179,13.918,11.483.471,22.319,15.149,22.319" transform="translate(-481.745 -352.069)" fill="none" stroke="#1a1718" stroke-linecap="round" stroke-linejoin="round" stroke-width="2"/>
          <path id="Path_153846" data-name="Path 153846" d="M576.857,586.142c3.45-11.107-6.348-8.792-11.068-14.525s-4.719-15.787-6.9-22.239-18.686-10.006-17.233-15.2,2.021-33.075-7.179-33.075c-19.245-1.8-26.056-4.121-28.747-9.343" transform="translate(-402.056 -327.348)" fill="none" stroke="#1a1718" stroke-linecap="round" stroke-linejoin="round" stroke-width="2"/>
          <path id="Path_153847" data-name="Path 153847" d="M721.393,468.749s2.747-4,6.74-2.715" transform="translate(-483.715 -317.51)" fill="none" stroke="#1a1718" stroke-linecap="round" stroke-linejoin="round" stroke-width="2"/>
          <path id="Path_153848" data-name="Path 153848" d="M732.818,489.3s5.7-1.4,9.591.942" transform="translate(-488.041 -326.259)" fill="none" stroke="#1a1718" stroke-linecap="round" stroke-linejoin="round" stroke-width="2"/>
          <path id="Path_153849" data-name="Path 153849" d="M692.709,453.708s3.88-6,6.963-5.685" transform="translate(-472.854 -310.782)" fill="none" stroke="#1a1718" stroke-linecap="round" stroke-linejoin="round" stroke-width="2"/>
          <path id="Path_153850" data-name="Path 153850" d="M654.687,458.014a12.96,12.96,0,0,1,0-9.3" transform="translate(-458.125 -311.047)" fill="none" stroke="#1a1718" stroke-linecap="round" stroke-linejoin="round" stroke-width="2"/>
          <path id="Path_153851" data-name="Path 153851" d="M614.8,471.073s3.713,4.328,8.145,5.661" transform="translate(-443.355 -319.514)" stroke="#1a1718" stroke-linecap="round" stroke-linejoin="round" stroke-width="2" fill="url(#linear-gradient)"/>
          <path id="Path_153852" data-name="Path 153852" d="M610.716,509.286s3.769-3.306,7.578-3.849" transform="translate(-441.808 -332.526)" fill="none" stroke="#1a1718" stroke-linecap="round" stroke-linejoin="round" stroke-width="2"/>
          <path id="Path_153853" data-name="Path 153853" d="M624.364,540.091s1.134-6.021,3.785-7.9" transform="translate(-446.976 -342.658)" fill="none" stroke="#1a1718" stroke-linecap="round" stroke-linejoin="round" stroke-width="2"/>
          <path id="Path_153854" data-name="Path 153854" d="M727.022,517.454c2.547.048,5.574,1.757,6.492,3.537" transform="translate(-485.847 -337.076)" fill="none" stroke="#1a1718" stroke-linecap="round" stroke-linejoin="round" stroke-width="2"/>
          <path id="Path_153855" data-name="Path 153855" d="M596.165,754.821c-17.576,2.754-29.258,15.244-29.658,16.282,0,0,.695-.319,1.885-.846,12.521-5.367,11.778-4.671,19.476-7.179" transform="translate(-425.068 -426.955)" fill="none" stroke="#1a1718" stroke-linecap="round" stroke-linejoin="round" stroke-width="2"/>
          <path id="Path_153856" data-name="Path 153856" d="M462.265,486.3c5.382,2.8,10.716-7.682,11.515-9.255s4.161-8.209,0-9.128c-4.033-.894-9.407,6.6-10.341,7.714s-6.564,7.866-1.174,10.669Z" transform="translate(-384.725 -318.291)" fill="none" stroke="#1a1718" stroke-linecap="round" stroke-linejoin="round" stroke-width="2"/>
          <path id="Path_153857" data-name="Path 153857" d="M481.454,469.81s4.688-4.376,7.346,0-2.339,12.545-2.339,12.545-7.051,10.661-11.379,2.827" transform="translate(-390.45 -318.3)" fill="none" stroke="#1a1718" stroke-linecap="round" stroke-linejoin="round" stroke-width="2"/>
          <path id="Path_153858" data-name="Path 153858" d="M460.878,470.507a3.811,3.811,0,0,0-1.773-5.47c-3.817-2.076-11.323,7.594-14.078,13.352s8.376,6.053,9.518,4.959" transform="translate(-378.906 -317.12)" fill="none" stroke="#1a1718" stroke-linecap="round" stroke-linejoin="round" stroke-width="2"/>
          <path id="Path_153859" data-name="Path 153859" d="M657.161,301.517s9.008-6.9,18.007,2.14" transform="translate(-459.394 -254.359)" fill="none" stroke="#1a1718" stroke-linecap="round" stroke-linejoin="round" stroke-width="2"/>
          <path id="Path_153860" data-name="Path 153860" d="M604.385,304.093s-3.346-7.794-14.5-1.469" transform="translate(-433.92 -254.794)" fill="none" stroke="#1a1718" stroke-linecap="round" stroke-linejoin="round" stroke-width="2"/>
          <path id="Path_153861" data-name="Path 153861" d="M575.252,259.054s-21.265-14.326-29.761-29.163c-2.9-7.626-10.812,1.661-11.411,15.875S535.47,278,552.654,287.642" transform="translate(-412.757 -227.156)" fill="none" stroke="#1a1718" stroke-linecap="round" stroke-linejoin="round" stroke-width="2"/>
          <path id="Path_153862" data-name="Path 153862" d="M747.928,278.493c-8.96.631-16.713,10.588-16.729,10.556,0,0,8.521-3.96,14.493-1.956" transform="translate(-487.428 -246.594)" fill="none" stroke="#1a1718" stroke-linecap="round" stroke-linejoin="round" stroke-width="2"/>
          <path id="Path_153863" data-name="Path 153863" d="M571.956,268.739s6.34,8.337,12.848,10.867c-1.493-.4-9.966-2.132-12.848,0" transform="translate(-427.132 -242.901)" fill="none" stroke="#1a1718" stroke-linecap="round" stroke-linejoin="round" stroke-width="2"/>
          <path id="Path_153864" data-name="Path 153864" d="M656.879,509.775s9.1,5.574,13.742.464c2.915-3.219.631-13.943,10.485-14.238s-5.749,10.469,0,14.238,11.219,7.538,23.4,6.46a61.8,61.8,0,0,1,22.359,2.284" transform="translate(-459.287 -328.951)" fill="none" stroke="#1a1718" stroke-linecap="round" stroke-linejoin="round" stroke-width="2"/>
          <path id="Path_153865" data-name="Path 153865" d="M548.45,413.9c.743-7.865-4.7-3.7-4.7-3.7" transform="translate(-416.45 -296.048)" fill="none" stroke="#1a1718" stroke-linecap="round" stroke-linejoin="round" stroke-width="2"/>
          <path id="Path_153866" data-name="Path 153866" d="M447.566,386.175a11.728,11.728,0,0,0,3.793,6.732" transform="translate(-380.032 -287.368)" fill="none" stroke="#1a1718" stroke-linecap="round" stroke-linejoin="round" stroke-width="1.5"/>
          <path id="Path_153867" data-name="Path 153867" d="M452.8,398.6c-2.484-2.148-6.947-1.11-8.576,0-.367,1.118,1.222,4.448,4.288,4.184S452.8,398.6,452.8,398.6Z" transform="translate(-378.745 -291.598)" fill="none" stroke="#1a1718" stroke-linecap="round" stroke-linejoin="round" stroke-width="1.5"/>
          <ellipse id="Ellipse_2132" data-name="Ellipse 2132" cx="3.993" cy="4.592" rx="3.993" ry="4.592" transform="translate(62.312 89.624)" fill="#fff" stroke="#fff" stroke-linecap="round" stroke-linejoin="round" stroke-width="1.5"/>
          <ellipse id="Ellipse_2133" data-name="Ellipse 2133" cx="5.158" cy="5.446" rx="5.158" ry="5.446" transform="translate(47.723 91.98)" fill="#fff" stroke="#fff" stroke-linecap="round" stroke-linejoin="round" stroke-width="1.5"/>
          <ellipse id="Ellipse_2134" data-name="Ellipse 2134" cx="4.224" cy="4.176" rx="4.224" ry="4.176" transform="translate(48.53 93.162)" fill="#3e0e31" stroke="#1a1718" stroke-linecap="round" stroke-linejoin="round" stroke-width="1"/>
          <path id="Path_153868" data-name="Path 153868" d="M425.732,398.081a8.377,8.377,0,0,1,4.966-4.8" transform="translate(-371.764 -290.059)" fill="none" stroke="#1a1718" stroke-linecap="round" stroke-linejoin="round" stroke-width="1"/>
          <path id="Path_153869" data-name="Path 153869" d="M431.014,399.541s.95-2.244,2.044-2.4" transform="translate(-373.764 -291.519)" fill="none" stroke="#1a1718" stroke-linecap="round" stroke-linejoin="round" stroke-width="1"/>
          <path id="Path_153870" data-name="Path 153870" d="M413.564,366.867s-6.037-7.905-12.074-2.564c-4.751,3.649-3.082,7.961-.751,7.538,2.628-.623,5.83-.926,5.869-.974" transform="translate(-361.433 -278.385)" fill="none" stroke="#1a1718" stroke-linecap="round" stroke-linejoin="round" stroke-width="1.5"/>
          <path id="Path_153871" data-name="Path 153871" d="M439.161,363.171s.982-10.764,10.309-5.917c0,0,3.226,1.908,0,3.913s-4.783,1.677-5.5,4.4a5.125,5.125,0,0,1,3.745,4.592,5,5,0,0,1-3.242,5" transform="translate(-376.849 -275.942)" fill="none" stroke="#1a1718" stroke-linecap="round" stroke-linejoin="round" stroke-width="1.5"/>
          <ellipse id="Ellipse_2135" data-name="Ellipse 2135" cx="2.963" cy="3.458" rx="2.963" ry="3.458" transform="translate(61.779 91.255) rotate(-8.5)" fill="#3e0e31" stroke="#1a1718" stroke-linecap="round" stroke-linejoin="round" stroke-width="1"/>
          <path id="Path_153872" data-name="Path 153872" d="M429.023,369.522a7.94,7.94,0,0,0-1.493-.846c-1.549-.439-4.352-.535-9.327.846-12.864.854-12.784,15.963-6.859,20.961,9.71,7.211,23.277,1.333,23.277,1.333" transform="translate(-364.858 -280.632)" fill="none" stroke="#1a1718" stroke-linecap="round" stroke-linejoin="round" stroke-width="1.5"/>
          <path id="Path_153873" data-name="Path 153873" d="M404.044,413.886s-7.139-2.683-11.148-2.3" transform="translate(-359.331 -296.976)" fill="none" stroke="#1a1718" stroke-linecap="round" stroke-linejoin="round" stroke-width="1.5"/>
          <path id="Path_153874" data-name="Path 153874" d="M446.885,412.017s4.144-1.621,10.613.918" transform="translate(-379.774 -296.96)" fill="none" stroke="#1a1718" stroke-linecap="round" stroke-linejoin="round" stroke-width="1.5"/>
          <path id="Path_153875" data-name="Path 153875" d="M408.695,458.465s-7.794,2.8-6.013,6.812c0,0,10.589-3.178,13.008-3.178s.335-2.851-1.709-3.634" transform="translate(-362.936 -314.74)" fill="none" stroke="#1a1718" stroke-linecap="round" stroke-linejoin="round" stroke-width="1.5"/>
          <ellipse id="Ellipse_2136" data-name="Ellipse 2136" cx="1.885" cy="1.869" rx="1.885" ry="1.869" transform="translate(49.951 94.208)" fill="#fff" stroke="#1a1718" stroke-linecap="round" stroke-linejoin="round" stroke-width="1"/>
          <ellipse id="Ellipse_2137" data-name="Ellipse 2137" cx="1.885" cy="1.869" rx="1.885" ry="1.869" transform="translate(62.648 91.501)" fill="#fff" stroke="#1a1718" stroke-linecap="round" stroke-linejoin="round" stroke-width="1"/>
          <path id="Path_153876" data-name="Path 153876" d="M746.207,517.641c2.883-9.151-5.549-19.156-5.549-19.156" transform="translate(-491.01 -329.894)" fill="none" stroke="#1a1718" stroke-linecap="round" stroke-linejoin="round" stroke-width="2"/>
          <path id="Path_153877" data-name="Path 153877" d="M564.231,411.845s-3.457-4.464-5.358,4.176" transform="translate(-422.178 -296.651)" fill="none" stroke="#1a1718" stroke-linecap="round" stroke-linejoin="round" stroke-width="2"/>
          <path id="Path_153878" data-name="Path 153878" d="M811.405,596.178s15.819.5,30.017-19.492-11.483-95.217,21.8-95.808" transform="translate(-517.798 -323.227)" fill="none" stroke="#1a1718" stroke-linecap="round" stroke-linejoin="round" stroke-width="2"/>
          <path id="Path_153879" data-name="Path 153879" d="M885.995,472.962s8.473-18.255,38.21-12.761" transform="translate(-546.041 -315.008)" fill="none" stroke="#1a1718" stroke-linecap="round" stroke-linejoin="round" stroke-width="2"/>
          <path id="Path_153880" data-name="Path 153880" d="M883.137,454.947s40.94-14.294,47.392,5.087c17.544,7.45,25.785,29.386,16.9,47.417,0,0,5.782,16.793-6.133,24.986,0,0-.431,6.955-14.007,14.653-19.516,21.393-27.6,5.43-39.854,27.207s-55.57,54.2-81.618,33.945" transform="translate(-515.682 -311.486)" fill="none" stroke="#1a1718" stroke-linecap="round" stroke-linejoin="round" stroke-width="2"/>
          <path id="Path_153881" data-name="Path 153881" d="M617.9,668.78s3.777,27.988,48.447,25.7c17.735,0,36.253-7.858,40.222-16.593" transform="translate(-444.528 -394.375)" fill="none" stroke="#1a1718" stroke-linecap="round" stroke-linejoin="round" stroke-width="2"/>
          <path id="Path_153882" data-name="Path 153882" d="M502.584,380.829s.519,5.366,5.334,6.444" transform="translate(-400.864 -285.344)" fill="none" stroke="#1a1718" stroke-linecap="round" stroke-linejoin="round" stroke-width="1.5"/>
          <path id="Path_153883" data-name="Path 153883" d="M505.707,393.171c-.511-1.086,3.961-2.867,6.053-1.789s-1.086,5.39-1.086,5.39-4.248-1.007-4.959-3.6Z" transform="translate(-402.031 -289.213)" fill="none" stroke="#1a1718" stroke-linecap="round" stroke-linejoin="round" stroke-width="1.5"/>
          <path id="Path_153884" data-name="Path 153884" d="M494.355,387.6s-8.768,7.8-20.211,4.176-11.922-11.123-11.435-14.789c.423-3.21,4.719-10.924,11.507-10.1" transform="translate(-385.72 -280.041)" fill="none" stroke="#1a1718" stroke-linecap="round" stroke-linejoin="round" stroke-width="1.5"/>
          <path id="Path_153885" data-name="Path 153885" d="M482.278,366.049s7.37-2.475,10.277,2.347" transform="translate(-393.175 -279.507)" fill="none" stroke="#1a1718" stroke-linecap="round" stroke-linejoin="round" stroke-width="1.5"/>
          <path id="Path_153886" data-name="Path 153886" d="M490.426,361.866s2.627-6.875,8.393-4.24c8.967,4.751-3.258,6.86-3.258,6.86" transform="translate(-396.26 -276.33)" fill="none" stroke="#1a1718" stroke-linecap="round" stroke-linejoin="round" stroke-width="1.5"/>
          <path id="Path_153887" data-name="Path 153887" d="M486.288,393.652s1.23-2.42,3.314-2.452" transform="translate(-394.694 -289.271)" fill="none" stroke="#1a1718" stroke-linecap="round" stroke-linejoin="round" stroke-width="1"/>
          <path id="Path_153888" data-name="Path 153888" d="M489.372,396.714s1.038-1.965,4.48-4.113" transform="translate(-395.861 -289.801)" fill="none" stroke="#1a1718" stroke-linecap="round" stroke-linejoin="round" stroke-width="1"/>
          <path id="Path_153889" data-name="Path 153889" d="M508.568,403.949s9.039,15.843-.535,21.88" transform="translate(-402.927 -294.098)" fill="none" stroke="#1a1718" stroke-linecap="round" stroke-linejoin="round" stroke-width="1.5"/>
          <path id="Path_153890" data-name="Path 153890" d="M488.338,407.411c2.723,6.221.016,27.605-4.288,26.919-3.027-.479-6.644-2.923-11.954-2.923s-6.684,6.628-10.717-2.915c-2.323-6.42-1.4-17.807,4.352-28.044,0,0-4.607-2.571-7.666-1.3" transform="translate(-384.007 -292.146)" fill="none" stroke="#1a1718" stroke-linecap="round" stroke-linejoin="round" stroke-width="1.5"/>
          <path id="Path_153891" data-name="Path 153891" d="M437.744,455.895s-2.691,2.994-2.284,4.528c0,0,8.129.726,11.619,1.94,0,0,2.228-2.276-5.063-5.247" transform="translate(-375.432 -313.767)" fill="none" stroke="#1a1718" stroke-linecap="round" stroke-linejoin="round" stroke-width="1.5"/>
          <path id="Path_153892" data-name="Path 153892" d="M399.536,432.085s-3.633-6.883-7.985-4.911S384.14,443,400.886,444.023" transform="translate(-357.523 -302.757)" fill="none" stroke="#1a1718" stroke-linecap="round" stroke-linejoin="round" stroke-width="1.5"/>
          <path id="Path_153893" data-name="Path 153893" d="M355.855,437.89s-4.1.767-4.624,3.562" transform="translate(-343.555 -306.95)" fill="none" stroke="#e67a9c" stroke-miterlimit="10" stroke-width="1"/>
          <path id="Path_153894" data-name="Path 153894" d="M391.881,400.432s2.372-3.4,6.324-2.731c0,0,2,3.33-1.046,5.414-1.589,1.054-4.225.567-5.278-2.675Z" transform="translate(-358.947 -291.699)" fill="none" stroke="#1a1718" stroke-linecap="round" stroke-linejoin="round" stroke-width="1.5"/>
          <path id="Path_153895" data-name="Path 153895" d="M382.988,364.791s6.668-9.255,12.88-2.627" transform="translate(-355.579 -277.371)" fill="none" stroke="#1a1718" stroke-linecap="round" stroke-linejoin="round" stroke-width="1.5"/>
          <path id="Path_153896" data-name="Path 153896" d="M351.976,372.68s-5.7-7.538-11.179-.631,2.116,3.833,6.029,5.222" transform="translate(-338.877 -280.916)" fill="none" stroke="#1a1718" stroke-linecap="round" stroke-linejoin="round" stroke-width="1.5"/>
          <path id="Path_153897" data-name="Path 153897" d="M372.655,400.708s.734-2.843,2.811-2.324" transform="translate(-351.667 -291.967)" fill="none" stroke="#1a1718" stroke-linecap="round" stroke-linejoin="round" stroke-width="1"/>
          <path id="Path_153898" data-name="Path 153898" d="M374.264,403.361a2.7,2.7,0,0,1,2.484-3.01" transform="translate(-352.269 -292.736)" fill="none" stroke="#1a1718" stroke-linecap="round" stroke-linejoin="round" stroke-width="1"/>
          <path id="Path_153899" data-name="Path 153899" d="M348.858,397S333.3,411.035,347.7,435.23a4.02,4.02,0,0,0,3.825,2.891c2.971-.088,1.078-3.306,8.641-2.891s4.256,3.506,7.123,2.891c8.936-1.765-3.122-14.446,0-28.428" transform="translate(-339.903 -291.466)" fill="none" stroke="#1a1718" stroke-linecap="round" stroke-linejoin="round" stroke-width="1.5"/>
          <path id="Path_153900" data-name="Path 153900" d="M398.764,421.511s-4.983-2.891-16.29-1.557" transform="translate(-355.385 -300.025)" fill="none" stroke="#1a1718" stroke-linecap="round" stroke-linejoin="round" stroke-width="1.5"/>
          <path id="Path_153901" data-name="Path 153901" d="M358.792,406.108s-5.094,2.891-4.647,14.6" transform="translate(-344.647 -294.916)" fill="none" stroke="#d4cce6" stroke-linecap="round" stroke-linejoin="round" stroke-width="1"/>
          <path id="Path_153902" data-name="Path 153902" d="M430.022,409.968c4.544,13.12.439,22.359-.511,26.408s-4.448,3.49-5.023.663-7.178-8.48-10.173-2.156c-2.364,7.866-5.718,4.44-5.718,4.44-10.621-10.365,1.309-33.227,1.309-33.227l-9.519.216" transform="translate(-362.168 -294.911)" fill="none" stroke="#1a1718" stroke-linecap="round" stroke-linejoin="round" stroke-width="1.5"/>
          <path id="Path_153903" data-name="Path 153903" d="M380.535,371.181c-.879-1.9-6.045.088-6.045.088-3.833-6.381-9.446-.679-11.962,0-4.017,0-19.764,6.811-5.27,19.348s24.515,1.389,24.515,1.389" transform="translate(-343.56 -280.591)" fill="none" stroke="#1a1718" stroke-linecap="round" stroke-linejoin="round" stroke-width="1.5"/>
          <ellipse id="Ellipse_2138" data-name="Ellipse 2138" cx="5.414" cy="5.35" rx="5.414" ry="5.35" transform="translate(82.427 91.229)" fill="#fff" stroke="#fff" stroke-linecap="round" stroke-linejoin="round" stroke-width="1.5"/>
          <ellipse id="Ellipse_2139" data-name="Ellipse 2139" cx="3.729" cy="3.681" rx="3.729" ry="3.681" transform="translate(95.707 88.898)" fill="#fff" stroke="#fff" stroke-linecap="round" stroke-linejoin="round" stroke-width="1.5"/>
          <ellipse id="Ellipse_2140" data-name="Ellipse 2140" cx="4.248" cy="4.2" rx="4.248" ry="4.2" transform="translate(82.427 91.98)" fill="#3e0e31" stroke="#1a1718" stroke-linecap="round" stroke-linejoin="round" stroke-width="1"/>
          <ellipse id="Ellipse_2141" data-name="Ellipse 2141" cx="2.627" cy="3.418" rx="2.627" ry="3.418" transform="translate(95.707 89.241)" fill="#3e0e31" stroke="#1a1718" stroke-linecap="round" stroke-linejoin="round" stroke-width="1"/>
          <ellipse id="Ellipse_2142" data-name="Ellipse 2142" cx="2.092" cy="1.932" rx="2.092" ry="1.932" transform="translate(83.657 92.715)" fill="#fff" stroke="#1a1718" stroke-linecap="round" stroke-linejoin="round" stroke-width="1"/>
          <ellipse id="Ellipse_2143" data-name="Ellipse 2143" cx="1.909" cy="1.893" rx="1.909" ry="1.893" transform="translate(96.29 89.576)" fill="#fff" stroke="#1a1718" stroke-linecap="round" stroke-linejoin="round" stroke-width="1"/>
          <path id="Path_153904" data-name="Path 153904" d="M377.654,462.715s-2.635.327-3.058,2A58.276,58.276,0,0,1,386.43,466.6s3.01-3.211-4.368-4.648" transform="translate(-352.402 -316.059)" fill="none" stroke="#1a1718" stroke-linecap="round" stroke-linejoin="round" stroke-width="1.5"/>
          <path id="Path_153905" data-name="Path 153905" d="M349.519,461.961s-4.176,1.19-4.456,3.09c0,0,8.5.631,12.369,2.316a4.437,4.437,0,0,0-4.6-4.639" transform="translate(-341.219 -316.064)" fill="none" stroke="#1a1718" stroke-linecap="round" stroke-linejoin="round" stroke-width="1.5"/>
          <path id="Path_153906" data-name="Path 153906" d="M463.965,451.281s-4.025,4.879-2.467,6.628c0,0,7.091-2.723,11.243-2.028,0,0,1.405-2.564-1.134-3.865" transform="translate(-385.171 -312.02)" fill="none" stroke="#1a1718" stroke-linecap="round" stroke-linejoin="round" stroke-width="1.5"/>
          <ellipse id="Ellipse_2144" data-name="Ellipse 2144" cx="5.67" cy="5.558" rx="5.67" ry="5.558" transform="translate(12.708 95.198)" fill="#fff" stroke="#fff" stroke-linecap="round" stroke-linejoin="round" stroke-width="1.5"/>
          <ellipse id="Ellipse_2145" data-name="Ellipse 2145" cx="4.264" cy="4.232" rx="4.264" ry="4.232" transform="translate(13.458 96.723)" fill="#3e0e31" stroke="#1a1718" stroke-linecap="round" stroke-linejoin="round" stroke-width="1"/>
          <path id="Path_153907" data-name="Path 153907" d="M349.374,415.31a11.033,11.033,0,0,0,.879,10.469A12.17,12.17,0,0,1,353.047,430c.168.479,1.741.83,1.741,1.613s-1.494.463-1.589.774a3.744,3.744,0,0,1-2.779,2.268c-.847-.015-1.414-.647-2.731-1.253-2.085-.959-4.448-3.538-6.109-10.581" transform="translate(-339.9 -298.4)" fill="none" stroke="#1a1718" stroke-linecap="round" stroke-linejoin="round" stroke-width="1.5"/>
          <ellipse id="Ellipse_2146" data-name="Ellipse 2146" cx="4.017" cy="4.256" rx="4.017" ry="4.256" transform="translate(27.4 91.133)" fill="#fff" stroke="#fff" stroke-linecap="round" stroke-linejoin="round" stroke-width="1.5"/>
          <ellipse id="Ellipse_2147" data-name="Ellipse 2147" cx="2.827" cy="3.41" rx="2.827" ry="3.41" transform="translate(27.935 92.291)" fill="#3e0e31" stroke="#1a1718" stroke-linecap="round" stroke-linejoin="round" stroke-width="1"/>
          <ellipse id="Ellipse_2148" data-name="Ellipse 2148" cx="1.781" cy="1.749" rx="1.781" ry="1.749" transform="translate(14.951 97.642)" fill="#fff" stroke="#1a1718" stroke-linecap="round" stroke-linejoin="round" stroke-width="1"/>
          <ellipse id="Ellipse_2149" data-name="Ellipse 2149" cx="1.733" cy="1.701" rx="1.733" ry="1.701" transform="translate(27.951 93.25)" fill="#fff" stroke="#1a1718" stroke-linecap="round" stroke-linejoin="round" stroke-width="1"/>
          <ellipse id="Ellipse_2150" data-name="Ellipse 2150" cx="29.075" cy="26.16" rx="29.075" ry="26.16" transform="translate(166.05 104.589) rotate(-74.51)" fill="#e67a9c" stroke="#1a1718" stroke-linecap="round" stroke-linejoin="round" stroke-width="2"/>
          <ellipse id="Ellipse_2151" data-name="Ellipse 2151" cx="23.565" cy="20.634" rx="23.565" ry="20.634" transform="translate(172.171 100.567) rotate(-74.51)" fill="#fff" stroke="#1a1718" stroke-linecap="round" stroke-linejoin="round" stroke-width="2"/>
          <ellipse id="Ellipse_2152" data-name="Ellipse 2152" cx="24.1" cy="19.804" rx="24.1" ry="19.804" transform="translate(124.684 96.592) rotate(-76.34)" fill="#e67a9c" stroke="#1a1718" stroke-linecap="round" stroke-linejoin="round" stroke-width="2"/>
          <ellipse id="Ellipse_2153" data-name="Ellipse 2153" cx="18.973" cy="15.132" rx="18.973" ry="15.132" transform="translate(130.084 92.26) rotate(-75.94)" fill="#fff" stroke="#1a1718" stroke-linecap="round" stroke-linejoin="round" stroke-width="2"/>
          <ellipse id="Ellipse_2154" data-name="Ellipse 2154" cx="21.049" cy="17.903" rx="21.049" ry="17.903" transform="matrix(0.257, -0.966, 0.966, 0.257, 178.505, 99.493)" fill="#3e0e31" stroke="#1a1718" stroke-linecap="round" stroke-linejoin="round" stroke-width="2"/>
          <ellipse id="Ellipse_2155" data-name="Ellipse 2155" cx="16.761" cy="13.375" rx="16.761" ry="13.375" transform="translate(134.373 89.894) rotate(-75.94)" fill="#3e0e31" stroke="#1a1718" stroke-linecap="round" stroke-linejoin="round" stroke-width="2"/>
          <ellipse id="Ellipse_2156" data-name="Ellipse 2156" cx="5.43" cy="6.62" rx="5.43" ry="6.62" transform="translate(197.951 70.947)" fill="#fff" stroke="#1a1718" stroke-linecap="round" stroke-linejoin="round" stroke-width="2"/>
          <ellipse id="Ellipse_2157" data-name="Ellipse 2157" cx="4.32" cy="5.749" rx="4.32" ry="5.749" transform="translate(148.41 67.768)" fill="#fff" stroke="#1a1718" stroke-linecap="round" stroke-linejoin="round" stroke-width="2"/>
          <line id="Line_3404" data-name="Line 3404" x2="2.779" y2="0.639" transform="translate(170.322 77.519)" fill="none" stroke="#1a1718" stroke-linecap="round" stroke-linejoin="round" stroke-width="2"/>
          <path id="Path_153908" data-name="Path 153908" d="M681.888,297.4s37.491-41.348,41-38.952-34.481,44.095-34.481,44.095c-2.2-1.741-3.881-3.066-6.524-5.151Z" transform="translate(-468.757 -238.967)" fill="#e67a9c" stroke="#1a1718" stroke-linecap="round" stroke-linejoin="round" stroke-width="2"/>
          <path id="Path_153909" data-name="Path 153909" d="M783.7,728.835c-12.465,21.9-25.689,12.92-25.689,12.92" transform="translate(-497.579 -417.115)" fill="none" stroke="#1a1718" stroke-linecap="round" stroke-linejoin="round" stroke-width="2"/>
          <path id="Path_153910" data-name="Path 153910" d="M492.663,454.9a2.23,2.23,0,0,0-1.134,3.362c5.358-.774,12.648,1.94,12.057,1.765a5.427,5.427,0,0,0-5.055-5.207" transform="translate(-396.532 -313.358)" fill="none" stroke="#1a1718" stroke-linecap="round" stroke-linejoin="round" stroke-width="1.5"/>
          <path id="Path_153911" data-name="Path 153911" d="M456.794,402.741s4.839,1.254,6.468,2.635" transform="translate(-383.526 -293.641)" fill="none" stroke="#1a1718" stroke-linecap="round" stroke-linejoin="round" stroke-width="1.5"/>
          <path id="Path_153912" data-name="Path 153912" d="M465.178,367.489s-7.889-6.292-9.894,1.477,2.069,5.71,5.127,4.831" transform="translate(-382.751 -279.382)" fill="none" stroke="#1a1718" stroke-linecap="round" stroke-linejoin="round" stroke-width="1.5"/>
          <path id="Path_153913" data-name="Path 153913" d="M492.624,401.164a1.955,1.955,0,0,1,2.164-1.669" transform="translate(-397.093 -292.407)" fill="none" stroke="#1a1718" stroke-linecap="round" stroke-linejoin="round" stroke-width="1.5"/>
          <path id="Path_153914" data-name="Path 153914" d="M494.372,400.878s2,4.176,7.29,2.515" transform="translate(-397.755 -292.935)" fill="none" stroke="#1a1718" stroke-linecap="round" stroke-linejoin="round" stroke-width="1.5"/>
          <path id="Path_153915" data-name="Path 153915" d="M430.423,404.673A1.955,1.955,0,0,1,432.587,403" transform="translate(-373.54 -293.736)" fill="none" stroke="#1a1718" stroke-linecap="round" stroke-linejoin="round" stroke-width="1.5"/>
          <path id="Path_153916" data-name="Path 153916" d="M432.157,404.373s2,4.177,7.291,2.516" transform="translate(-374.197 -294.259)" fill="none" stroke="#1a1718" stroke-linecap="round" stroke-linejoin="round" stroke-width="1.5"/>
          <path id="Path_153917" data-name="Path 153917" d="M376.035,409.3a1.893,1.893,0,0,1,2.092-1.6" transform="translate(-352.947 -295.513)" fill="none" stroke="#1a1718" stroke-linecap="round" stroke-linejoin="round" stroke-width="1.5"/>
          <path id="Path_153918" data-name="Path 153918" d="M377.719,409.025s1.941,4.009,7.059,2.412" transform="translate(-353.584 -296.02)" fill="none" stroke="#1a1718" stroke-linecap="round" stroke-linejoin="round" stroke-width="1.5"/>
          <path id="Path_153919" data-name="Path 153919" d="M693.338,766.657S713.31,748.762,745.9,747.6s39.735,11.65,39.735,11.65-15.811-4.065-26.911-2.156-46.067,17.264-46.067,17.264l10.389-9.846-20.938,7.123,9.623-9.99-18.39,5.007Z" transform="translate(-473.093 -424.194)" fill="#e67a9c"/>
          <path id="Path_153920" data-name="Path 153920" d="M736.7,760.488c-19.372,2.994-30.017,13.671-31.278,16.945,0,0,.734-.336,1.988-.886,13.2-5.59,12.417-4.855,20.538-7.474" transform="translate(-477.667 -429.1)" fill="none" stroke="#1a1718" stroke-linecap="round" stroke-linejoin="round" stroke-width="2"/>
          <path id="Path_153921" data-name="Path 153921" d="M740.088,758.247c-14.549,3.6-20.067,6.484-28.731,17.8-.639.128,39.751-19.26,51.1-19.388s16.162.726,23.165,2.643c-3.857-13.064-61.687-20.467-92.294,7.4,0,0,13.431-4.855,19.388-4.855" transform="translate(-473.088 -424.24)" fill="none" stroke="#1a1718" stroke-linecap="round" stroke-linejoin="round" stroke-width="2"/>
          <line id="Line_3405" data-name="Line 3405" x2="0.359" y2="0.823" transform="translate(10.384 134.757)" fill="none" stroke="#1a1718" stroke-linecap="round" stroke-linejoin="round" stroke-width="1.5"/>
          <line id="Line_3406" data-name="Line 3406" x2="0.415" y2="1.158" transform="translate(11.885 133.919)" fill="none" stroke="#1a1718" stroke-linecap="round" stroke-linejoin="round" stroke-width="1.5"/>
          <path id="Path_153922" data-name="Path 153922" d="M502.113,377.281a5.787,5.787,0,0,0,2.4-3.873c0-2.531-.431-4.24-3.745-4.839" transform="translate(-400.178 -280.702)" fill="none" stroke="#1a1718" stroke-linecap="round" stroke-linejoin="round" stroke-width="1.5"/>
          <path id="Path_153923" data-name="Path 153923" d="M392.952,372.733a5.263,5.263,0,0,1,2.364,4.935,5.533,5.533,0,0,1-2.715,4.9,10.661,10.661,0,0,0,5.877,5.71" transform="translate(-359.219 -282.278)" fill="none" stroke="#1a1718" stroke-linecap="round" stroke-linejoin="round" stroke-width="1.5"/>
        </g>
      </g>
    </g>
  </g>
</svg>
