<svg xmlns="http://www.w3.org/2000/svg" xmlns:xlink="http://www.w3.org/1999/xlink" width="540" height="540" viewBox="0 0 540 540">
  <defs>
    <clipPath id="clip-path">
      <rect id="Rectangle_17192" data-name="Rectangle 17192" width="420.591" height="394.605" fill="none"/>
    </clipPath>
    <clipPath id="clip-Activity_1_1">
      <rect width="540" height="540"/>
    </clipPath>
  </defs>
  <g id="Activity_1_1" data-name="Activity 1 – 1" clip-path="url(#clip-Activity_1_1)">
    <rect width="540" height="540" fill="#d6eeef"/>
    <path id="Path_154215" data-name="Path 154215" d="M2326.911,423.7c-61.465-32.217-87.506-30.965-152.377-15.482s-134.265,13.7-184.339,3.568-48.007-2.53-86.839,0-32.225-3.1-70.39-5.914-4.4-.468-48.441-1.876-80-38-165.138-27.68-182.019,119.635-182.019,119.635V665.659l966.607-4v-165.7s-40.367-53.014-77.064-72.25" transform="translate(-1701.894 -125.659)" fill="rgba(173,229,227,0.65)"/>
    <path id="Path_153569" data-name="Path 153569" d="M563.882,778.485q9.363-.66,18.666-1.666,4.24-.459,8.458-.989l.015,0h.018q8.288-.46,16.562-1.044,1.207-.085,2.413-.172c33.538-2.443,67.924-5.965,100.34-12,13.957-2.593,28.1-6.391,37.844-12.761a34.014,34.014,0,0,0,9.036-8.216,13.933,13.933,0,0,0,3.015-8.947,10.755,10.755,0,0,0-.53-2.734c-1.192-3.6-2.335-5.768-4.084-7.314s-4.206-2.522-8.068-3.49c-7.724-1.936-20.92-3.85-44.847-10.951-24.181-7.181-62.078-6.466-98.021-3.929l-.144.009c-27.476,1.939-53.807,4.925-72.064,6.214-4.788.338-9.022.56-12.58.613q-4.969.077-9.674.414c-29.722,2.1-70.087-5.816-94.771,1.983-10.864,3.421-22.087,8.071-27.922,14.238-2.551,2.694-3.622,5.432-3.464,8.027a9.406,9.406,0,0,0,1.784,4.829,17.414,17.414,0,0,0,4.844,4.49l-.28.585.28-.585c7.972,5.214,20.209,7.808,31.887,9.925a462.724,462.724,0,0,0,46.418,5.967c33.769,1.01,59.565,17.629,94.869,17.5" transform="translate(-317.534 -298.064)" fill="rgba(87,189,185,0.3)"/>
    <g id="Group_20298" data-name="Group 20298" transform="translate(73.023 59.578)">
      <g id="Group_20297" data-name="Group 20297" transform="translate(0 0)" clip-path="url(#clip-path)">
        <path id="Path_155419" data-name="Path 155419" d="M238.044,438.561s-3.316,10.469,8.16,18.2c0,0-18.62,3-16.725,13.262A72.3,72.3,0,0,1,244,464.19c5.654-1.57,12.839-2.286,16.967-1.843,10.125,1.086,28.365,3.036,44.965,12.448,0,0,.209-9.6-11.783-14.078,0,0,7.249-1.167,24.591,10.344,0,0-2.757-9.668-9.048-14.19,0,0,13.355.694,14.867,2.494,0,0-9.414-11.4-29.658-12.3s-26.5,4.36-26.5,4.36,18-4.99,19.08-17.447-5.724-15.428-11.323-17.155c0,0-9.007-4.161-22.428,2.061A28.609,28.609,0,0,0,238.044,438.561Z" transform="translate(-52.006 -94.21)" fill="#869cc6"/>
        <path id="Path_155420" data-name="Path 155420" d="M250.6,457.569a.806.806,0,0,1-.2-.025c-.142-.038-14.112-3.929-10.935-19.29.115-1.015,2.177-16.659,18.815-21.617,15.762-4.7,27.976-.971,31.872,9.728a15.2,15.2,0,0,1-1.3,13.9c-2.764,4.291-7.756,7.773-14.837,10.347a.773.773,0,1,1-.528-1.453c6.757-2.457,11.489-5.73,14.064-9.73a13.54,13.54,0,0,0,1.149-12.54c-3.643-10-14.849-13.282-29.978-8.775A24.859,24.859,0,0,0,241,438.445a.663.663,0,0,1-.012.087c-1.224,5.875.051,10.6,3.791,14.054a16.056,16.056,0,0,0,6.019,3.462.773.773,0,0,1-.2,1.521" transform="translate(-54.195 -94.024)" fill="#231f20"/>
        <path id="Path_155421" data-name="Path 155421" d="M305.814,487.283a.779.779,0,0,1-.321-.07c-19.338-8.818-34.5-12.822-47.661-12.611-10.314.167-19.821,3.762-28.558,7.622a.774.774,0,0,1-1.079-.814c1.227-8.84,7.863-10.621,12.254-11.8,1.908-.512,3.554-.953,4.115-1.74a.774.774,0,1,1,1.259.9c-.883,1.237-2.778,1.745-4.973,2.334-4.192,1.124-9.345,2.5-10.868,9.12,8.52-3.7,17.763-7.006,27.824-7.169,13.179-.193,28.149,3.671,47.138,12.211-.632-4.508-4.31-8.721-10.291-11.709-6.789-3.394-14.682-4.171-17.972-1.772a.773.773,0,0,1-.911-1.249c3.776-2.755,12.192-2.052,19.574,1.638,7.067,3.531,11.164,8.752,11.242,14.324a.774.774,0,0,1-.773.784" transform="translate(-51.744 -106.021)" fill="#231f20"/>
        <path id="Path_155422" data-name="Path 155422" d="M333.747,482.232a.778.778,0,0,1-.418-.122c-.186-.119-18.637-11.914-25.558-11.238a.773.773,0,0,1-.151-1.54c6.066-.6,19.415,7.107,24.525,10.219-2.989-6.844-7.384-11.6-13.085-14.163-10.485-4.708-21.976-.333-22.091-.287a.774.774,0,0,1-.562-1.441c.493-.192,12.187-4.656,23.274.312,6.685,3,11.662,8.789,14.79,17.218a.773.773,0,0,1-.725,1.042" transform="translate(-67.102 -104.68)" fill="#231f20"/>
        <path id="Path_155423" data-name="Path 155423" d="M336.233,469.65a.79.79,0,0,1-.206-.028,97.834,97.834,0,0,0-17.222-3.5.774.774,0,1,1,.174-1.538,90.662,90.662,0,0,1,14.138,2.658c-24.512-19.486-54.546-5.911-54.858-5.765a.773.773,0,0,1-.652-1.4c.331-.154,33.44-15.149,59.145,8.233a.773.773,0,0,1-.52,1.345" transform="translate(-62.849 -103.22)" fill="#231f20"/>
        <path id="Path_155424" data-name="Path 155424" d="M307.591,227.086s37,20.039,62.651,22.746l-7.3,23.69s-13.642,2.123-25.149.217l-25.5-4.223s-1.2-32.786-4.7-42.43" transform="translate(-69.749 -51.494)" fill="#f1a68b"/>
        <path id="Path_155425" data-name="Path 155425" d="M503.9,145.507l-4.115-4.748-90.8,9.275L379.175,256.266l4.377,5.055,30.3-106.089Z" transform="translate(-85.982 -31.918)" fill="#bab0d5"/>
        <path id="Path_155426" data-name="Path 155426" d="M365.023,247.275a.855.855,0,0,1-.1-.006c-40.13-5.156-79.635-33.187-80.03-33.47a.773.773,0,0,1,.9-1.257c.392.28,39.589,28.088,79.326,33.193a.773.773,0,0,1-.1,1.54" transform="translate(-64.529 -48.163)" fill="#231f20"/>
        <path id="Path_155427" data-name="Path 155427" d="M384.836,262.1l30.076-105.509,91.4-9.846L464.776,250.038Z" transform="translate(-87.265 -33.275)" fill="#ded6ea"/>
        <path id="Path_155428" data-name="Path 155428" d="M384.609,262.645a.774.774,0,0,1-.744-.986l30.076-105.509a.773.773,0,0,1,.66-.557l91.4-9.846a.763.763,0,0,1,.7.3.772.772,0,0,1,.1.755L465.266,250.1a.774.774,0,0,1-.6.476l-79.938,12.061a.833.833,0,0,1-.116.009m30.677-105.57-29.6,103.852L464,249.113l40.89-101.69Z" transform="translate(-87.039 -33.049)" fill="#231f20"/>
        <path id="Path_155429" data-name="Path 155429" d="M342.821,284.117c-37.649,0-63.064-15.046-63.345-15.217a.773.773,0,1,1,.8-1.325c.311.188,31.588,18.685,76.132,14.333a.773.773,0,1,1,.152,1.539c-4.732.462-9.321.67-13.737.67" transform="translate(-63.289 -60.65)" fill="#231f20"/>
        <path id="Path_155430" data-name="Path 155430" d="M447.89,117.418a.772.772,0,0,1-.715-.478c-1.543-3.728-10.161-11.742-10.249-11.822a.773.773,0,0,1,1.052-1.134c.364.338,8.955,8.327,10.626,12.365a.774.774,0,0,1-.714,1.069" transform="translate(-99.021 -23.532)" fill="#231f20"/>
        <path id="Path_155431" data-name="Path 155431" d="M491.956,108.944a.742.742,0,0,1-.148-.015.772.772,0,0,1-.612-.906,46.961,46.961,0,0,0,.35-14.927.773.773,0,1,1,1.523-.26,47.536,47.536,0,0,1-.356,15.483.772.772,0,0,1-.758.626" transform="translate(-111.38 -20.906)" fill="#231f20"/>
        <path id="Path_155432" data-name="Path 155432" d="M534.568,116.486a.774.774,0,0,1-.549-1.318c4.947-4.984,6.065-12.714,6.076-12.792a.773.773,0,0,1,1.532.213c-.046.337-1.2,8.322-6.51,13.669a.773.773,0,0,1-.549.228" transform="translate(-121.043 -23.063)" fill="#231f20"/>
        <path id="Path_155433" data-name="Path 155433" d="M407.925,137.489a.774.774,0,0,1-.65-.353c-2.667-4.111-9.206-7.928-10.973-8.776a.719.719,0,0,1-.577-.135.927.927,0,0,1-.448-.961.8.8,0,0,1,.636-.589c1.023-.193,9.562,4.844,12.66,9.62a.773.773,0,0,1-.648,1.194" transform="translate(-89.628 -28.724)" fill="#231f20"/>
        <path id="Path_155434" data-name="Path 155434" d="M417.732,281.248s11.331-2.736,12.467-4,1.687-29.164,11.222-29.133l2.559.906-1.393,9.665s5.66-8.872,11.6-7.459l-3.138,16.427s5.866-13.628,10.927-12.592l1.454,1.563s-4.226,12.688-4.89,17.491-1.826,7.269-6.147,8.544S429.289,286.687,417.732,281.248Z" transform="translate(-94.725 -56.263)" fill="#869cc6"/>
        <path id="Path_155435" data-name="Path 155435" d="M440.567,287.032c-10.945,0-23.618-2.921-24.38-3.1a.773.773,0,1,1,.352-1.505c.264.061,26.54,6.119,35.686,1,4-2.236,4.807-6.122,5.925-11.5a56.315,56.315,0,0,1,3.845-12.765,1.2,1.2,0,0,0,.016-1.22,1.838,1.838,0,0,0-1.818-.25c-3.375.861-8.2,6.314-10.694,18.85a.773.773,0,1,1-1.516-.3c2.628-13.228,7.834-19.029,11.828-20.047a3.247,3.247,0,0,1,3.388.758,2.619,2.619,0,0,1,.2,2.856,55,55,0,0,0-3.736,12.435c-1.157,5.56-2.069,9.953-6.684,12.534-2.985,1.669-7.527,2.251-12.413,2.251" transform="translate(-94.239 -58.06)" fill="#231f20"/>
        <path id="Path_155436" data-name="Path 155436" d="M422.145,155.779a.772.772,0,0,1-.577-.258l-4.639-5.2a.773.773,0,0,1,.5-1.284l90.8-9.275a.772.772,0,0,1,.591.189l5.239,4.628a.773.773,0,1,1-1.024,1.159l-4.986-4.4-88.955,9.087,3.63,4.068a.773.773,0,0,1-.577,1.288" transform="translate(-94.498 -31.692)" fill="#231f20"/>
        <path id="Path_155437" data-name="Path 155437" d="M383.326,264.008a.772.772,0,0,1-.553-.233L378.4,259.3a.773.773,0,0,1-.192-.75l29.815-106.232a.773.773,0,1,1,1.489.418l-29.693,105.8,4.066,4.156a.773.773,0,0,1-.553,1.314" transform="translate(-85.755 -34.412)" fill="#231f20"/>
        <path id="Path_155438" data-name="Path 155438" d="M456.657,274.117a.783.783,0,0,1-.1-.007.772.772,0,0,1-.665-.868c.091-.69,2.253-16.94,4.392-20.434.025-.039.042-.073.058-.1a7.014,7.014,0,0,0-3.689,1.021c-1.454.752-6.228,3.659-6.589,9.52a.773.773,0,1,1-1.543-.1c.432-7.036,6.4-10.7,9.5-11.66,1.034-.319,2.884-.709,3.647.275a1.525,1.525,0,0,1-.066,1.849c-1.635,2.669-3.571,15.219-4.179,19.829a.773.773,0,0,1-.766.672" transform="translate(-101.706 -56.949)" fill="#231f20"/>
        <path id="Path_155439" data-name="Path 155439" d="M419.618,282.137a.773.773,0,0,1-.347-1.465,45.106,45.106,0,0,1,6.046-2.376c2.536-.849,4.74-1.588,5.5-2.818.258-23.384,9.381-27.9,10.423-28.333,1.334-.561,2.5-.494,3.207.185a2.192,2.192,0,0,1,.352,2.448c-1.084,2.559-1.724,16.964-1.878,22.3a.8.8,0,0,1-.8.751.775.775,0,0,1-.751-.8c.023-.8.584-19.517,1.989-22.829.127-.339.136-.642.012-.761-.152-.145-.687-.231-1.536.126-3.443,1.448-9.316,8.79-9.478,27.119a.768.768,0,0,1-.084.343c-.956,1.884-3.388,2.7-6.467,3.731a43.75,43.75,0,0,0-5.846,2.292.769.769,0,0,1-.346.082" transform="translate(-94.977 -55.957)" fill="#231f20"/>
        <path id="Path_155440" data-name="Path 155440" d="M201.76,61.072a69.567,69.567,0,0,1,5.111,19.322,52.272,52.272,0,0,0,5.643-1.754" transform="translate(-45.751 -13.849)" fill="#e0d6be"/>
        <path id="Path_155441" data-name="Path 155441" d="M241.92,82.277s30.855-22.406,54.692-.645c-4.083,3.118-23.636-9.9-39.438,6.2" transform="translate(-54.858 -16.355)" fill="#e0d6be"/>
        <path id="Path_155442" data-name="Path 155442" d="M256.947,88.4a.774.774,0,0,1-.552-1.315c11.176-11.385,23.956-8.644,32.41-6.832a24.99,24.99,0,0,0,6.088.885c-22.958-19.621-52.446,1.342-52.745,1.559a.773.773,0,0,1-.908-1.252c.313-.228,31.643-22.524,55.667-.59a.773.773,0,0,1-.052,1.185c-1.556,1.188-4.417.575-8.374-.274-8.124-1.742-20.4-4.376-30.981,6.4a.773.773,0,0,1-.552.231" transform="translate(-54.631 -16.146)" fill="#231f20"/>
        <path id="Path_155443" data-name="Path 155443" d="M231.605,74.08s23.486-29.211,47.038-32C273,36.251,240.6,41.043,216.481,73.011l-1.29.131" transform="translate(-48.797 -9.058)" fill="#e0d6be"/>
        <path id="Path_155444" data-name="Path 155444" d="M231.378,74.626a.773.773,0,0,1-.6-1.257,132.772,132.772,0,0,1,14.783-15.054c7.68-6.665,19.071-14.814,30.734-16.922a17.735,17.735,0,0,0-7.5-.844c-13.185.81-34.695,9.86-51.925,32.7a.772.772,0,0,1-.539.3l-1.291.131a.773.773,0,1,1-.156-1.539l.955-.1C233.355,48.984,255.241,39.831,268.7,39c4.894-.3,8.537.521,10.271,2.313a.773.773,0,0,1-.465,1.305c-22.964,2.716-46.294,31.424-46.527,31.714a.773.773,0,0,1-.6.289" transform="translate(-48.57 -8.831)" fill="#231f20"/>
        <path id="Path_155445" data-name="Path 155445" d="M211.769,65.251s2.822-39.692,18.808-62.22c0,0-22.6,7.473-29.838,45.04" transform="translate(-45.52 -0.687)" fill="#e0d6be"/>
        <path id="Path_155446" data-name="Path 155446" d="M211.542,65.8l-.056,0a.774.774,0,0,1-.717-.827A187.263,187.263,0,0,1,214.195,42.2c2.324-10.949,6.6-26.029,13.976-37.546-5.958,3.172-21.239,13.978-26.9,43.335a.773.773,0,1,1-1.519-.293c3.779-19.6,11.791-30.941,17.847-37.006,6.608-6.618,12.27-8.541,12.508-8.62a.773.773,0,0,1,.873,1.182c-8.178,11.524-12.817,27.7-15.268,39.249a185.177,185.177,0,0,0-3.4,22.579.774.774,0,0,1-.771.718" transform="translate(-45.293 -0.461)" fill="#231f20"/>
        <path id="Path_155447" data-name="Path 155447" d="M183.356,73.551C185.027,52.19,164.975,14.46,160.2,1c12.9,3.374,41.042,63.707,37.246,65.773" transform="translate(-36.327 -0.227)" fill="#e0d6be"/>
        <path id="Path_155448" data-name="Path 155448" d="M183.131,74.1l-.061,0a.773.773,0,0,1-.711-.831c1.25-16-10.014-41.709-17.468-58.723-2.4-5.488-4.48-10.227-5.645-13.509A.773.773,0,0,1,160.17.025c12.405,3.245,36.862,54.368,38.117,64.659.106.871.149,2.081-.7,2.542a.773.773,0,0,1-.831-1.3c.371-.963-.97-6.545-6.232-18.286C181.77,28.1,169.006,6.5,161.32,2.171c1.2,3.1,2.977,7.16,4.987,11.749C173.823,31.075,185.182,57,183.9,73.384a.773.773,0,0,1-.77.713m13.72-8.23h0" transform="translate(-36.1 0)" fill="#231f20"/>
        <path id="Path_155449" data-name="Path 155449" d="M165.461,85.175c-22.516-45.183-37.584-50.892-46.673-60.515,35.9,9.964,54.439,44.972,54.439,44.972l.738,9.284-8.5,6.259" transform="translate(-26.936 -5.592)" fill="#e0d6be"/>
        <path id="Path_155450" data-name="Path 155450" d="M165.234,85.722a.851.851,0,0,1-.182-.022.774.774,0,0,1-.51-.407C146.9,49.884,134.07,39.007,124.7,31.065a82.093,82.093,0,0,1-6.7-6.1.773.773,0,0,1,.769-1.275c35.807,9.938,54.728,45,54.915,45.355a.768.768,0,0,1,.087.3l.739,9.283a.777.777,0,0,1-.312.685l-8.5,6.259a.774.774,0,0,1-.459.151m-43.9-59.646c1.335,1.234,2.784,2.464,4.371,3.809,9.4,7.967,22.235,18.853,39.812,53.9l7.418-5.458-.692-8.691c-1.28-2.325-18.779-33.105-50.909-43.555" transform="translate(-26.71 -5.365)" fill="#231f20"/>
        <path id="Path_155451" data-name="Path 155451" d="M146.628,99.912C109.319,52.025,78.567,43.6,78.567,43.6c46.953,2.225,77.24,47.554,77.24,47.554" transform="translate(-17.816 -9.886)" fill="#e0d6be"/>
        <path id="Path_155452" data-name="Path 155452" d="M146.4,100.459a.774.774,0,0,1-.611-.3c-19.207-24.654-36.614-38.592-47.835-45.944-12.11-7.934-19.745-10.08-19.82-10.1a.773.773,0,0,1,.24-1.519c46.8,2.218,77.541,47.441,77.847,47.9a.773.773,0,1,1-1.286.859c-.289-.432-28.284-41.59-71.276-46.762,10.333,4.563,35.122,18.385,63.352,54.618a.774.774,0,0,1-.61,1.249" transform="translate(-17.589 -9.659)" fill="#231f20"/>
        <path id="Path_155453" data-name="Path 155453" d="M133.269,118.284C108.34,91.716,85.405,75.233,49.977,74.626c54.6-12.56,90.681,32.807,90.681,32.807" transform="translate(-11.333 -16.424)" fill="#e0d6be"/>
        <path id="Path_155454" data-name="Path 155454" d="M133.042,118.837a.769.769,0,0,1-.564-.244c-24.725-26.35-47.191-42.8-82.741-43.413a.774.774,0,0,1-.16-1.527c28.46-6.546,51.813,2.8,66.394,11.79a106.332,106.332,0,0,1,25.065,21.29.773.773,0,1,1-1.21.963,104.774,104.774,0,0,0-24.712-20.964c-13.208-8.137-33.739-16.565-58.752-12.8,32.342,2.43,53.8,18.617,77.244,43.6a.773.773,0,0,1-.564,1.3" transform="translate(-11.106 -16.204)" fill="#231f20"/>
        <path id="Path_155455" data-name="Path 155455" d="M124.521,142.917c-34.694-37.317-79.61-40.946-79.61-40.946,33.981-12.5,85.52,23.352,85.52,23.352" transform="translate(-10.184 -22.523)" fill="#e0d6be"/>
        <path id="Path_155456" data-name="Path 155456" d="M124.294,143.472a.77.77,0,0,1-.566-.247c-34.076-36.653-78.66-40.667-79.106-40.7a.773.773,0,0,1-.2-1.5c17.793-6.544,40.315.2,56.076,7.006a193.9,193.9,0,0,1,30.153,16.438.773.773,0,0,1-.883,1.27c-.5-.343-48.341-33.24-81.527-24.3,11.283,1.754,47.7,9.626,76.625,40.737a.774.774,0,0,1-.566,1.3" transform="translate(-9.957 -22.305)" fill="#231f20"/>
        <path id="Path_155457" data-name="Path 155457" d="M75.919,274.958s19.016-25.421,55.042-36.567l-2.286-16.5S78.882,234.326,75.919,274.958Z" transform="translate(-17.215 -50.316)" fill="#e0d6be"/>
        <path id="Path_155458" data-name="Path 155458" d="M75.692,275.5a.766.766,0,0,1-.271-.049.774.774,0,0,1-.5-.78c1.23-16.867,10.859-31.517,27.844-42.366a97.231,97.231,0,0,1,25.5-11.394.773.773,0,0,1,.953.644l2.286,16.5a.773.773,0,0,1-.538.844C95.612,249.84,76.5,274.942,76.311,275.195a.775.775,0,0,1-.619.309M127.8,222.645c-6.339,1.825-46.727,14.793-51.091,49.627a120.14,120.14,0,0,1,53.166-34.651Z" transform="translate(-16.988 -50.089)" fill="#231f20"/>
        <path id="Path_155459" data-name="Path 155459" d="M127.665,354.837s-29.679,11.875-42.389,32.031c1.4-21.706,14.767-33.061,44.766-47.1" transform="translate(-19.337 -77.046)" fill="#e0d6be"/>
        <path id="Path_155460" data-name="Path 155460" d="M85.049,387.414a.773.773,0,0,1-.772-.823c1.488-23.053,17.038-34.568,45.211-47.748a.772.772,0,1,1,.655,1.4c-26.979,12.624-41.521,23.05-44.044,43.468,13.465-18.621,40.765-29.7,41.051-29.818a.774.774,0,0,1,.575,1.437c-.294.117-29.594,12.017-42.022,31.725a.773.773,0,0,1-.654.361" transform="translate(-19.11 -76.819)" fill="#231f20"/>
        <path id="Path_155461" data-name="Path 155461" d="M123.3,153.126c-47.989-27.866-81.183-12.658-81.183-12.658,43.683.226,78.618,27.95,78.618,27.95s-46.44-11.995-69.972,16.3c0,0,35.206-18.934,67.621-1.045" transform="translate(-9.549 -30.913)" fill="#e0d6be"/>
        <path id="Path_155462" data-name="Path 155462" d="M50.532,185.266a.774.774,0,0,1-.6-1.268c19.77-23.77,55.82-19.4,67.214-17.3-9.2-6.443-39.444-25.5-75.269-25.686a.773.773,0,0,1-.318-1.476c.345-.158,8.608-3.872,22.9-4.19,13.148-.295,34.048,2.4,58.992,16.884a.773.773,0,1,1-.776,1.337C98.09,139.29,77.52,136.618,64.592,136.891a71.319,71.319,0,0,0-18.465,2.685c41.481,1.894,74.516,27.74,74.857,28.01a.773.773,0,0,1-.674,1.354c-.443-.114-43.035-10.74-66.646,13.242,9.775-4.19,38.381-14.024,64.861.589a.773.773,0,1,1-.748,1.353c-31.678-17.481-66.532.861-66.88,1.05a.784.784,0,0,1-.366.091" transform="translate(-9.323 -30.687)" fill="#231f20"/>
        <path id="Path_155463" data-name="Path 155463" d="M130.389,407.008s-12.358,25.958-7.519,42.5c0,0,1.191-12.425,12.044-25.8" transform="translate(-27.607 -92.293)" fill="#e0d6be"/>
        <path id="Path_155464" data-name="Path 155464" d="M122.641,450.054a.773.773,0,0,1-.742-.557c-2.049-7-1.395-16.385,1.944-27.885a112.663,112.663,0,0,1,5.618-15.163.773.773,0,0,1,1.4.665c-.114.237-10.446,22.209-8.257,38.217a58.062,58.062,0,0,1,11.484-22.338.773.773,0,1,1,1.2.974c-10.584,13.043-11.863,25.266-11.875,25.388a.773.773,0,0,1-.7.7.589.589,0,0,1-.073,0" transform="translate(-27.377 -92.066)" fill="#231f20"/>
        <path id="Path_155465" data-name="Path 155465" d="M243.965,100.275s-16.148-26.71-52.127-21.465c-11.091,2.536-16.737,5.655-21.9,9.306-5.339,3.772-10.11,8.171-16.134,16.847-20.314,27.661-16.353,93.08-12.235,128.722-1.294,32.584-12.073,46.384-15.443,61.266-10.068,32.153,4.08,51.944,21.617,62.832,19.361,10.272,49.576,15.454,70.812,5.664,17.625-7.163,36.914-20.7,47.9-58.857,6.784-32.648,5.4-52.558,3.937-68.852s-4.028-48.034-12.326-71.317c-14.336-1.35-38.421-2.892-50.4-7.747-32.107-13.01-56.329-26.225-19.991-63.171C218.374,69.419,243.965,100.275,243.965,100.275Z" transform="translate(-27.838 -17.716)" fill="#f1a68b"/>
        <path id="Path_155466" data-name="Path 155466" d="M215.325,85.7c-27.193,2.293-44.8,26.457-49.441,57.84-3.077,28.294,7.04,61.688,4.846,91.017,1.593,41.138-46.5,82.942,3.364,107.959,13.407,7.565,34.186,11.082,56.484,5.027s29.948-24.033,36.859-51.843,4.379-49.351,3.842-69.217-5.024-45.981-10.5-59.766c-7.181.307-11.83.2-26.238-.9-6.928-1.7-23.033-6.648-21.734-11.678,22.7,5.427,59.034-19.615,52.136-31.226C260.419,112.184,242.518,83.41,215.325,85.7Z" transform="translate(-34.332 -19.405)" fill="#d6c7a6"/>
        <path id="Path_155467" data-name="Path 155467" d="M254.061,207.2s-4.358-9.967-10.477-7.035c0,0-8.274-3.148-11.015,1.108,0,0,8.208,7.978,14.183,7.893S254.061,207.2,254.061,207.2Z" transform="translate(-52.738 -45.134)" fill="#f498b6"/>
        <path id="Path_155468" data-name="Path 155468" d="M326.485,157.755s5.352-4.768,4.835,6.531-12.915,8.677-12.915,8.677-40.059,4.7-45.2,4.7c-6.717,1.7-35.11-.573-55.386-13.773,0,0-.163-1.205,5.684.445s17.184.586,23.748-3.933c3.357-5.673,7.427-16.518,20.093-17.968,6.505-1.693,12.665-8.569,12.665-8.569s3.382,6.488,7.366,10.349,13.577,13.635,22.843,14.241c3.777,1.324,7.213.53,9.908.223C324.073,158.226,326.485,157.755,326.485,157.755Z" transform="translate(-49.392 -30.355)" fill="#d5d8ed"/>
        <path id="Path_155469" data-name="Path 155469" d="M237.351,182.366s-15.97-5.007-20.493-8.99c0,0,4.837,13.781,13.263,22.567,0,0-.771-5.664,8.182-2.012l6.342-.131S242,190.057,237.351,182.366Z" transform="translate(-49.175 -39.315)" fill="#1b1e28"/>
        <path id="Path_155470" data-name="Path 155470" d="M248.439,186.66s8.49,15.4,12.459,15.365c0,0-1.362.58-2.959,1.153-2.269.814-1.649-.608-4.005-3.061-4.172-4.345-5.27-5.674-10.706-15.109Z" transform="translate(-55.154 -41.952)" fill="#d6c7a6"/>
        <path id="Path_155471" data-name="Path 155471" d="M188.151,368.9c-17.171,0-30.49-3.466-41.225-10.613-12.756-8.492-29.249-22.885-25.237-49.719,1.256-8.4,4.358-17.214,7.643-26.543,6.388-18.145,13.628-38.712,9.642-63.028-5.086-49.842-.747-92.333,11.312-110.941,18.678-28.813,43.039-37.116,74.478-25.385a.734.734,0,0,1,.073.031c16.167,7.984,24.3,21.794,30.841,32.89,2.859,4.855,5.562,9.441,8.5,12.78l.174.2c9.653,10.97,17.273,19.636,38.529,15.778a.773.773,0,0,1,.276,1.522c-22.111,4.012-30.384-5.39-39.966-16.278l-.175-.2c-3.036-3.449-5.774-8.1-8.672-13.017-6.427-10.911-14.426-24.488-30.158-32.27-13.35-4.977-25-6.281-35.607-3.991-14.15,3.057-26.6,12.74-36.994,28.782-11.878,18.327-16.124,60.436-11.081,109.9,4.046,24.661-3.265,45.426-9.715,63.747-3.258,9.256-6.337,18-7.572,26.257-3.882,25.965,12.161,39.946,24.565,48.2,13.461,8.961,31.17,11.991,55.74,9.534,34.708-4.45,58.728-34.156,65.876-81.5,4.077-30.424-2.09-90.12-12.456-120.5a.773.773,0,0,1,1.464-.5c10.424,30.559,16.628,90.6,12.523,121.222-7.26,48.089-31.766,78.269-67.232,82.816q-8.264.827-15.545.829" transform="translate(-27.455 -17.581)" fill="#231f20"/>
        <path id="Path_155472" data-name="Path 155472" d="M231.623,136.861c4.933-2.951,12.34.352,16.543,7.377s3.61,15.113-1.324,18.064-12.34-.352-16.543-7.377-3.609-15.113,1.324-18.064" transform="translate(-51.587 -30.79)" fill="#fff"/>
        <path id="Path_155473" data-name="Path 155473" d="M242.6,163.918c-4.648,0-9.89-3.309-13.189-8.823a19.118,19.118,0,0,1-2.872-11.013c.269-3.671,1.853-6.551,4.462-8.111s5.9-1.594,9.257-.1a19.117,19.117,0,0,1,8.346,7.739c4.415,7.381,3.7,15.96-1.591,19.125a8.514,8.514,0,0,1-4.414,1.179m-7.149-27.595a7.041,7.041,0,0,0-3.656.973c-2.163,1.294-3.483,3.744-3.714,6.9a17.575,17.575,0,0,0,2.657,10.107c3.978,6.648,10.922,9.839,15.483,7.11s5.034-10.355,1.057-17a17.568,17.568,0,0,0-7.649-7.121,10.313,10.313,0,0,0-4.178-.963m-4.053.31h0Z" transform="translate(-51.36 -30.562)" fill="#231f20"/>
        <path id="Path_155474" data-name="Path 155474" d="M230.284,155.1c3.31,6.105,9.5,8.945,13.819,6.341s5.14-9.664,1.829-15.769-9.955-9.655-14.276-7.051S226.973,148.995,230.284,155.1Z" transform="translate(-51.717 -31.238)" fill="#231f20"/>
        <path id="Path_155475" data-name="Path 155475" d="M240.336,162.958a9.126,9.126,0,0,1-2.4-.333c-3.349-.912-6.549-3.671-8.561-7.382-3.659-6.747-2.9-14.765,1.651-17.509a7.576,7.576,0,0,1,6.029-.639c3.616.984,7.19,4.044,9.327,7.984,3.5,6.453,2.553,13.991-2.109,16.8a7.538,7.538,0,0,1-3.935,1.08m-5.679-24.653a5.426,5.426,0,0,0-2.835.753c-3.8,2.29-4.31,9.509-1.089,15.448a13.2,13.2,0,0,0,7.608,6.627,6.437,6.437,0,0,0,5.131-.579c3.965-2.389,4.66-9,1.549-14.739-1.942-3.581-5.151-6.351-8.374-7.229a7.594,7.594,0,0,0-1.99-.281" transform="translate(-51.487 -31.011)" fill="#231f20"/>
        <path id="Path_155476" data-name="Path 155476" d="M210.537,134.039a.774.774,0,0,1-.685-.413c-3.295-6.248-.818-9.662.951-11.141,3.8-3.174,11.006-3.318,13.824-1.114a.773.773,0,1,1-.952,1.218c-2.061-1.611-8.466-1.771-11.881,1.083-2.471,2.066-2.67,5.26-.574,9.234a.773.773,0,0,1-.684,1.134" transform="translate(-47.219 -27.185)" fill="#231f20"/>
        <path id="Path_155477" data-name="Path 155477" d="M246.735,109.209a.772.772,0,0,1-.769-.7c-.018-.188-.386-4.635,2.8-6.87,2.781-1.952,7.262-1.506,13.323,1.327a.773.773,0,1,1-.655,1.4c-5.437-2.542-9.508-3.048-11.771-1.468-2.452,1.715-2.157,5.434-2.153,5.471a.775.775,0,0,1-.7.838.7.7,0,0,1-.07,0" transform="translate(-55.771 -22.777)" fill="#231f20"/>
        <path id="Path_155478" data-name="Path 155478" d="M212.585,175.137a.774.774,0,0,1-.755-.611c-.356-1.662-.071-2.9.85-3.672,2.188-1.84,7.1.064,7.653.288a.773.773,0,0,1-.578,1.434c-1.757-.708-4.962-1.479-6.079-.537-.448.377-.56,1.1-.332,2.163a.774.774,0,0,1-.594.919.784.784,0,0,1-.163.017" transform="translate(-48.001 -38.563)" fill="#231f20"/>
        <path id="Path_155479" data-name="Path 155479" d="M267.677,185.021c-29.312,0-49.34-11.865-50.745-14.178a.773.773,0,0,1,1.321-.8c.928,1.41,25.045,16.707,61.05,12.806,5.476-.563,10.067-1.019,14.161-1.426,9.719-.964,16.741-1.662,26.1-2.856a.761.761,0,0,1,.247.009c.06.011,6.161,1.145,8.918-3.247a.706.706,0,0,1,.077-.1c1.488-1.675,2.321-7.565,1.062-10.061-.411-.811-.861-.882-1.21-.848a19.987,19.987,0,0,0-3.687.86.773.773,0,1,1-.479-1.47,20.987,20.987,0,0,1,4.026-.93,2.727,2.727,0,0,1,2.73,1.692c1.562,3.1.592,9.584-1.243,11.734-3.129,4.912-9.352,4.085-10.365,3.913-9.321,1.187-16.334,1.883-26.024,2.846-4.092.406-8.682.861-14.151,1.424a109.287,109.287,0,0,1-11.788.639" transform="translate(-49.166 -36.908)" fill="#231f20"/>
        <path id="Path_155480" data-name="Path 155480" d="M262.45,202.9a3.805,3.805,0,0,1-1.979-.684c-4.267-2.684-10.573-13.062-10.836-15.571a.773.773,0,1,1,1.538-.161c.217,2.062,6.392,12.076,10.122,14.422a1.838,1.838,0,0,0,1.336.418.774.774,0,0,1,.521,1.457,2.087,2.087,0,0,1-.7.118" transform="translate(-56.606 -42.131)" fill="#231f20"/>
        <path id="Path_155481" data-name="Path 155481" d="M241.08,210.555a14.087,14.087,0,0,1-10.85-5.121.773.773,0,1,1,1.157-1.026,12.531,12.531,0,0,0,9.8,4.6c8.058-.065,15.868-7.2,17.072-8.607a4.858,4.858,0,0,0,1.328-2.655.732.732,0,0,1-.065-.081c-.3-.432-1.8.409-3.393,1.3a43.731,43.731,0,0,1-6.27,3.02,14.2,14.2,0,0,1-12.209.711c-5.808-2.3-11.435-8.265-16.724-17.723a96.9,96.9,0,0,1-6.191-13.462.774.774,0,0,1,1.46-.512c.087.251,8.917,25.065,22.027,30.26a12.724,12.724,0,0,0,10.967-.667.685.685,0,0,1,.087-.039,42.33,42.33,0,0,0,6.1-2.938c2.286-1.277,3.993-2.229,5.112-1.183a.887.887,0,0,1,.51.475c.326.7.178,2.477-1.565,4.506-1.543,1.8-9.637,9.077-18.233,9.147h-.124" transform="translate(-48.684 -38.657)" fill="#231f20"/>
        <path id="Path_155482" data-name="Path 155482" d="M255.712,207.847a.773.773,0,0,1-.761-.643c-.008-.043-.789-4.4-3.917-6.235-1.762-1.034-3.98-1.092-6.59-.171a.773.773,0,1,1-.514-1.458c3.065-1.081,5.721-.98,7.9.3,3.749,2.208,4.614,7.1,4.649,7.3a.772.772,0,0,1-.632.89.756.756,0,0,1-.131.012" transform="translate(-55.196 -45.034)" fill="#231f20"/>
        <path id="Path_155483" data-name="Path 155483" d="M278.142,169.771a.773.773,0,0,1-.644-1.2c3.376-5.1,10.288-6.228,10.58-6.273a.774.774,0,0,1,.237,1.529c-.065.01-6.534,1.071-9.528,5.6a.774.774,0,0,1-.646.346" transform="translate(-62.896 -36.8)" fill="#231f20"/>
        <path id="Path_155484" data-name="Path 155484" d="M269.846,167.131a.774.774,0,0,1-.73-1.027c3.193-9.2,14.745-10.587,15.235-10.641a.773.773,0,0,1,.171,1.536c-.11.013-11.075,1.339-13.946,9.611a.772.772,0,0,1-.73.52" transform="translate(-61.015 -35.251)" fill="#231f20"/>
        <path id="Path_155485" data-name="Path 155485" d="M246.066,205.457a.773.773,0,0,1-.649-.351c-.034-.053-3.485-5.277-7.768-5.924a6.043,6.043,0,0,0-4.871,1.534.773.773,0,0,1-.988-1.189,7.5,7.5,0,0,1,6.1-1.873c4.972.754,8.673,6.37,8.828,6.609a.773.773,0,0,1-.647,1.194" transform="translate(-52.497 -44.801)" fill="#231f20"/>
        <path id="Path_155486" data-name="Path 155486" d="M261.271,120.66c3.812-3.346,10.951-1.444,15.944,4.246s5.952,13.016,2.139,16.361-10.951,1.444-15.944-4.246-5.951-13.015-2.139-16.361" transform="translate(-58.717 -26.986)" fill="#fff"/>
        <path id="Path_155487" data-name="Path 155487" d="M274.416,143.452c-3.847,0-8.346-2.189-11.814-6.142a18.347,18.347,0,0,1-4.558-9.47c-.438-3.354.446-6.189,2.491-7.982,4.127-3.622,11.769-1.685,17.035,4.317s6.194,13.83,2.068,17.452a7.75,7.75,0,0,1-5.222,1.825m-8.622-23.9a6.284,6.284,0,0,0-4.24,1.468c-1.644,1.443-2.345,3.794-1.976,6.62a16.784,16.784,0,0,0,4.186,8.65c4.7,5.361,11.367,7.234,14.854,4.175s2.493-9.91-2.211-15.27c-3.172-3.615-7.235-5.644-10.613-5.644m-4.749.888h0Z" transform="translate(-58.489 -26.765)" fill="#231f20"/>
        <path id="Path_155488" data-name="Path 155488" d="M261.068,121.911c3.441-2.694,9.513-.684,13.563,4.489s4.542,11.549,1.1,14.243-9.512.684-13.562-4.489-4.543-11.549-1.1-14.243" transform="translate(-58.681 -27.373)" fill="#231f20"/>
        <path id="Path_155489" data-name="Path 155489" d="M271.835,142.374c-3.468,0-7.525-2.164-10.5-5.966a16.089,16.089,0,0,1-3.521-8.468c-.229-2.957.677-5.393,2.552-6.861,3.772-2.951,10.342-.879,14.647,4.62s4.741,12.377.97,15.329a6.612,6.612,0,0,1-4.148,1.345M261.318,122.3c-1.454,1.138-2.151,3.1-1.964,5.524a14.551,14.551,0,0,0,3.2,7.633c3.779,4.829,9.377,6.784,12.477,4.356s2.546-8.329-1.233-13.158-9.378-6.782-12.478-4.356" transform="translate(-58.454 -27.151)" fill="#231f20"/>
        <path id="Path_155490" data-name="Path 155490" d="M232.6,143.716c1.88-1.33,4.839-.379,6.61,2.125s1.683,5.61-.2,6.94-4.839.379-6.61-2.124-1.683-5.611.2-6.941" transform="translate(-52.411 -32.453)" fill="#fff"/>
        <path id="Path_155491" data-name="Path 155491" d="M249.381,196.913a.769.769,0,0,1-.447-.143c-3.7-2.627-6.559-10.563-6.678-10.9a.773.773,0,0,1,1.457-.518c.028.078,2.809,7.811,6.116,10.158a.773.773,0,0,1-.448,1.4" transform="translate(-54.924 -41.914)" fill="#231f20"/>
        <path id="Path_155492" data-name="Path 155492" d="M264.819,126.685c1.351-1.315,3.937-.851,5.776,1.037s2.236,4.486.885,5.8-3.937.851-5.776-1.037-2.236-4.486-.885-5.8" transform="translate(-59.869 -28.557)" fill="#fff"/>
        <path id="Path_155493" data-name="Path 155493" d="M355.627,172.673a1.845,1.845,0,0,1-.5-.068,2.985,2.985,0,0,1-1.006-4.458c1.273-1.259,3.945-.693,4.245-.625a.774.774,0,0,1-.343,1.509c-.878-.2-2.333-.262-2.815.216-.068.067-.275.272-.128.952.134.616.329.878.467.916.32.093,1.026-.39,1.4-.773a.774.774,0,0,1,1.116,1.072,3.9,3.9,0,0,1-2.43,1.259" transform="translate(-80.155 -37.945)" fill="#231f20"/>
        <path id="Path_155494" data-name="Path 155494" d="M350.432,180.319a1.966,1.966,0,0,1-1.136-.3,1.819,1.819,0,0,1-.638-1.97,2.944,2.944,0,0,1,1.28-2.006c1.871-1.26,5.031-.6,5.386-.523a.773.773,0,0,1-.337,1.509c-.785-.173-3.065-.459-4.186.3a1.372,1.372,0,0,0-.617.976.817.817,0,0,0,0,.455c.338.227,2.067-.349,3.487-1.174a.773.773,0,1,1,.776,1.338,9.611,9.611,0,0,1-4.016,1.4" transform="translate(-79.051 -39.745)" fill="#231f20"/>
        <path id="Path_155495" data-name="Path 155495" d="M128.289,197.428s-41.018-.367-70.69,30.107c0,0,55.786-19.485,69.328-13.633A30.114,30.114,0,0,1,128.289,197.428Z" transform="translate(-13.061 -44.769)" fill="#e0d6be"/>
        <path id="Path_155496" data-name="Path 155496" d="M135.073,253.88s-38.311,9.1-54.213,52.243c0,0,24.066-33.408,53.871-33.408C134.731,272.715,132.082,265.165,135.073,253.88Z" transform="translate(-18.336 -57.57)" fill="#e0d6be"/>
        <path id="Path_155497" data-name="Path 155497" d="M136.334,288.954s-39.416,22.077-43.867,52.8c0,0,21.612-27.445,42.444-31.886C134.911,309.865,133.248,298.725,136.334,288.954Z" transform="translate(-20.968 -65.523)" fill="#e0d6be"/>
        <path id="Path_155498" data-name="Path 155498" d="M120.4,388.062S99.322,400.6,101.142,425.114c0,0,12.687-19.687,25.134-24.857,0,0-5.148-5.259-5.875-12.195" transform="translate(-22.91 -87.997)" fill="#e0d6be"/>
        <path id="Path_155499" data-name="Path 155499" d="M57.373,228.142a.774.774,0,0,1-.607-1.253c22.151-27.975,70.016-30.179,70.5-30.2a.773.773,0,1,1,.061,1.545c-.46.019-45.048,2.077-67.474,27.38,4.258-1.557,13-4.619,23.13-7.389,19.2-5.253,33.951-7.02,43.856-5.253a.773.773,0,1,1-.272,1.523c-23.121-4.128-68.455,13.415-68.91,13.593a.772.772,0,0,1-.281.053" transform="translate(-12.834 -44.602)" fill="#231f20"/>
        <path id="Path_155500" data-name="Path 155500" d="M79.572,309.32a.763.763,0,0,1-.326-.073.772.772,0,0,1-.415-.917,80.586,80.586,0,0,1,32.411-44.886c11.895-8.04,22-10.446,22.428-10.545a.773.773,0,1,1,.35,1.505c-.392.092-38.014,9.3-52.271,49.891,7.271-9.345,27.766-32.582,51.753-32.582a.773.773,0,1,1,0,1.546c-29.055,0-53.047,35.359-53.286,35.716a.772.772,0,0,1-.643.343" transform="translate(-17.869 -57.343)" fill="#231f20"/>
        <path id="Path_155501" data-name="Path 155501" d="M90.812,343.8a.773.773,0,0,1-.764-.89c5.159-33.637,45.331-55.267,45.737-55.481a.773.773,0,0,1,.724,1.366c-.385.2-37.211,20.042-44.29,50.987,5.505-7.241,21.545-26.3,41.3-31.524a.773.773,0,0,1,.4,1.5c-23.857,6.3-42.281,33.43-42.464,33.7a.772.772,0,0,1-.643.343" transform="translate(-20.417 -65.158)" fill="#231f20"/>
        <path id="Path_155502" data-name="Path 155502" d="M99.91,432.4a.774.774,0,0,1-.749-.586c-.009-.036-.029-.126-.052-.271-5.042-27.875,19.478-43.743,19.727-43.9a.773.773,0,0,1,.827,1.307c-.223.141-20.629,13.374-19.654,36.752,1.978-5.467,7.8-14.389,24.267-25.942a.773.773,0,0,1,.888,1.266c-25.363,17.788-24.722,28.9-24.528,30.27l.035.189a.774.774,0,0,1-.6.9.8.8,0,0,1-.165.017" transform="translate(-22.319 -87.874)" fill="#231f20"/>
        <path id="Path_155503" data-name="Path 155503" d="M180.24,444.129s4.953,9.986-6.355,19.394c0,0,20.405.283,19.73,10.82a94.768,94.768,0,0,0-16.931-3.777,56.242,56.242,0,0,0-17.918.7c-10.735,2.566-30.075,7.182-46.664,19.022,0,0-1.5-9.568,10.794-15.8,0,0-7.944-.107-25.051,13.94,0,0,1.68-10.072,7.84-15.514,0,0-14.259,2.646-15.644,4.667,0,0,8.6-12.779,30.236-16.634s29.054.487,29.054.487-20.008-2.359-22.816-14.661,4.854-16.625,10.64-19.17c0,0,8.377-5.121,23.623-.86A28.907,28.907,0,0,1,180.24,444.129Z" transform="translate(-20.418 -96.384)" fill="#869cc6"/>
        <path id="Path_155504" data-name="Path 155504" d="M181.661,464.677a.774.774,0,0,1-.286-1.492c.543-.216,13.225-5.446,8.258-18.954a.871.871,0,0,1-.028-.09c-.147-.622-3.817-15.293-21.768-17.74-16.91-2.31-28.553,2.627-31.148,13.191a13.006,13.006,0,0,0,1.465,10.487c2.908,4.544,9.084,7.844,17.86,9.543a.773.773,0,1,1-.294,1.518c-9.2-1.781-15.726-5.318-18.869-10.227a14.5,14.5,0,0,1-1.664-11.689c2.76-11.241,15.35-16.739,32.859-14.354,9.933,1.355,15.674,6.413,18.739,10.418a24.872,24.872,0,0,1,4.314,8.453c4.36,11.927-4.078,18.875-9.154,20.884a.768.768,0,0,1-.285.054" transform="translate(-30.535 -96.218)" fill="#231f20"/>
        <path id="Path_155505" data-name="Path 155505" d="M118.1,501.941a.774.774,0,0,1-.768-.684c-.62-5.279,2.55-10.656,8.928-15.14,7.583-5.331,17.222-7.665,21.94-5.318a.773.773,0,0,1-.689,1.385c-4.114-2.051-13.439.33-20.362,5.2-3.189,2.242-8.3,6.729-8.348,12.472C138.113,488.5,153.737,482.411,167.9,480.7c10.861-1.309,21.264.67,30.934,3.135-2.508-6.431-8.26-7.064-12.938-7.579-2.521-.277-4.513-.5-5.614-1.594a.773.773,0,1,1,1.092-1.095c.718.714,2.559.917,4.691,1.151,4.861.534,12.207,1.342,14.7,10.007a.773.773,0,0,1-.938.962c-9.911-2.586-20.612-4.793-31.741-3.451-14.208,1.713-29.964,7.94-49.586,19.593a.769.769,0,0,1-.4.109" transform="translate(-26.59 -107.335)" fill="#231f20"/>
        <path id="Path_155506" data-name="Path 155506" d="M100.015,500.679a.773.773,0,0,1-.75-.963c7.435-29.448,38.159-23.13,38.468-23.063a.773.773,0,0,1-.329,1.512,39.962,39.962,0,0,0-15.735.358c-10.2,2.414-17.008,8.912-20.273,19.333,4.963-3.782,18.446-13.6,25.069-13.888a.773.773,0,0,1,.068,1.545c-7.536.333-25.853,14.852-26.037,15a.772.772,0,0,1-.482.169" transform="translate(-22.504 -107.947)" fill="#231f20"/>
        <path id="Path_155507" data-name="Path 155507" d="M88.742,488.9a.773.773,0,0,1-.574-1.291c24.477-27.1,61.974-16.958,62.35-16.852a.773.773,0,1,1-.418,1.489c-.355-.1-34.513-9.318-58.312,13.832a105.364,105.364,0,0,1,14.933-4.765.774.774,0,0,1,.369,1.5,113.542,113.542,0,0,0-18.059,6.027.762.762,0,0,1-.29.056" transform="translate(-19.948 -106.309)" fill="#231f20"/>
        <path id="Path_155508" data-name="Path 155508" d="M163.953,223.916c8.289-5.815,26.149,17.369,8.742,38.766,0,0-7.279,5.4-20.363,6.78-17.891,1.89-47.319-3.85-82.764-22.811a11.721,11.721,0,0,1-5.781-8.809c-.793-7.385,3.986-19.9,13.582-18.245,4.75.818,10.741,3.951,17.528,6.344C113.309,232.431,138.114,239.3,163.953,223.916Z" transform="translate(-14.445 -49.762)" fill="#f1a68b"/>
        <path id="Path_155509" data-name="Path 155509" d="M24.857,277.236c-2.044-1.9-9.29-13.894-6.892-21.078,2.9-8.679,7.27-11.887,10.218-13.334,2.133-1.046,2.521-3.49,4.8-7.013-4.51-.187-15.627,6.067-18.783,17.864-4.37,16.34,5.041,24.865,10.523,28.624.65.446-.1,1.88.438,2.243.613-4.493-1.407-4.765-.3-7.306" transform="translate(-2.965 -53.471)" fill="#f1eb8d"/>
        <path id="Path_155510" data-name="Path 155510" d="M55.841,244.261c-4.547-6.029-5.971-2.593-4.547-6.029,1.4-3.376,2.226-.295,4.551,2.123,1.219,1.269,2.545,5.066,3.753,6.19,1.383,1.287,2.288.813,2.288.813s8.036-26.487,4.07-30.083-3.968-6.007-9.154-7.049-12.107.81-14.167.512-9.321-3.506-11.8-1.476-5.424,5.465-7.845,6.762-20.6,2.138-20.6,2.138-4.553,11.573,19.307,11.24c0,0-7.954,13.994,3.2,15.172,8.528.834,5.442,4.162,10.891,4.01s3.052-3.828,12.993-.883h4.15a1.584,1.584,0,0,0,1.84-.437" transform="translate(-0.465 -47.301)" fill="#869cc6"/>
        <path id="Path_155511" data-name="Path 155511" d="M116.836,231.768c-19.076,0-37.971-7.033-51.375-13.543a.775.775,0,0,1-.384-.415c-.165-.418-4.274-10.245-20.977-6.581-1.609.51-3.921-.055-6.368-.652-3.29-.8-6.692-1.633-8.492.1a12.45,12.45,0,0,0-.966,1.172,17.308,17.308,0,0,1-3.653,3.793c-2.305,1.607-5.327,2.12-8.223,2.509a44.959,44.959,0,0,1-8.854-.022c-2.067-.144-5.528-.382-5.8.2a4.287,4.287,0,0,0,.781,3.991c2.288,3.276,9.007,6.823,18.354,6.868a.773.773,0,0,1,0,1.546h0c-8.616-.042-16.5-3.067-19.613-7.529a5.828,5.828,0,0,1-.943-5.463c.739-1.611,3.361-1.43,7.332-1.155a43.648,43.648,0,0,0,8.54.032c2.709-.363,5.524-.837,7.545-2.246a15.789,15.789,0,0,0,3.311-3.466,12.978,12.978,0,0,1,1.12-1.344c2.413-2.322,6.406-1.348,9.931-.489,2.232.545,4.339,1.06,5.6.662,9.437-2.073,15.1.042,18.207,2.18a13.329,13.329,0,0,1,4.481,5.042c15.742,7.615,39.032,15.9,61.081,12.467,13.228-2.059,19.82-7.452,19.885-7.506a.773.773,0,0,1,.992,1.186c-.275.23-6.906,5.683-20.511,7.828a70.6,70.6,0,0,1-11,.836" transform="translate(0 -47.193)" fill="#231f20"/>
        <path id="Path_155512" data-name="Path 155512" d="M43.643,250.863a8.8,8.8,0,0,1-3.084-.522A8,8,0,0,1,35.88,245.3a.8.8,0,0,1-.042-.169c-1.2-9.072,3.107-16.351,6.93-20.86,4.506-5.314,10.34-8.976,12.961-9.062a1.932,1.932,0,0,1,1.824.9c1.632,2.625-2.7,11-3.588,12.654a.773.773,0,0,1-1.363-.731c2.347-4.381,4.4-9.874,3.637-11.108-.039-.063-.113-.175-.459-.169-1.7.056-7.111,2.95-11.832,8.517-3.609,4.255-7.673,11.1-6.588,19.569a6.492,6.492,0,0,0,3.734,4.053c3.824,1.432,8.742-1.205,8.791-1.233a.773.773,0,0,1,.742,1.357,16.353,16.353,0,0,1-6.983,1.849" transform="translate(-8.08 -48.8)" fill="#231f20"/>
        <path id="Path_155513" data-name="Path 155513" d="M147.7,278.92c-9.192,0-19.737-1.64-31.484-4.936A232.936,232.936,0,0,1,75.33,257.841a.773.773,0,1,1,.725-1.365c.738.391,74.079,38.85,102.164,10.429a.773.773,0,0,1,1.1,1.087c-7.183,7.269-17.894,10.928-31.621,10.928" transform="translate(-16.989 -58.138)" fill="#231f20"/>
        <path id="Path_155514" data-name="Path 155514" d="M36.629,347.521,44,340.74l-4.117-7.561,4.726-5.42-3.541-5.347,0-3.1-5.942-1.991-3.056,22.91,1.421,8.609Z" transform="translate(-7.272 -71.955)" fill="#f1eb8d"/>
        <path id="Path_155515" data-name="Path 155515" d="M41.171,276.576s-11.926-.994-16.46,9,.678,22.511,2.767,23.582L25.02,332.734l1.362,5.68,5.032,1.179-1.677-6.952,2.565-24.33a28.855,28.855,0,0,1-1.833-16.574A23.032,23.032,0,0,1,41.171,276.576Z" transform="translate(-5.195 -62.71)" fill="#faf8db"/>
        <path id="Path_155516" data-name="Path 155516" d="M33.088,247.364c-6.392,0-10.02-1.971-10.79-5.862-1.766-8.938,13.129-24.37,19.122-26.742.792-.314,3.2-1.266,4.388.071,1.449,1.632-.414,5.3-.8,6.015a.773.773,0,0,1-1.361-.735c.854-1.585,1.478-3.722,1.006-4.253-.227-.256-1.045-.3-2.661.339-6.056,2.4-19.661,17.484-18.174,25.005.62,3.139,3.886,4.714,9.679,4.612h.011a.773.773,0,0,1,.01,1.546c-.144,0-.287,0-.428,0" transform="translate(-5.024 -48.558)" fill="#231f20"/>
        <path id="Path_155517" data-name="Path 155517" d="M51.124,297.439s3.188-19.529-6.8-20.151c-5.928-1.2-11.542,7.057-13.722,15.795-.473,8.05.02,15.207,6.759,16.635s12.246-3.585,13.637-11.493l-6.746-2.631s-.919,2.047-1.958,2.072c-3.518.083-2.842-1.413-2.583-4.276A3.843,3.843,0,0,1,43.75,289.9c1.134.083,1.553,3.323.851,5.43S48.153,302.6,51.124,297.439Z" transform="translate(-6.908 -62.851)" fill="#f1eb8d"/>
        <path id="Path_155518" data-name="Path 155518" d="M33.189,349.588a.774.774,0,0,1-.747-.575l-1.677-6.319a.768.768,0,0,1-.021-.285L33.479,317.9a.773.773,0,0,1,1.537.172L32.3,342.438l1.412,5.321,2.177-.914,6.5-6.6L38.9,333.51a.773.773,0,1,1,1.374-.71l3.742,7.235a.773.773,0,0,1-.136.9l-7,7.106a.755.755,0,0,1-.251.171l-3.139,1.317a.776.776,0,0,1-.3.06" transform="translate(-6.97 -71.932)" fill="#231f20"/>
        <path id="Path_155519" data-name="Path 155519" d="M31.806,349.7a.818.818,0,0,1-.177-.02L26.6,348.5a.773.773,0,0,1-.575-.572l-1.362-5.68a.757.757,0,0,1-.017-.261L27.1,318.414a.773.773,0,0,1,1.538.16l-2.443,23.445,1.219,5.088,4.568,1.069a.773.773,0,0,1-.176,1.526" transform="translate(-5.587 -72.046)" fill="#231f20"/>
        <path id="Path_155520" data-name="Path 155520" d="M43.6,283.075a26.6,26.6,0,0,0,10.958-2.387A17.344,17.344,0,0,0,64.523,267.3c1.422-11.013-2.426-15.762-5.033-18.507.526-2.127.918-2.959,2.385-3.983,3.511,3.584,9.137,11.19,7.166,21.728-1.649,8.813-5.52,13.267-9.659,16.213-2.9,2.062-5.992,3.757-8.261,4.1-5.51.841-6.524,1.135-6.524,1.135s-2.365.123-2.223-1.59A6.171,6.171,0,0,1,43.6,283.075Z" transform="translate(-9.607 -55.512)" fill="#f1eb8d"/>
        <path id="Path_155521" data-name="Path 155521" d="M44.392,301.916a3.073,3.073,0,0,1-1.031-.19c-1.3-.466-2.434-2.332-2.1-5a5.044,5.044,0,0,1,2.036-3.776,3.2,3.2,0,0,1,2.861-.2l.561.262a.774.774,0,0,1-.664,1.4l-.49-.234a1.646,1.646,0,0,0-1.459.1,3.624,3.624,0,0,0-1.311,2.652c-.243,1.929.5,3.138,1.087,3.347.556.2,1.011.165,1.55-.607a5.613,5.613,0,0,0,.479-1.41.774.774,0,0,1,1.536.181A7.2,7.2,0,0,1,46.8,300.4a.71.71,0,0,1-.052.088,2.8,2.8,0,0,1-2.352,1.43" transform="translate(-9.343 -66.33)" fill="#231f20"/>
        <path id="Path_155522" data-name="Path 155522" d="M26.815,309.3a.767.767,0,0,1-.585-.268c-.268-.309-6.528-7.735-3.851-19.844,1.322-5.828,3.991-9.913,7.933-12.144,5.451-3.083,11.344-1.522,13.019-.971a.774.774,0,0,1-.483,1.47c-1.525-.5-6.876-1.924-11.774.848-3.548,2.007-5.966,5.753-7.186,11.135-2.5,11.317,3.453,18.428,3.513,18.5a.773.773,0,0,1-.586,1.277" transform="translate(-4.924 -62.401)" fill="#231f20"/>
        <path id="Path_155523" data-name="Path 155523" d="M44.414,285.053a.773.773,0,1,1,0-1.546c10.829,0,19.836-8.5,20.079-18.945.147-6.319-1.373-10.475-5.083-13.9a.773.773,0,1,1,1.049-1.137c4.07,3.754,5.738,8.261,5.58,15.07-.261,11.279-9.962,20.455-21.624,20.455" transform="translate(-9.896 -56.536)" fill="#231f20"/>
        <path id="Path_155524" data-name="Path 155524" d="M24.485,278.519a.77.77,0,0,1-.609-.3c-.135-.171-.775-1.009-.9-1.185a26.309,26.309,0,0,1-4.367-12.61,22.981,22.981,0,0,1,2.518-11.2c.343-.543.716-1.079,1.11-1.592a.773.773,0,1,1,1.227.941c-.365.476-.711.973-1.029,1.476a21.533,21.533,0,0,0-2.281,10.29,24.568,24.568,0,0,0,4.069,11.781c.124.169.745.98.875,1.147a.773.773,0,0,1-.608,1.25" transform="translate(-4.213 -56.992)" fill="#231f20"/>
        <path id="Path_155525" data-name="Path 155525" d="M43.061,288.022l-.387,0a.774.774,0,0,1-.766-.782.744.744,0,0,1,.782-.765l.367,0c14.719,0,25.187-9.585,25.508-23.418.17-7.321-2.474-13.506-7.646-17.887a.774.774,0,0,1,1-1.181c5.54,4.694,8.373,11.3,8.192,19.1-.341,14.724-11.443,24.928-27.049,24.928" transform="translate(-9.503 -55.286)" fill="#231f20"/>
        <path id="Path_155526" data-name="Path 155526" d="M20.619,281.32a.772.772,0,0,1-.561-.241q-.276-.291-.541-.589a29.545,29.545,0,0,1-7.449-20.616c.343-6.961,3.37-11.561,6.59-15.5.16-.2.656-.725,1.338-1.451.317-.338.594-.633.694-.744a.773.773,0,1,1,1.154,1.028c-.1.117-.391.423-.722.774-.449.479-1.129,1.2-1.267,1.371-3.053,3.73-5.921,8.08-6.242,14.593A27.968,27.968,0,0,0,20.67,279.46c.167.187.336.371.51.554a.773.773,0,0,1-.561,1.305" transform="translate(-2.729 -54.858)" fill="#231f20"/>
        <path id="Path_155527" data-name="Path 155527" d="M34.032,309.537a.77.77,0,0,1-.563-.242c-3.38-3.589-4.675-9.765-3.647-17.392,1.09-8.1,7.72-16.5,14.944-15.608,5.942.786,7.244,9.055,7.249,11.06a.773.773,0,0,1-.772.774h0a.773.773,0,0,1-.773-.772c0-1.359-1.1-8.9-5.9-9.529-6.255-.762-12.243,7.048-13.216,14.28-.964,7.156.186,12.882,3.24,16.124a.773.773,0,0,1-.563,1.3" transform="translate(-6.684 -62.638)" fill="#231f20"/>
        <path id="Path_155528" data-name="Path 155528" d="M41.949,329.22a.773.773,0,0,1-.582-1.281l4.339-4.976-3.632-5.485a.772.772,0,0,1-.118-.554l.414-2.474a.772.772,0,0,1,.622-.633c.36-.07,8.929-1.9,10.15-16.657a.773.773,0,1,1,1.541.127c-1.161,14.037-8.747,17.279-10.872,17.914l-.28,1.676L47.32,322.6a.773.773,0,0,1-.062.935l-4.726,5.42a.77.77,0,0,1-.583.265" transform="translate(-9.337 -67.223)" fill="#231f20"/>
        <path id="Path_155529" data-name="Path 155529" d="M60.881,250.362c-3.476,0-8.149-.616-10.362-3.6-1.835-2.477-1.635-6.058.6-10.641,5.972-11.909,13.18-17.628,17.538-18.91a4.952,4.952,0,0,1,3.912.155c2.211,1.307-.166,6.082-6.119,16.669-2.707,4.814-5.775,10.272-5.725,11.823a.771.771,0,0,1-.747.8.755.755,0,0,1-.8-.747c-.06-1.85,2.2-6.007,5.923-12.632,2.822-5.02,7.546-13.42,6.669-14.589a3.6,3.6,0,0,0-2.677.006c-4.062,1.195-10.842,6.655-16.588,18.112-1.954,4.015-2.2,7.058-.742,9.035,3.127,4.224,13.048,2.714,13.148,2.7a.773.773,0,1,1,.242,1.526,29.528,29.528,0,0,1-4.269.3" transform="translate(-11.174 -49.182)" fill="#231f20"/>
      </g>
    </g>
  </g>
</svg>
