<svg xmlns="http://www.w3.org/2000/svg" xmlns:xlink="http://www.w3.org/1999/xlink" width="540" height="540" viewBox="0 0 540 540">
  <defs>
    <clipPath id="clip-path">
      <rect id="Rectangle_17191" data-name="Rectangle 17191" width="353.414" height="481.763" fill="none"/>
    </clipPath>
    <clipPath id="clip-Activity_5_1">
      <rect width="540" height="540"/>
    </clipPath>
  </defs>
  <g id="Activity_5_1" data-name="Activity 5 – 1" clip-path="url(#clip-Activity_5_1)">
    <rect width="540" height="540" fill="#d6eeef"/>
    <path id="Path_154215" data-name="Path 154215" d="M2326.911,423.7c-61.465-32.217-87.506-30.965-152.377-15.482s-134.265,13.7-184.339,3.568-48.007-2.53-86.839,0-32.225-3.1-70.39-5.914-4.4-.468-48.441-1.876-80-38-165.138-27.68-182.019,119.635-182.019,119.635V665.659l966.607-4v-165.7s-40.367-53.014-77.064-72.25" transform="translate(-1761.894 -104.487)" fill="rgba(173,229,227,0.65)"/>
    <path id="Path_154087" data-name="Path 154087" d="M563.846,778.47q9.361-.66,18.663-1.665,4.24-.459,8.456-.989l.015,0,.018,0q8.287-.46,16.559-1.043,1.207-.085,2.413-.172c33.531-2.443,67.91-5.964,100.32-11.993,13.954-2.592,28.091-6.389,37.836-12.759a34.007,34.007,0,0,0,9.034-8.214,13.931,13.931,0,0,0,3.014-8.945,10.751,10.751,0,0,0-.53-2.733c-1.191-3.6-2.335-5.767-4.083-7.312s-4.2-2.522-8.066-3.489c-7.723-1.936-20.916-3.849-44.838-10.948-24.176-7.179-62.065-6.464-98-3.929l-.144.009c-27.47,1.939-53.8,4.924-72.05,6.212-4.787.338-9.02.56-12.578.613q-4.968.077-9.672.414c-29.716,2.1-70.073-5.815-94.752,1.982-10.862,3.42-22.083,8.069-27.917,14.235-2.551,2.694-3.622,5.431-3.464,8.025a9.4,9.4,0,0,0,1.784,4.828,17.409,17.409,0,0,0,4.843,4.49l-.28.585.28-.585c7.97,5.213,20.2,7.807,31.88,9.923A462.635,462.635,0,0,0,469,760.972c33.762,1.01,59.553,17.625,94.851,17.5" transform="translate(-302.13 -251.273)" fill="rgba(87,189,185,0.3)"/>
    <g id="Group_20296" data-name="Group 20296" transform="translate(104.652 25.715)">
      <g id="Group_20295" data-name="Group 20295" clip-path="url(#clip-path)">
        <path id="Path_155337" data-name="Path 155337" d="M184.567,419.692l-12.477,25.123s-5.771,2.547-5.6,5.942,9.082,2.291,9.082,2.291,27.415.255,39.635,4.414,33.356,8.318,33.95,6.111l-6.7-4.752s6.875,1.952,6.7-.085-8.318-5.178-8.318-5.178-4.752-10.185-24.528-5.686c0,0-19.266-.764-22.577-1.783s-8.232-2.716-5.516-8.572,10.015-7.3,14.6-16.8c-.084.084-11.627,2.291-18.248-1.019" transform="translate(6.568 16.558)" fill="#ed8763"/>
        <path id="Path_155338" data-name="Path 155338" d="M107.858,426.216s10.439,10.949,12.731,10.61h-33.1s-19.012-3.48-27.329,2.376-3.564.679-9.251,7.214c0,0-6.619,5.263-5.092,5.092s36.071-6.62,50.5-4.922c14.683-.17,30.979,1.1,36.666.424s9.591-.34,8.318-5.092-2.376-.68-13.155-13.5l-5.771-6.28Z" transform="translate(1.798 16.654)" fill="#ed8763"/>
        <path id="Path_155339" data-name="Path 155339" d="M231.59,391.482c15.277,5.941,44.049,18.078,66.116,11.967,13.325-3.735,27.839-12.477,33.44-32.422,8.912-31.064-16.211-55.168-32-42.1-4.668,2.123-7.639,11.119-8.4,4.159s9.421-16.381,20.114-15.786,32.676,8.232,32.676,44.643c0,26.905-9.76,41.673-33.27,52.028-17.994,7.893-52.452,3.734-81.48-9.251" transform="translate(9.026 12.517)" fill="#ed8763"/>
        <path id="Path_155340" data-name="Path 155340" d="M191.122,365.771c5.347-3.65,41.588-11.034,42.522,20.03s-27.5,36.24-31.149,37.175-21.728,3.395-30.045-11.288" transform="translate(6.803 14.293)" fill="#f1a68b"/>
        <path id="Path_155341" data-name="Path 155341" d="M102.583,369.98c-9.336-2.037-46.765,3.65-35.052,38.787,12.646,39.3,64.674,10.61,64.674,10.61" transform="translate(2.576 14.582)" fill="#f1a68b"/>
        <path id="Path_155342" data-name="Path 155342" d="M183.226,399.279s7.893,25.208,39.974,12.307c0,0-11.712,14.768-38.786,8.911,0,0-10.016-4.583-11.882-10.185Z" transform="translate(6.807 15.752)" fill="#ed8763"/>
        <path id="Path_155343" data-name="Path 155343" d="M115.546,407.771s-12.731,19.352-41.079,10.694c0,0,7.13,14.174,32.252,8.4,0,0,18.163-4.668,25.038-9,0,0-17.23-5.432-16.211-10.1" transform="translate(2.938 16.087)" fill="#ed8763"/>
        <path id="Path_155344" data-name="Path 155344" d="M99.126,277.516s8.911,17.993,4.5,59.412-2.547,70.021,15.107,79.951,45.577,12.561,67.389-12.307c11.288-15.531,8.827-29.366.595-57.12s-17.909-59.156-17.909-59.156L150.73,277.6a253.266,253.266,0,0,1,24.528,14.343c20.709,13.75,48.633,35.307,58.9,53.385a14.539,14.539,0,0,0,10.949-12.391c-19.437-30.3-53.132-53.216-67.559-63.146-.255-2.207-12.986-2.632-25.123-2.461s-53.3,10.185-53.3,10.185" transform="translate(3.911 10.545)" fill="#f1a68b"/>
        <path id="Path_155345" data-name="Path 155345" d="M105.5,399.775c.255.255,3.989,3.735,4.244,3.989,19.605,16.381,28.687,12.646,37.429,10.863,9.676-2.291,34.119-10.863,34.119-42.1,1.952-36.326-26.989-93.191-27.159-93.362l14.343,8.572s6.535,21.049,8.742,28.348c15.107,50.076,17.23,57.968,15.277,72.737s-21.473,32.846-39.975,34.2-27.159,1.443-41.758-13.665c-2.376-2.547-4.752-9.082-4.752-9.082Z" transform="translate(4.162 11.014)" fill="#ed8763"/>
        <path id="Path_155346" data-name="Path 155346" d="M138.147,270.773c7.13,13.834,18.757,40.145,22.661,55.083,12.052,36.835,9.167,82.073-24.444,79.017s-27.075-40.23-23.764-70.19-8.318-59.92-8.318-59.92c-8.4-24.274,7.13-28.772,10.27-27.924s19.436,12.816,20.03,15.786,3.564,8.148,3.564,8.148" transform="translate(4.017 9.735)" fill="#f3e98c"/>
        <path id="Path_155347" data-name="Path 155347" d="M139.542,405.13q-1.553,0-3.183-.148c-8.663-.788-15.012-3.8-19.41-9.21-10.065-12.381-7.424-35.264-5.093-55.454q.331-2.855.642-5.644c3.269-29.591-8.194-59.572-8.31-59.871-4.731-13.664-1.8-20.736,1.491-24.263,3.229-3.46,7.456-4.189,8.906-3.8,3,.812,19.5,12.84,20.106,15.868.583,2.919,3.523,8.064,3.553,8.116l0,0c6.765,13.128,18.648,39.72,22.669,55.1a126.673,126.673,0,0,1,6.491,39.355c-.125,13.393-3.088,24.109-8.568,30.988-4.74,5.951-11.221,8.955-19.3,8.955M113.695,246.854a11.645,11.645,0,0,0-7.86,3.831c-3.251,3.485-6.142,10.485-1.448,24.045.115.3,11.6,30.325,8.323,59.968-.2,1.858-.423,3.742-.642,5.645-2.326,20.149-4.961,42.984,5.048,55.3,4.359,5.363,10.661,8.349,19.263,9.132,9.492.858,16.994-2.075,22.294-8.727,5.451-6.844,8.4-17.514,8.522-30.859a126.494,126.494,0,0,0-6.483-39.292c-4.019-15.376-15.892-41.946-22.654-55.065-.076-.133-2.989-5.248-3.576-8.178-.6-2.993-16.97-14.9-19.953-15.7a3.258,3.258,0,0,0-.834-.091" transform="translate(4.013 9.731)" fill="#f3e98c"/>
        <path id="Path_155348" data-name="Path 155348" d="M116.183,257.176c4.074,6.2-4.074,30.384-4.074,30.384,55.337-32.251,93.191,3.225,93.191,3.225-10.779-56.695,36.835-75.877,36.835-75.877-63.995-43.965-19.861-117.889.339-124.085-71.973-16.3-105.073,41.5-118.059,62.3" transform="translate(4.423 3.47)" fill="#ed8763"/>
        <path id="Path_155349" data-name="Path 155349" d="M143.346,215.351s44.813,20.964,97.859-5.178c-17.909,10.1-42.013,26.311-35.987,75.877,0,0-39.975-35.222-93.191-3.225,0,0,11.883-26.989,2.037-34.458Z" transform="translate(4.42 8.292)" fill="#c05b37"/>
        <path id="Path_155350" data-name="Path 155350" d="M111.319,262.2c-.764,7.723-1.443,15.617-4.668,22.831a24.153,24.153,0,0,1-2.631,4.839c-1.273,1.7-1.867,2.122-3.564.933-2.971-2.123-5.517-4.414-8.827-6.111a55.009,55.009,0,0,0-18.842-6.026c-13.241-1.444-26.226,3.734-35.732,12.9,2.547-6.791,3.056-14.429,2.461-21.643C37.564,246.328,22.88,216.028.9,207.117c16.89-3.82,28.857-12.392,36.5-29.367,8.487-20.369,4.244-43.286-6.535-61.109-5.008-9.251-10.864-18.417-18.249-25.971,12.9-6.2,26.821-11.034,41.249-11.713l14.259.679C101.134,86,119.806,120.8,123.541,152.628Z" transform="translate(0.035 3.115)" fill="#ed8763"/>
        <path id="Path_155351" data-name="Path 155351" d="M229.289,342.842s5.942,11.882-5.687,18.333c-3.65,2.037,3.48,3.14,8.827-.424,4.5-2.971,7.215-10.186,5.263-14.514l-2.207.509c.848-5.771,28.856,20.794,30.724,26.651.848,2.631,3.479-19.861,2.716-7.979L265.7,367.2s4.328,8.658,3.225-1.783a38.478,38.478,0,0,0-.595-8.232c-4.159-21.982-28.093-26.82-28.093-26.82a17.1,17.1,0,0,0-6.7,4.668,23.336,23.336,0,0,0-4.244,7.808" transform="translate(8.782 13.034)" fill="#ed8763"/>
        <path id="Path_155352" data-name="Path 155352" d="M.9,202.171s39.89,16.3,108.383,9.421c6.959-9.421,3.819,68.578-6.96,75.2,0,0-15.53-14-33.27-13.155s-29.621,9.167-32,13.155c1.783-6.535,5.94-25.461-4.412-48.548S12.441,207.858.9,202.171" transform="translate(0.035 7.976)" fill="#c05b37"/>
        <path id="Path_155353" data-name="Path 155353" d="M72.734,173.99S47.7,125.442,52.279,60.259L65.01,62.89c-.68,59.922,28.177,98.2,28.177,98.2" transform="translate(2.04 2.377)" fill="#f1a68b"/>
        <path id="Path_155354" data-name="Path 155354" d="M52.586,62.686S28.651,46.73,60.479,5.651C69.9-.2,53.689,16.515,54.028,33.15l.255-3.31C58.018,20.928,66.081,4.548,76.18.9,79.236,2.257,59.037,26.106,62.6,38.752l-.34-2.8C73.04,5.906,82.886,6.754,84.329,8.028c.594.509-5.516,8.063-9.251,16.89-5.263,12.391-8.742,27.159-7.044,26.735l-7.47,2.207c2.037-2.971,7.724-1.273,14.174-.933S86.959,41.553,85.347,48c-3.48,17.23-24.7,17.23-24.7,17.23l-3.989-1.019" transform="translate(1.734 0.035)" fill="#ed8763"/>
        <path id="Path_155355" data-name="Path 155355" d="M83.939,223.945s10.694,13.834,1.358,26.311c0,0,23.6,9.846,38.618-15.022,0,0,7.639-16.3,4.244-25.632,0,0-.679,11.2-14.6,14.683l-16.466-1.444a31.568,31.568,0,0,0-13.155,1.1" transform="translate(3.312 8.269)" fill="#f1a68b"/>
        <path id="Path_155356" data-name="Path 155356" d="M87.45,223.1s11.2,9.93,1.019,27.16c0,0,24.7,3.479,34.459-21.728,0,0,3.65-7.044,2.715-12.562,0,0-8.147,10.1-16.8,7.894S87.45,223.1,87.45,223.1" transform="translate(3.45 8.52)" fill="#1b1e28"/>
        <path id="Path_155357" data-name="Path 155357" d="M129.986,212.348s-5.687,16.3-19.776,14.089c-24.7-5.092-40.909,6.281-43.286,3.82s-.084-14.344-12.137-20.794c-8.487-5.687,10.439-31.828,20.285-39.551s37.768-24.529,57.035-17.484c41.249,15.107,20.879,61.194,16.126,69.257s-35.392,58.392-71.463,29.536c0,0-.085-1.7,2.8-1.613s7.554,5.772,20.624,4.668,32.083-14.6,29.791-41.927" transform="translate(2.077 5.947)" fill="#f6c3b1"/>
        <path id="Path_155358" data-name="Path 155358" d="M118.9,199.959a13,13,0,0,1-6.62,3.14,11.448,11.448,0,0,1-9.166-3.9c-3.48-5.007-2.037-12.731,3.224-17.314s12.307-4.244,15.871.764c3.4,5.007,1.952,12.731-3.31,17.314" transform="translate(3.993 7.048)" fill="#f3e98c"/>
        <path id="Path_155359" data-name="Path 155359" d="M111.768,203.548a11.806,11.806,0,0,1-8.955-4.058c-3.611-5.192-2.134-13.211,3.265-17.914a12.581,12.581,0,0,1,9.6-3.258,9.78,9.78,0,0,1,6.895,4.1c3.513,5.182,2,13.2-3.375,17.879a13.393,13.393,0,0,1-6.834,3.241c-.2.01-.4.015-.6.015m2.676-24.453a12.051,12.051,0,0,0-7.807,3.121c-5.083,4.427-6.5,11.941-3.156,16.752a10.953,10.953,0,0,0,8.8,3.722,12.535,12.535,0,0,0,6.357-3.033l0,0c5.061-4.407,6.513-11.925,3.238-16.756a8.94,8.94,0,0,0-6.3-3.737,9.607,9.607,0,0,0-1.136-.067" transform="translate(3.978 7.032)" fill="#f3e98c"/>
        <path id="Path_155360" data-name="Path 155360" d="M81.395,193.523c-2.716,1.358-6.875.085-9.251-2.971s-1.1-13.155,3.31-17.738,10.186-4.074,12.816,1.1-2.207,17.145-6.875,19.606" transform="translate(2.8 6.694)" fill="#f3e98c"/>
        <path id="Path_155361" data-name="Path 155361" d="M78.971,194.5a9.441,9.441,0,0,1-7.147-3.672c-2.519-3.238-1.165-13.615,3.34-18.293,2.333-2.421,5.192-3.581,7.846-3.187a7.654,7.654,0,0,1,5.655,4.393c2.717,5.347-2.235,17.631-7.055,20.173l-.008,0a5.858,5.858,0,0,1-2.63.583m3-24.38a8.837,8.837,0,0,0-6.2,3c-4.181,4.342-5.568,14.244-3.282,17.183,2.227,2.864,6.14,4.143,8.722,2.854,4.445-2.349,9.19-14.118,6.69-19.035a6.826,6.826,0,0,0-5.022-3.937,6.172,6.172,0,0,0-.91-.068m-.564,23.418h0Z" transform="translate(2.784 6.678)" fill="#f3e98c"/>
        <path id="Path_155362" data-name="Path 155362" d="M105.225,188.334c1.727-3.9,5.592-5.971,8.636-4.625s4.111,5.6,2.386,9.5-5.592,5.971-8.636,4.625-4.112-5.6-2.386-9.5" transform="translate(4.119 7.231)" fill="#231f20"/>
        <path id="Path_155363" data-name="Path 155363" d="M76.292,180.743c1.048-3.91,3.962-6.527,6.508-5.845s3.761,4.406,2.713,8.317-3.962,6.527-6.508,5.844-3.761-4.405-2.713-8.316" transform="translate(2.995 6.896)" fill="#231f20"/>
        <path id="Path_155364" data-name="Path 155364" d="M122.246,229.461c.085-1.358-13.41-5.687-17.4,1.019a20.365,20.365,0,0,1-7.723,7.214l9.506-9.845c-7.468-5.093-16.38,14.089-21.133,16.38C83.883,245.247,95,254.074,111.721,236l-2.376,2.376s5.942,1.528,3.9,3.48c0,0,4.243-3.564,5.687-5.94s3.224-5.093,3.31-6.451" transform="translate(3.367 8.949)" fill="#f498b6"/>
        <path id="Path_155365" data-name="Path 155365" d="M129.465,211.678c-22.576,8.232-35.647-3.225-33.695-14.514,4.838-23.255,29.705-38.193,40.654-42.351,0,0-29.451.085-44.473,29.876-3.735,6.45-12.391,27.329-35.478,11.373,0,0-5.942,3.9-2.376,12.477,6.62,5.262,10.354,6.026,12.9,21.473,2.037,2.207,28.179-8.658,43.965-3.735,14.513,1.188,18.5-14.6,18.5-14.6" transform="translate(2.089 6.108)" fill="#f1a68b"/>
        <path id="Path_155366" data-name="Path 155366" d="M112.167,185.841a1.527,1.527,0,1,1-1.528,1.528,1.528,1.528,0,0,1,1.528-1.528" transform="translate(4.365 7.332)" fill="#fff"/>
        <path id="Path_155367" data-name="Path 155367" d="M112.2,189.777a2.377,2.377,0,1,1,2.376-2.377,2.379,2.379,0,0,1-2.376,2.377m0-3.056a.679.679,0,1,0,.679.679.68.68,0,0,0-.679-.679" transform="translate(4.333 7.3)" fill="#fff"/>
        <path id="Path_155368" data-name="Path 155368" d="M81.044,178.655a1.188,1.188,0,1,1-1.188,1.188,1.188,1.188,0,0,1,1.188-1.188" transform="translate(3.15 7.048)" fill="#fff"/>
        <path id="Path_155369" data-name="Path 155369" d="M81.076,181.913a2.037,2.037,0,1,1,2.037-2.036,2.039,2.039,0,0,1-2.037,2.036m0-2.376a.339.339,0,1,0,.34.34.34.34,0,0,0-.34-.34" transform="translate(3.118 7.016)" fill="#fff"/>
        <path id="Path_155370" data-name="Path 155370" d="M74.712,220.08s2.037-8.827,5.347-6.875,2.207,3.311,1.528,4.244l-1.528-2.461Z" transform="translate(2.948 8.4)" fill="#f3e98c"/>
        <path id="Path_155371" data-name="Path 155371" d="M74.728,220.52a.42.42,0,0,1-.21-.055.426.426,0,0,1-.2-.465c.058-.254,1.464-6.229,3.976-7.308a2.116,2.116,0,0,1,2,.163c1.454.858,2.249,1.7,2.432,2.588a2.757,2.757,0,0,1-.729,2.206.535.535,0,0,1-.384.207.438.438,0,0,1-.368-.167l-1.254-2.018L75.02,220.4a.424.424,0,0,1-.292.116m4.4-7.156a1.238,1.238,0,0,0-.5.107c-1.358.582-2.473,3.306-3.083,5.262l4.239-4.037a.426.426,0,0,1,.346-.113.421.421,0,0,1,.307.2l1.187,1.911a1.469,1.469,0,0,0,.269-1.076c-.129-.627-.813-1.31-2.032-2.028a1.434,1.434,0,0,0-.735-.222" transform="translate(2.931 8.384)" fill="#f3e98c"/>
        <path id="Path_155372" data-name="Path 155372" d="M65.824,214.15s-1.867-4.414,3.48-3.564c4.243,1.018,0,8.147,0,8.147l-.17-5.686s-2.546-1.273-3.31,1.1" transform="translate(2.584 8.304)" fill="#f3e98c"/>
        <path id="Path_155373" data-name="Path 155373" d="M69.32,219.174a.412.412,0,0,1-.106-.014.426.426,0,0,1-.318-.4l-.161-5.413a2.412,2.412,0,0,0-1.66-.085,1.533,1.533,0,0,0-.831,1.032.422.422,0,0,1-.385.294.417.417,0,0,1-.41-.258c-.035-.083-.849-2.048.138-3.31.667-.851,1.945-1.136,3.8-.84a2.666,2.666,0,0,1,1.986,1.565c1.07,2.535-1.575,7.029-1.688,7.219a.425.425,0,0,1-.365.207M67.7,212.3a4.052,4.052,0,0,1,1.636.385.425.425,0,0,1,.235.367L69.7,217.1c.712-1.558,1.439-3.736.9-5.021a1.823,1.823,0,0,0-1.37-1.063c-1.47-.232-2.506-.051-2.963.53a1.979,1.979,0,0,0-.279,1.492,2.085,2.085,0,0,1,.769-.556,2.46,2.46,0,0,1,.955-.181" transform="translate(2.568 8.288)" fill="#f3e98c"/>
        <path id="Path_155374" data-name="Path 155374" d="M148.852,277.138c5.856-2.886,51.688,19.012,80.969,58.308,2.207,2.971,4.838,5.092,6.62,1.783l-4.244,7.723s-8.571-18.078-36.919-37.514-44.3-29.2-46.426-30.3" transform="translate(5.873 10.924)" fill="#ed8763"/>
        <path id="Path_155375" data-name="Path 155375" d="M52.3,60.435c-5.687,44.05,12.137,98.283,20.37,113.9a65.746,65.746,0,0,1,6.45-4.328C66.05,145.054,55.695,120.526,56.2,61.963c-.34-3.735-2.207-6.027-3.9-1.528" transform="translate(2.02 2.286)" fill="#ed8763"/>
        <path id="Path_155376" data-name="Path 155376" d="M136.9,417.206c-20-.885-34.718-16.606-35.815-38.235a.848.848,0,1,1,1.694-.086c1.053,20.721,15.1,35.782,34.158,36.625,14.274,0,38.2-9.386,41.473-34.57,6.169-40.185-24.389-100.746-24.7-101.353a.849.849,0,0,1,1.512-.771c.312.612,31.115,61.654,24.866,102.362-3.413,26.242-28.3,36.028-43.191,36.028" transform="translate(3.988 10.982)" fill="#f1a68b"/>
        <path id="Path_155377" data-name="Path 155377" d="M143.893,424.553c-9.712,0-19.058-2.475-26.2-7.5-20.884-14.7-17.439-52.57-14.923-80.226l.052-.582c1.061-12.436,1.694-23.292,1.694-29.034,0-5.877-1.952-15.042-3.841-23.9l-.384-1.806a.849.849,0,1,1,1.66-.353l.384,1.806c1.907,8.949,3.878,18.2,3.878,24.258,0,5.787-.635,16.7-1.7,29.184l-.053.587c-2.478,27.242-5.871,64.551,14.209,78.682,14.9,10.483,39.8,9.424,56.679-2.411,8.977-6.295,22.91-21.014,15.344-48.87-.047-.159-4.983-17.352-10.519-36.4s-12.15-39.832-12.217-40.039a.849.849,0,0,1,1.617-.516c.067.208,6.688,21.025,12.228,40.08s10.476,36.243,10.524,36.414c7.841,28.869-6.662,44.166-16,50.716a57.308,57.308,0,0,1-32.426,9.911" transform="translate(3.956 11.065)" fill="#231f20"/>
        <path id="Path_155378" data-name="Path 155378" d="M246.7,464.284c-2.825,0-8.741-.873-21.495-4.379a182.672,182.672,0,0,0-53.531-6.848l-2.007,0a.851.851,0,0,1-.283-.049c-2.4-.849-3.662-2.031-3.749-3.513-.186-3.168,5.474-6.048,6.119-6.366a.849.849,0,0,1,.75,1.523c-2.2,1.085-5.262,3.275-5.175,4.744.042.7.923,1.39,2.485,1.964l1.854,0a184.116,184.116,0,0,1,53.984,6.908c17.24,4.739,21.356,4.484,22.284,4.236-1.711-2.288-17.994-9.721-35.514-11.911a.849.849,0,1,1,.211-1.684c15.956,1.994,35.689,9.594,37.025,13.242a1.355,1.355,0,0,1-.258,1.427c-.229.246-.652.707-2.7.707" transform="translate(6.534 17.479)" fill="#231f20"/>
        <path id="Path_155379" data-name="Path 155379" d="M246.173,459.576c-2.855,0-7.418-1.475-13.322-3.382-5.762-1.863-12.293-3.974-18.2-4.9a.849.849,0,1,1,.263-1.678c6.039.952,12.638,3.085,18.46,4.966,5.416,1.75,11.45,3.7,13.6,3.278-11.09-8.681-27.653-9.749-41.03-10.613-11.014-.711-18.972-1.224-20.075-5.847a.849.849,0,1,1,1.651-.395c.813,3.4,9.025,3.934,18.534,4.548,13.982.9,31.384,2.026,42.891,11.721a.849.849,0,0,1,.169,1.1,3.193,3.193,0,0,1-2.936,1.2" transform="translate(7.332 17.373)" fill="#231f20"/>
        <path id="Path_155380" data-name="Path 155380" d="M227.643,366.31c-1.484,0-2.812-.353-3.151-1.349-.207-.606-.088-1.528,1.642-2.482,10.76-5.97,5.563-16.755,5.336-17.211-17.814-31.631-82.342-67.008-82.992-67.362a.849.849,0,1,1,.812-1.491c.654.355,65.606,35.964,83.68,68.058.082.162,6.183,12.724-6.014,19.491a3.634,3.634,0,0,0-.7.477c.757.3,3.083.347,5.878-.806,3.148-1.3,8.462-4.825,8.67-13.843a.849.849,0,0,1,1.7.041c-.244,10.607-7.235,15.432-13.145,16.34a11.3,11.3,0,0,1-1.712.137" transform="translate(5.84 10.901)" fill="#231f20"/>
        <path id="Path_155381" data-name="Path 155381" d="M265.9,374.11c-.262,0-.723-.108-.953-.82-1.418-4.45-20.317-23.191-27.6-26.476-.991-.447-1.374-.415-1.463-.392,0,.011-.008.038-.015.08a.849.849,0,1,1-1.68-.247,1.694,1.694,0,0,1,1.608-1.532c3.433-.269,12.868,8.165,16.754,11.81,4.815,4.516,9.919,9.869,12.472,13.492-.892-5.72-5.09-18.59-20.2-28.8a.848.848,0,1,1,.949-1.406c20.236,13.673,21.522,31.917,21.028,33.557a.948.948,0,0,1-.894.734Z" transform="translate(9.239 13.401)" fill="#231f20"/>
        <path id="Path_155382" data-name="Path 155382" d="M270.406,373.825c-1.02,0-2.179-1.274-3.453-3.8a.849.849,0,0,1,1.516-.766,12.817,12.817,0,0,0,1.718,2.637,15.5,15.5,0,0,0-.095-3.947.765.765,0,0,1,0-.12c.981-27.9-27.718-34.047-28.008-34.106a.847.847,0,0,1-.53-.35c-19.918-28.921-49.97-53.131-69.462-63.386a.849.849,0,0,1,.79-1.5c15.129,7.959,46.826,30.3,69.882,63.653,3.351.809,29.958,8.122,29.027,35.691.42,3.984.137,5.6-1.037,5.943a1.2,1.2,0,0,1-.343.05" transform="translate(6.771 10.589)" fill="#231f20"/>
        <path id="Path_155383" data-name="Path 155383" d="M286.811,418.841c-17.559,0-39-4.662-58.336-13.313a.849.849,0,0,1,.693-1.55c29.226,13.075,63.2,16.964,80.791,9.249,23.27-10.248,32.762-25.1,32.762-51.25,0-40-26.552-43.5-31.875-43.8-6.54-.359-12.315,3.127-15.525,6.514-2.628,2.771-3.976,5.808-3.7,8.331a6.321,6.321,0,0,0,.362,1.76,14.089,14.089,0,0,0,1.749-1.934c1.326-1.631,2.974-3.654,4.99-4.615,5.919-4.84,13.618-5,20.626-.413,5.538,3.625,9.947,9.666,12.411,17.013A44.419,44.419,0,0,1,332,371.293c-4.68,16.662-16.446,28.077-34.026,33-21.136,5.853-47.988-4.675-64.031-10.967l-2.623-1.026a.848.848,0,1,1,.615-1.581l2.628,1.028c15.845,6.213,42.366,16.615,62.955,10.911,17.22-4.826,28.272-15.537,32.849-31.832,4.055-14.133,1.254-32.953-11.94-41.584-6.479-4.239-13.295-4.1-18.7.371a.919.919,0,0,1-.19.117c-1.7.774-3.244,2.669-4.481,4.191-1.387,1.7-2.393,2.935-3.567,2.584-1.078-.317-1.381-1.772-1.549-3.3-.332-3.019,1.183-6.551,4.155-9.687,3.47-3.663,9.705-7.446,16.852-7.039,5.59.31,33.478,3.962,33.478,45.49,0,26.939-9.785,42.238-33.777,52.8-6.246,2.741-14.49,4.06-23.832,4.06" transform="translate(8.994 12.485)" fill="#231f20"/>
        <path id="Path_155384" data-name="Path 155384" d="M195.486,424.634c-7.618,0-18.031-2.414-23.743-12.5a.849.849,0,0,1,1.477-.838c8.824,15.576,28.895,10.936,29.1,10.885.174-.045.4-.1.678-.163,20.086-4.731,30.4-17.235,29.833-36.164-.286-9.532-3.986-16.175-11-19.744-10.948-5.576-26.9-1.857-30.2.39a.849.849,0,1,1-.956-1.4c3.613-2.465,20.2-6.47,31.922-.5,7.608,3.874,11.62,11.008,11.927,21.207.587,19.551-10.472,33-31.142,37.867-.264.061-.48.112-.644.155a30.586,30.586,0,0,1-7.251.8" transform="translate(6.771 14.261)" fill="#231f20"/>
        <path id="Path_155385" data-name="Path 155385" d="M50.492,447.333a.849.849,0,0,1-.763-1.22c3.088-6.352,10.485-11.528,69.951-10.492a.849.849,0,0,1,.834.864.817.817,0,0,1-.864.834c-58.389-1.017-65.669,3.932-68.394,9.538a.849.849,0,0,1-.764.477" transform="translate(1.959 17.181)" fill="#231f20"/>
        <path id="Path_155386" data-name="Path 155386" d="M45.915,452.511a1.173,1.173,0,0,1-.682-.166,1.324,1.324,0,0,1-.478-1.606c.924-2.73,14.621-13.223,60.64-10.74a.849.849,0,1,1-.09,1.7c-41.447-2.247-56.141,6.34-58.575,9.027.876-.147,2.278-.442,3.736-.748a149.634,149.634,0,0,1,17.892-2.927,585.887,585.887,0,0,1,60.113-.851c10.2.425,11.982-1.442,12.276-2.263.584-1.633-2.269-4.25-3.315-5.038-5.031-4.176-15.3-15.666-15.739-16.153a.849.849,0,1,1,1.266-1.131c.106.119,10.624,11.883,15.525,15.952.483.362,4.968,3.845,3.862,6.94-.94,2.63-5.5,3.74-13.944,3.389a583.81,583.81,0,0,0-59.9.847,148.191,148.191,0,0,0-17.681,2.9,34.429,34.429,0,0,1-4.9.877" transform="translate(1.762 16.622)" fill="#231f20"/>
        <path id="Path_155387" data-name="Path 155387" d="M73.074,177.081a.847.847,0,0,1-.755-.459c-.252-.486-24.973-49.273-20.58-113.711-1.52-1.17-6.746-5.782-8.221-14.816-1.975-12.1,3.516-26.619,16.323-43.148a.836.836,0,0,1,.222-.2c1.92-1.193,3.1-1.709,3.859-1.009.925.854.185,2.285-1.791,6.106-2.768,5.35-7.4,14.306-7.221,23.106a.849.849,0,0,1-1.7.034c-.189-9.23,4.568-18.426,7.41-23.92.7-1.347,1.463-2.826,1.8-3.706a15.3,15.3,0,0,0-1.34.75c-12.418,16.064-17.769,30.08-15.9,41.66,1.556,9.659,7.842,13.986,7.905,14.028a.849.849,0,0,1,.374.765c-4.511,64.177,20.113,112.8,20.363,113.282a.849.849,0,0,1-.366,1.143.837.837,0,0,1-.388.095" transform="translate(1.701 0.135)" fill="#231f20"/>
        <path id="Path_155388" data-name="Path 155388" d="M92.717,161.953a.845.845,0,0,1-.678-.338c-.291-.385-29.024-39.2-28.35-98.719a.85.85,0,0,1,.849-.84h.009a.848.848,0,0,1,.839.859c-.667,58.916,27.721,97.3,28.008,97.678a.849.849,0,0,1-.167,1.188.839.839,0,0,1-.51.171" transform="translate(2.512 2.448)" fill="#231f20"/>
        <path id="Path_155389" data-name="Path 155389" d="M59.886,64.4a.849.849,0,0,1,0-1.7c.2,0,20.567-.212,23.867-16.548l.006-.028c-.138.139-.276.281-.406.414-2.093,2.134-5.585,5.715-9.411,5.553-1.7-.069-3.331-.235-4.905-.4-3.932-.4-7.327-.748-8.541.971a.849.849,0,1,1-1.387-.979c1.786-2.53,5.639-2.137,10.1-1.68,1.548.158,3.148.321,4.8.388,3.063.111,6.236-3.112,8.132-5.045,1.439-1.467,2.162-2.2,3-1.735.8.447.606,1.534.266,2.909C81.841,64.2,60.106,64.4,59.886,64.4" transform="translate(2.326 1.715)" fill="#231f20"/>
        <path id="Path_155390" data-name="Path 155390" d="M67.2,52.294a1.058,1.058,0,0,1-.794-.361c-1.71-1.908,3.1-18.047,7.141-27.567a92.516,92.516,0,0,1,7.208-13.03c.754-1.184,1.526-2.4,1.864-3.057a3.79,3.79,0,0,0-1.939.071c-2.8.719-10.185,4.854-18.368,27.667a.849.849,0,0,1-1.6-.574C68.871,12.714,76.463,7.682,80.261,6.706a4.327,4.327,0,0,1,3.884.464c.864.646.267,1.584-1.954,5.077a91.027,91.027,0,0,0-7.079,12.784C70.444,36.023,67.433,48.417,67.7,50.69a.849.849,0,0,1-.169,1.555,1.122,1.122,0,0,1-.327.049M83.045,8.463l.029.023-.029-.023" transform="translate(2.393 0.256)" fill="#231f20"/>
        <path id="Path_155391" data-name="Path 155391" d="M62.24,39.552a.848.848,0,0,1-.816-.618c-2.333-8.275,4.978-20.96,9.816-29.353A56.122,56.122,0,0,0,75.2,2.012c-9.294,4.131-16.79,19.266-20.495,28.106a.848.848,0,1,1-1.565-.655C57.072,20.08,65.21,3.782,75.531.05a.855.855,0,0,1,.633.023A1.347,1.347,0,0,1,76.9.9c.451,1.385-.959,3.922-4.191,9.53-4.7,8.146-11.792,20.458-9.653,28.043a.849.849,0,0,1-.586,1.048.889.889,0,0,1-.231.032" transform="translate(2.094 0)" fill="#231f20"/>
        <path id="Path_155392" data-name="Path 155392" d="M58.005,441.179a.848.848,0,0,1-.674-1.364c2.811-3.674,10.182-5.465,21.951-5.405a143.629,143.629,0,0,1,16.609,1.175.849.849,0,0,1-.236,1.682,141.671,141.671,0,0,0-16.4-1.159c-11.01-.068-18.143,1.559-20.575,4.738a.846.846,0,0,1-.675.334" transform="translate(2.255 17.138)" fill="#231f20"/>
        <path id="Path_155393" data-name="Path 155393" d="M238.98,452.74a.844.844,0,0,1-.686-.349c-6.225-8.539-23.51-5.385-23.686-5.352a.849.849,0,0,1-.316-1.668c.754-.142,18.516-3.387,25.373,6.022a.849.849,0,0,1-.685,1.348" transform="translate(8.427 17.545)" fill="#231f20"/>
        <path id="Path_155394" data-name="Path 155394" d="M267.766,365.9l-.055,0a.849.849,0,0,1-.793-.9c.727-11.3-14.469-23.688-14.623-23.813a.849.849,0,0,1,1.064-1.322c.656.528,16.036,13.063,15.253,25.244a.849.849,0,0,1-.846.794" transform="translate(9.941 13.401)" fill="#231f20"/>
        <path id="Path_155395" data-name="Path 155395" d="M96.464,430.383a35.515,35.515,0,0,1-13.144-2.3C75.377,424.93,69.8,418.53,66.755,409.06c-4.033-12.1-2.769-21.926,3.761-29.194,9.485-10.556,26.7-11.9,32.281-10.682a.848.848,0,1,1-.363,1.657c-5.123-1.118-21.764.262-30.656,10.161-6.092,6.78-7.24,16.043-3.41,27.53C71.256,417.5,76.5,423.546,83.943,426.5c19.34,7.678,47.6-7.682,47.884-7.837a.849.849,0,1,1,.819,1.486c-.94.518-18.808,10.23-36.182,10.231" transform="translate(2.543 14.55)" fill="#231f20"/>
        <path id="Path_155396" data-name="Path 155396" d="M121.418,438.95a.867.867,0,0,1-.268-.044c-7.789-2.6-14.378-10.794-14.654-11.141a.848.848,0,0,1,1.327-1.057c.064.081,6.559,8.152,13.864,10.588a.849.849,0,0,1-.269,1.654" transform="translate(4.194 16.822)" fill="#231f20"/>
        <path id="Path_155397" data-name="Path 155397" d="M170.929,447.988a.849.849,0,0,1-.722-1.294,115.207,115.207,0,0,0,8.4-16.748,79.915,79.915,0,0,1,5.174-10.662.849.849,0,1,1,1.451.881,77.39,77.39,0,0,0-5.063,10.444,116.763,116.763,0,0,1-8.519,16.974.849.849,0,0,1-.723.4" transform="translate(6.71 16.526)" fill="#231f20"/>
        <path id="Path_155398" data-name="Path 155398" d="M186.119,442.854a.777.777,0,0,1-.154-.015.848.848,0,0,1-.682-.988c.878-4.789,4.278-8.063,7.878-11.529.449-.432.9-.87,1.36-1.317a48.49,48.49,0,0,0,6.744-8.662.848.848,0,0,1,1.448.885,50.222,50.222,0,0,1-6.992,8.979c-.471.462-.929.9-1.381,1.338-3.546,3.414-6.607,6.36-7.386,10.613a.849.849,0,0,1-.834.7" transform="translate(7.309 16.567)" fill="#231f20"/>
        <path id="Path_155399" data-name="Path 155399" d="M205.414,291.913a.848.848,0,0,1-.58-.23c-.094-.087-9.559-8.822-25.583-13.536-14.772-4.346-38.314-6.064-66.6,10.425a.849.849,0,0,1-1.233-1c2.207-6.621,7.256-24.856,4.166-29.658a.848.848,0,1,1,1.427-.918c3.49,5.422-1.442,22.931-3.32,29.029,28.006-15.651,51.348-13.844,66.12-9.481A73.154,73.154,0,0,1,204.168,288.9c-4.667-28.314,5.487-46.9,14.987-57.6a69.471,69.471,0,0,1,21.376-16.277c-31.573-22.355-34.641-50.639-31.588-70.546A92.094,92.094,0,0,1,222.977,108.4c5.421-8.188,11.506-14.329,16.781-17.041-67.136-13.683-99.279,38.06-113.106,60.319q-.738,1.187-1.4,2.254a.849.849,0,1,1-1.439-.9q.666-1.062,1.4-2.247c14.2-22.859,47.45-76.386,117.566-60.512a.849.849,0,0,1,.061,1.639c-10.319,3.165-28,25.316-32.216,52.822-3.019,19.684.1,47.764,32.108,69.752a.849.849,0,0,1-.163,1.486,67.061,67.061,0,0,0-22.19,16.509c-9.479,10.694-19.625,29.51-14.128,58.423a.848.848,0,0,1-.834,1.007" transform="translate(4.394 3.447)" fill="#231f20"/>
        <path id="Path_155400" data-name="Path 155400" d="M109.595,199.124a5.645,5.645,0,0,1-2.3-.479c-3.467-1.534-4.731-6.3-2.818-10.622a9.738,9.738,0,0,1,4.2-4.685,5.988,5.988,0,0,1,9.016,3.99,9.734,9.734,0,0,1-.642,6.259c-1.507,3.406-4.544,5.536-7.46,5.537m2.325-14.944a5.185,5.185,0,0,0-2.439.655,8.032,8.032,0,0,0-3.448,3.876c-1.534,3.466-.658,7.226,1.952,8.381s5.982-.726,7.516-4.192a8.027,8.027,0,0,0,.549-5.158,4.583,4.583,0,0,0-2.5-3.223,4.007,4.007,0,0,0-1.63-.339m-6.663,4.187h0Z" transform="translate(4.087 7.199)" fill="#231f20"/>
        <path id="Path_155401" data-name="Path 155401" d="M102.109,287.526a3.823,3.823,0,0,1-2.109-.857c-.892-.637-1.74-1.285-2.581-1.927a40.68,40.68,0,0,0-6.146-4.124,51.828,51.828,0,0,0-18.56-6.025c-12.5-1.362-25.273,3.256-35.036,12.67a.849.849,0,0,1-1.381-.918c2.275-5.872,3.085-13.027,2.407-21.266C36.739,241.446,21.954,211.759.608,202.989a.849.849,0,0,1,.645-1.571C23.2,210.436,38.389,240.8,40.394,264.939a53.094,53.094,0,0,1-1.474,18.912c9.771-8.283,21.99-12.251,33.99-10.943a53.53,53.53,0,0,1,19.159,6.211,42.424,42.424,0,0,1,6.38,4.275c.827.632,1.661,1.268,2.531,1.89,1.143.8,1.238.865,2.38-.737a21.47,21.47,0,0,0,2.532-4.655c3.054-6.753,3.8-14.335,4.522-21.668l.093-.936a.849.849,0,0,1,1.689.167l-.093.934c-.735,7.47-1.495,15.193-4.647,22.163a23.062,23.062,0,0,1-2.714,4.981c-.9,1.254-1.651,1.992-2.633,1.992" transform="translate(0.003 7.944)" fill="#231f20"/>
        <path id="Path_155402" data-name="Path 155402" d="M.848,207.835a.849.849,0,0,1-.182-1.678c17.354-3.837,28.763-13.016,35.9-28.885,7.642-18.34,5.251-40.9-6.4-60.325C24.142,105.82,18.388,97.628,12.04,91.133a.849.849,0,0,1,.241-1.36C27.887,82.327,41.1,78.58,53.855,77.979a.869.869,0,0,1,.888.808.849.849,0,0,1-.808.888C41.7,80.251,29.009,83.791,14.077,90.8c6.137,6.47,11.741,14.547,17.564,25.3,11.912,19.852,14.344,42.982,6.487,61.84-7.389,16.421-19.174,25.906-37.1,29.869a.86.86,0,0,1-.184.02" transform="translate(0 3.076)" fill="#231f20"/>
        <path id="Path_155403" data-name="Path 155403" d="M121.021,153.405a.85.85,0,0,1-.842-.749C116.494,121.25,98.138,86.7,65.436,80.314a.849.849,0,0,1,.326-1.666c33.541,6.553,52.346,41.792,56.1,73.809a.848.848,0,0,1-.744.942.8.8,0,0,1-.1.006" transform="translate(2.555 3.102)" fill="#231f20"/>
        <path id="Path_155404" data-name="Path 155404" d="M99.519,260.941c-7.947,0-15.742-3.023-23.246-9.026a.853.853,0,0,1-.317-.621,2.216,2.216,0,0,1,.65-1.575,3.936,3.936,0,0,1,3.024-.929,9.283,9.283,0,0,1,3.58,1.327c3.187,1.633,8.006,4.1,16.948,3.344,7.025-.594,14.722-4.748,20.091-10.845,4.4-5,9.361-13.593,9.1-26.771-2.574,4.79-8.657,13.121-19.238,11.461-16.278-3.355-28.684.472-36.095,2.758-4.2,1.3-6.514,2.01-7.67.813-.878-.911-1.181-2.5-1.6-4.7-.876-4.612-2.2-11.582-10.329-15.933a5.9,5.9,0,0,1-2.574-5.034c-.38-10.156,14.727-29.65,22.735-35.933a111.038,111.038,0,0,1,25.191-14.4c13.074-5.276,24.063-6.357,32.66-3.214,12.021,4.4,19.967,11.809,23.617,22.014,7.907,22.1-6.9,48.214-7.052,48.472-6.01,10.195-22.3,34.332-43.659,38.257a32.184,32.184,0,0,1-5.82.536m-21.735-9.994c8.789,6.875,17.951,9.494,27.248,7.788,20.677-3.8,36.612-27.455,42.5-37.449a76.155,76.155,0,0,0,7.165-18.591c2.651-10.744,2.564-20.581-.248-28.447-3.473-9.707-11.077-16.77-22.6-20.992-19.079-6.975-47.052,10.163-56.22,17.355-8.557,6.713-22.42,25.632-22.086,34.535a4.233,4.233,0,0,0,1.75,3.644c8.774,4.691,10.188,12.14,11.123,17.069.335,1.768.625,3.3,1.152,3.841.432.446,3.49-.5,5.949-1.256,7.567-2.334,20.234-6.241,36.9-2.805,13.19,2.061,18.749-13.382,18.8-13.538a.849.849,0,0,1,1.648.209c2.312,27.578-16.482,41.655-30.565,42.844a29.934,29.934,0,0,1-17.864-3.525,8.586,8.586,0,0,0-2.856-1.14,2.247,2.247,0,0,0-1.8.458" transform="translate(2.045 5.914)" fill="#231f20"/>
        <path id="Path_155405" data-name="Path 155405" d="M68.824,218.865a.826.826,0,0,1-.187-.021A.848.848,0,0,1,68,217.83c.926-4.131.283-4.694.276-4.7s-.321-.067-1.316.666l-.1.073a1.649,1.649,0,0,0-.333.6.849.849,0,0,1,.375,1.656,1.552,1.552,0,0,1-1.978-.733,2.808,2.808,0,0,1,.949-2.905l.08-.059c.56-.412,2.045-1.506,3.251-.719,1.152.752,1.29,2.754.451,6.492a.849.849,0,0,1-.827.663" transform="translate(2.556 8.341)" fill="#231f20"/>
        <path id="Path_155406" data-name="Path 155406" d="M74.743,220.882a.849.849,0,0,1-.693-1.338c.914-1.3,4.07-5.535,6.206-5.463a1.679,1.679,0,0,1,1.407.84c.9,1.466,1.09,2.548.578,3.311-.3.438-.93.912-2.29.687a.849.849,0,0,1,.28-1.675,1.592,1.592,0,0,0,.59.016,3.187,3.187,0,0,0-.6-1.45c-.675-.136-2.983,2.164-4.778,4.714a.852.852,0,0,1-.7.359" transform="translate(2.915 8.446)" fill="#231f20"/>
        <path id="Path_155407" data-name="Path 155407" d="M89.319,240.225a.794.794,0,0,1-.121-.008.849.849,0,0,1-.721-.959c1.039-7.352-5.1-14.882-5.161-14.958a.848.848,0,0,1,1.309-1.08c.273.33,6.676,8.19,5.533,16.276a.848.848,0,0,1-.839.73" transform="translate(3.279 8.794)" fill="#231f20"/>
        <path id="Path_155408" data-name="Path 155408" d="M92,248.151a12.588,12.588,0,0,1-3.835-.562c-2.037-.652-3.5-1.809-3.633-2.88a1.176,1.176,0,0,1,.539-1.169.668.668,0,0,1,.084-.047c1.429-.69,3.524-3.415,5.743-6.3,4.739-6.166,10.639-13.837,16.237-10.019a.849.849,0,0,1-.956,1.4c-4.276-2.916-9.633,4.052-13.936,9.65-2.213,2.879-4.155,5.4-5.831,6.5a6.563,6.563,0,0,0,3.293,1.511c3.6.723,11.177.287,21.422-10.79a.849.849,0,0,1,1.246,1.153c-8.8,9.516-15.908,11.551-20.374,11.551" transform="translate(3.335 8.922)" fill="#231f20"/>
        <path id="Path_155409" data-name="Path 155409" d="M96.709,238.58a.849.849,0,0,1-.405-1.595,20.2,20.2,0,0,0,7.411-6.923c1.648-2.77,5.146-4.256,9.857-4.168,3.657.07,8.144,1.2,9,2.763a1.252,1.252,0,0,1-.018,1.288.849.849,0,0,1-1.561-.574c-.7-.644-4.2-1.863-8.215-1.779-2.6.057-6.026.687-7.615,3.357a21.9,21.9,0,0,1-8.048,7.527.843.843,0,0,1-.4.1m24.4-9.529h0" transform="translate(3.782 8.912)" fill="#231f20"/>
        <path id="Path_155410" data-name="Path 155410" d="M129.01,179.914a.849.849,0,0,1-.833-.689c-1.376-7.19-11.1-7.108-11.2-7.119a.849.849,0,1,1-.028-1.7c.115.006,11.257-.082,12.9,8.5a.851.851,0,0,1-.835,1.008" transform="translate(4.581 6.723)" fill="#231f20"/>
        <path id="Path_155411" data-name="Path 155411" d="M95.457,166.838a.846.846,0,0,1-.579-.229,11.208,11.208,0,0,0-13.33-1.419.849.849,0,0,1-.871-1.457,12.909,12.909,0,0,1,15.359,1.636.849.849,0,0,1-.579,1.469" transform="translate(3.167 6.388)" fill="#231f20"/>
        <path id="Path_155412" data-name="Path 155412" d="M129.929,215.159a.848.848,0,0,1-.842-.753c-.749-6.6-7.151-6.309-7.427-6.293a.849.849,0,0,1-.1-1.7c.081,0,8.28-.377,9.21,7.8a.849.849,0,0,1-.748.94c-.032,0-.064.005-.1.005" transform="translate(4.764 8.143)" fill="#231f20"/>
        <path id="Path_155413" data-name="Path 155413" d="M79.881,190.055a4.091,4.091,0,0,1-1.064-.14,4.949,4.949,0,0,1-3.294-3.506A11.155,11.155,0,0,1,78.447,175.5a4.566,4.566,0,0,1,7.9,2.117,10.449,10.449,0,0,1,.022,5.853c-1.051,3.919-3.767,6.587-6.488,6.587M77.148,181h0a8.74,8.74,0,0,0-.005,4.883,3.321,3.321,0,0,0,2.114,2.389c2.055.552,4.555-1.851,5.465-5.242a8.739,8.739,0,0,0,0-4.883,2.892,2.892,0,0,0-5.14-1.377A8.737,8.737,0,0,0,77.148,181" transform="translate(2.963 6.863)" fill="#231f20"/>
        <path id="Path_155414" data-name="Path 155414" d="M92.576,236.676a.793.793,0,0,1-.13-.01.848.848,0,0,1-.71-.968c.938-6.1-4.784-11.678-4.842-11.734a.849.849,0,0,1,1.176-1.226c.262.252,6.417,6.242,5.344,13.219a.849.849,0,0,1-.838.719" transform="translate(3.418 8.778)" fill="#231f20"/>
        <path id="Path_155415" data-name="Path 155415" d="M90.2,251.261q-2.152,0-4.414-.177a.849.849,0,0,1,.133-1.692c11.442.9,20.677-1.724,27.433-7.788,11.179-10.032,11.792-26.282,11.8-26.444a.882.882,0,0,1,.873-.824.849.849,0,0,1,.823.873c-.02.694-.627,17.119-12.349,27.648-6.216,5.585-14.376,8.4-24.3,8.4" transform="translate(3.353 8.456)" fill="#231f20"/>
        <path id="Path_155416" data-name="Path 155416" d="M112.37,242.378a.849.849,0,0,1-.587-1.461c.148-.141.164-.216.164-.217-.053-.405-1.768-1.333-3.692-1.827a.849.849,0,0,1,.422-1.644c1.035.266,4.447,1.272,4.911,3.044a1.864,1.864,0,0,1-.631,1.871.844.844,0,0,1-.587.236" transform="translate(4.246 9.358)" fill="#231f20"/>
        <path id="Path_155417" data-name="Path 155417" d="M84.542,249.266a.849.849,0,1,1,0-1.7c.262,0,.984-.768,1.454-1.666a.849.849,0,0,1,1.505.785c-.314.6-1.457,2.579-2.959,2.579" transform="translate(3.302 9.683)" fill="#231f20"/>
        <path id="Path_155418" data-name="Path 155418" d="M88.38,249.922a.849.849,0,0,1-.6-1.449l2.206-2.206a.849.849,0,0,1,1.2,1.2l-2.207,2.207a.846.846,0,0,1-.6.248" transform="translate(3.453 9.706)" fill="#231f20"/>
      </g>
    </g>
  </g>
</svg>
